<?xml version="1.0" encoding="utf-8"?>
<!-- Generator: Adobe Illustrator 22.0.1, SVG Export Plug-In . SVG Version: 6.00 Build 0)  -->
<svg version="1.1" id="Layer_1" xmlns="http://www.w3.org/2000/svg" xmlns:xlink="http://www.w3.org/1999/xlink" x="0px" y="0px"
	 viewBox="0 0 856.1 856.1" style="enable-background:new 0 0 856.1 856.1;" xml:space="preserve">
<style type="text/css">
	.st0{fill:#242222;}
	.st1{fill:#FEFEFE;}
	.st2{fill:#70000C;}
	.st3{fill:#CF9204;}
</style>
<g>
	<path class="st0" d="M363.6,82L363.6,82c0.1,0,0.3-0.1,0.5-0.2L363.6,82z"/>
	<path class="st0" d="M818.1,175.9c0-0.1,0-0.1,0-0.2c-1.9-9.8-4.1-17.7-6.6-23.9c-4.9-13.2-9.2-17.3-17.8-21.1s-18.7,2.7-24.4,6.7
		c-4.4,3-9.2,6.6-14.8,10.6c-21.8,15.4,0,0-21.8,15.4c-30.7,25.7-56.4,61.1-96.4,73.1c-6.6-41.4-16.5-82.5-28.8-122.7
		c-0.4-1.5-0.9-3-1.4-4.4c-1.5-5.4-3.1-10.7-4.6-15.5l-0.1-0.4l-0.1-0.3c-18.9-56-47-77.8-62.5-84.6c-16.8-7.4-29.4,23.4-34.3,24
		c-4.9,0.6-0.3-2.4-23-18.6C458.8-2,433,29,421.4,36.3c-9.3,5.8-58.4,23.7-104.7,49.8l-0.8,0.4c0,0-0.1,0-0.1,0.1l-0.1,0.1l-2.6,1.5
		c-1.3,0.8-2.6,1.5-3.9,2.3l-2.3,1.3c-1.4,0.8-2.9,1.7-4.2,2.5l-2.2,1.3c-0.7,0.4-1.4,0.9-2.1,1.3c-4.9,3-9.7,5.9-14.1,8.9
		c-13.3,7.1-25.9,16.2-30.7,31.2c-9.2,21.4,0,0-9.2,21.4c-7.2,18.1-13.7,36.5-20.3,54.9c-46.8-13.4-99.3-10.7-142,13.4
		c-31.6,19.9-44.5,58.8-46.3,94.5c-3,67.3,22.7,133.9,63.8,186.5c13.9,16.3,0,0,13.9,16.3c20.4,22.2,44.3,41.3,70.8,55.8
		c16.4,9.9,53.3,20.4,100.1,41.7c21.4,11,41.2,25.7,57.7,43.4c45.7,49,56.7,118.1,64.7,182.1c15.6-16.1,31.8-31.6,46-49.1
		c42.6-51.6,74.8-110.6,105.6-169.7c15-29.6,30.9-58.7,42.5-89.7c11.9-31.5,19.3-64.6,22.8-98.1c63.2-25.7,116.5-72.6,154.9-128.6
		C804.9,272.4,826.4,224.2,818.1,175.9z M453.5,655.7C453.5,655.7,453.5,655.7,453.5,655.7C453.5,655.7,453.5,655.7,453.5,655.7
		C453.5,655.7,453.5,655.7,453.5,655.7z"/>
	<path class="st0" d="M51.1,347.4c-0.4-5.3-0.5-10.6-0.5-15.8C50.5,336.8,50.7,342.1,51.1,347.4z"/>
</g>
<g>
	<path class="st0" d="M809.1,181.5c-0.2-1.3-0.3-2.6-0.6-3.9c-0.1-0.5-0.2-1-0.3-1.5c-1.4-7.4-3.7-14.6-7.1-21.4
		c-4.6-9.3-16.6-6.8-24.3-3.3c-38.6,18.2-62.7,55.5-97.4,79.1c-15.8,11.3-34.3,20-54,20.4C618.8,195,604.2,140.1,586,87
		c-45.4-92.9-62.7-57-68.3-52.5c-5.6,4.6-5.9,16.3-17.3,9.1c-11.5-7.2-33.2-22.9-49.1-7.6c-15.7,15.1-50.4,24.8-87.3,41.4
		c-0.1,0.1-0.3,0.1-0.4,0.2c-0.1,0-0.1,0.1-0.2,0.1l0,0l-0.4,0.2l-0.1,0.1h-0.1l0,0c-2.2,1-4.4,2-6.6,3c-1.8,0.8-3.6,1.7-5.5,2.5
		c-27.3,12.5-54.6,25.4-78.6,43.5c-18.2,32-28.2,67.8-41,102.1c-45.4-16.1-97.6-16.7-141.1,5.6c-25.1,13.5-37.5,41.8-41.7,68.8
		c-2.2,14.2-2.6,28.6-1.6,42.9c0,0.5,0.1,0.9,0.1,1.4c0.1,1.4,0.2,2.9,0.4,4.3c0,0.1,0,0.1,0,0.2c0.2,1.7,0.3,3.4,0.6,5.2
		c0.4,3.9,1,7.7,1.6,11.6c0.2,1.1,0.4,2.2,0.6,3.4c0.4,2.2,0.8,4.4,1.3,6.6c0,0,0,0,0,0.1c0.2,0.9,0.4,1.8,0.6,2.7
		c0.2,0.8,0.4,1.7,0.6,2.5c2.9,12.5,6.7,24.9,11.2,36.9c24.8,65.5,73.7,122.9,137.3,153.3c49.3,15.7,99.1,35.1,138.2,70
		c50.1,44,70,111.3,78.5,175.3c53.2-54.6,90.4-121.9,125.6-188.8c17.2-33.8,35.8-67,48.4-102.8c11.4-31.6,17.9-64.8,20.8-98.3
		c60-22.1,111.2-64.9,149.5-115.9c20-27.1,36.6-57.4,44.4-90.4C809.5,210,810.9,195.5,809.1,181.5z M529.8,44.7
		c1,0.6,1.9,1.2,2.9,1.8c0.5,0.3,1,0.7,1.5,1.1c0.5,0.3,0.9,0.7,1.3,1c0.7,0.5,1.4,1.1,2.1,1.7c0.5,0.4,1,0.8,1.5,1.3
		c0.3,0.3,0.6,0.6,0.9,0.8c0.3,0.3,0.6,0.6,0.9,0.9c0.3,0.3,0.6,0.6,0.9,0.9c0.3,0.3,0.6,0.6,0.9,0.9c0.6,0.6,1.2,1.2,1.8,1.8
		c0.3,0.3,0.6,0.6,0.9,0.9c0.3,0.3,0.6,0.6,0.8,0.9c0.4,0.5,0.8,0.9,1.2,1.4c0.4,0.4,0.8,0.9,1.1,1.4l0.1,0.1
		c0.4,0.4,0.7,0.9,1.1,1.3c0.5,0.6,1,1.2,1.4,1.9c0.5,0.6,0.9,1.3,1.4,1.9c0.2,0.3,0.4,0.6,0.6,0.9c0.4,0.6,0.8,1.1,1.2,1.7
		c0.1,0.1,0.1,0.2,0.2,0.3c0.2,0.3,0.4,0.5,0.5,0.8c0.3,0.5,0.7,1,1,1.5c3.4,5.2,6.4,10.5,9.1,15.9c21.7,44.5,31.1,93.8,39.3,142.3
		c0,0-0.1,0-0.1-0.1c-5.6-2.6-11.4-4.6-17.2-6.4c-6.4-39.5-14-79-26.5-117c-2.4-7-5-14-7.9-20.9c-1.4-3.5-2.9-6.9-4.5-10.2
		c-0.6-1.3-1.3-2.7-2-4c-0.6-1.2-1.3-2.5-1.9-3.7c-0.3-0.5-0.5-1-0.8-1.4c-1.3-2.4-2.6-4.7-4.1-7c-0.4-0.6-0.7-1.2-1.1-1.8
		c-0.7-1.1-1.5-2.2-2.2-3.4c-0.8-1.2-1.7-2.4-2.6-3.6c-0.3-0.4-0.6-0.8-0.9-1.2s-0.7-0.9-1-1.3c-0.6-0.7-1.1-1.4-1.7-2.2
		c-0.2-0.3-0.5-0.6-0.7-0.9c-0.4-0.5-0.8-0.9-1.2-1.4C528.6,44,529.2,44.4,529.8,44.7z M547.5,259.3c-28.2,0.1-56.4-1-84.5-0.6l0,0
		c-0.2,0-0.3,0-0.5,0c25.3,4.7,51,7.5,76.3,11.9h0.1c0.2,0,0.4,0.1,0.6,0.1c-64.1-1.8-128.2,7.2-190.2,23.8
		c-19.4-6.8-38.1-15.5-57-23.3c2.9-1.2,5.7-2.3,8.6-3.5c1.8-0.7,3.7-1.4,5.5-2.2c1.8-0.7,3.6-1.4,5.4-2c0.2-0.1,0.5-0.2,0.7-0.3
		c73.3-27.4,152.9-42,230.7-29.5h0.2c0.2,0,0.3,0.1,0.5,0.1c-27.8,0.2-55.4-0.9-83.2-0.6l0,0h-0.6c28.2,5,56.6,8.2,84.8,13.2h0.2
		c0.2,0,0.4,0.1,0.6,0.1c-28.3,0.4-56.6-0.7-85-0.6h-0.6c29,4.8,58.1,8.4,86.9,13.3h0.2C547.2,259.3,547.3,259.3,547.5,259.3z
		 M405.7,351.2c-9.2,3.5-16.5,10.4-23.1,17.5c21,26.7,58.6,33.3,90.1,24.7c12.7-3.6,27.1-7.7,35.5-18.6c2.8,5,5.2,10.3,6.6,15.8
		c-67.9,7.4-134.4,23.7-201.6,35.5c9.6-11.1,12.2-26.3,15.3-40.3c6.8,9.1,15.6,16.3,24.7,23.1c-10.8-15.1-19.5-34-15.1-53
		c3.8-16.8,18-29.1,33.1-35.9c14.6,4.6,29.4,8.7,44.3,12.4c6.7,3.3,14.7,7.9,15.7,16c-18.8-9.6-41.4-15.6-61.8-7.3
		C382,340.6,397.1,340.4,405.7,351.2z M440.3,68.2c7.6-4.4,14.8-9.4,21.4-15.2c2.2-1.9,4.3-3.9,6.4-6c1-0.6,2-1,2.9-1.2
		c2.3-0.5,4.5,0.2,6.6,1.4c0.7,0.4,1.4,0.9,2.1,1.4c0.3,0.3,0.7,0.5,1,0.8l0,0c2.9,2.4,5.6,5.4,8.3,7.1c3.2,3.2,8.6,3.8,10.2,8.3
		c19.8,50.2,32,103,40.6,156.2l0,0c-89.3-12.2-180,8-262.1,42.7c-7.5,0-14.4-5.1-21.4-7.3l0,0c7-36.7,17-73.5,35.5-106.2
		c3.3-6.5,10.2-9.5,15.9-13.6C350,110.3,397.4,93.3,440.3,68.2z M226.6,350.5c-0.2,0.3-0.5,0.6-0.8,0.8c-0.3,0.3-0.5,0.6-0.8,0.8
		c-0.5,0.5-1.1,1.1-1.6,1.6s-1,1-1.6,1.5c-1.1,1.1-2.3,2.1-3.5,3.2c-1.8,1.6-3.5,3.1-5.3,4.7s-3.6,3.3-5.2,5l-0.1,0.1
		c-6.8,2.6-12.6,6.9-17.2,12.3l0,0c-0.3,0.4-0.6,0.7-0.9,1.1c-0.5,0.6-1,1.2-1.4,1.9c-0.2,0.3-0.5,0.7-0.7,1
		c-0.3,0.4-0.5,0.8-0.8,1.2c-0.4,0.7-0.8,1.3-1.2,2c-1.7,3-3.1,6.2-4.1,9.5c-7.9,24.9-5,51.6-1.8,77c0,0.1,0,0.2,0,0.3
		c-33.6-38-51.3-86.9-64-135.3c0-0.1-0.1-0.2-0.1-0.3c-5.2,60.6,18.3,120.6,54.1,168.7c0.1,0.1,0.2,0.2,0.2,0.3
		c-15.7-9.8-28.2-24.1-39.5-38.6c-26.8-36.3-46.6-79-52.2-124.2c-2.2-22.1-0.6-46.3,12.8-65c0.7-1,1.5-2,2.3-3l0.1-0.1
		c0.4-0.5,0.8-0.9,1.2-1.4c0.3-0.3,0.6-0.6,0.8-0.9c0-0.1,0.1-0.1,0.2-0.2c0.1-0.2,0.3-0.3,0.4-0.5c0.3-0.3,0.6-0.6,0.9-0.9
		c0.2-0.2,0.5-0.5,0.7-0.7c0.6-0.6,1.3-1.2,2-1.8c0.3-0.3,0.6-0.5,0.9-0.8c0.4-0.3,0.7-0.6,1.1-0.9c0.7-0.6,1.5-1.2,2.3-1.8
		c0.1-0.1,0.2-0.2,0.3-0.3c0.5-0.3,0.9-0.7,1.4-1c0.2-0.1,0.3-0.2,0.5-0.3c0.8-0.5,1.6-1,2.3-1.5c0.5-0.3,0.9-0.6,1.4-0.8
		c0.5-0.3,0.9-0.5,1.4-0.8s0.9-0.5,1.4-0.8s1-0.5,1.4-0.7c0.6-0.3,1.2-0.6,1.8-0.9c0.7-0.3,1.4-0.6,2.1-0.9s1.4-0.6,2.1-0.9
		s1.3-0.5,2-0.8c0.6-0.2,1.3-0.5,2-0.7c0.6-0.2,1.2-0.4,1.8-0.6c0.6-0.2,1.2-0.4,1.8-0.6c1.2-0.4,2.4-0.7,3.6-1
		c3.6-0.9,7.3-1.6,10.9-2.2c26-3.6,52.1,2.3,76.8,10c32.9,10.4,64.8,24.1,96.5,37.8c0.2,0.1,0.4,0.2,0.6,0.3
		c-43.7-9.9-84.4-31.9-129-37.6c-0.2,0-0.3,0-0.5-0.1c27.4,11.8,54.7,26,75.8,47.3l0.1,0.1c-9,0-19,2.8-25.1,9.8l-0.1,0.1
		c-0.2,0.2-0.3,0.4-0.5,0.6c-0.4,0.5-0.8,1.1-1.2,1.7s-0.8,1.3-1.2,1.9c-4.8,6.9,0.2,16.4-5.5,23.1
		C228.3,348.6,227.4,349.6,226.6,350.5z M249.7,362.2c5.9-6.1,14.1,0.5,17.9,5.7c12.8,17.3,19.8,38.9,20.6,60.3
		c-4.2,0.8-8.3,1.5-12.4,2.2c-1.1-4.7-2.2-9.5-3.4-14.2c-9.7,0.4-10-8.7-5-14.7c-3.8-5.6-7.5-11.3-11.4-16.9
		c1.3,8.1,7.4,16,3.5,24.2c-3.1,6.2,1.7,11.3,7.2,13.6c0.2,3.3,0.4,6.4,0.6,9.7c-8,1.3-15.9,3-24,4.2
		C229.3,413.7,232.3,382.3,249.7,362.2z M541.6,507L541.6,507c-0.4,1.9-0.9,3.8-1.3,5.7c-0.5,2-1,4.1-1.5,6.1c0,0,0,0,0,0.1
		c-0.9,3.7-1.9,7.5-3,11.2c-1.1,3.7-2.1,7.4-3.3,11.2c-1.3,4.1-2.6,8.2-3.9,12.2c-1.1,3.3-2.3,6.7-3.5,10c-1,2.8-2.1,5.6-3.1,8.4
		c-0.6,1.5-1.2,3.1-1.8,4.6c-0.6,1.5-1.2,3-1.8,4.5c-1.2,3-2.5,6-3.8,9c-0.6,1.5-1.3,3-1.9,4.5c-0.6,1.3-1.1,2.5-1.7,3.8
		c-0.5,1.2-1.1,2.4-1.7,3.7c-1.6,3.5-3.3,7-5,10.5l0,0c-0.5,1.1-1,2.1-1.5,3.2c-1,2.1-2.1,4.2-3.2,6.3c-0.5,1-1.1,2.1-1.6,3.1
		c-0.9,1.8-1.9,3.6-2.9,5.5c-14.4,27.2-31.1,53.1-49.3,77.5c0,0,0,0.1-0.1,0.1c-13.6-31.9-28.9-63.3-49.2-91.5
		C356,558.4,299.4,514,241.4,474.4c0.1,0,0.1,0,0.1,0c10.5,2.1,20.9,4.9,31.1,8.3c4.6,1.5,9.2,3.2,13.8,5c4.9,1.9,9.7,3.9,14.4,6.1
		c5.9,2.7,11.8,5.6,17.5,8.7c3.2,1.7,6.3,3.4,9.4,5.3c9.3,5.4,18.2,11.4,26.9,17.7c-0.1-0.1-0.1-0.1-0.2-0.2
		c-28.5-33.6-70.8-52.7-113.2-61.7c0-0.6,0.1-1.7,0.1-2.3c31.1-3.1,62.2-5.8,93.3-9.3c-13.3,0.1-26.6,0.7-39.9,1.4
		c-3.8,0.2-7.7,0.4-11.5,0.6c-13.3,0.7-26.5,1.4-39.8,1.5h-0.1c3.2-2.1,7-2.1,10.7-2.4l0,0c0.6-0.1,1.1-0.1,1.7-0.2
		c0.3,0,0.6-0.1,0.8-0.1c69.5-8.3,137.7-25.5,206.8-36.7c3.9-0.6,7.8-1.2,11.6-1.8c1.6-0.2,3.2-0.5,4.7-0.7c3.2-0.5,6.3-0.9,9.5-1.4
		c1.6-0.2,3.2-0.4,4.8-0.6c2.4-0.3,4.8-0.6,7.1-0.9c16.7-2.1,33.4-3.6,50.2-4.5h0.1C552.5,440,549,473.9,541.6,507z M783,237.6
		c-10.8,31.6-30.5,59.4-52.1,84.6c-20.8,23.3-43.8,45.4-70.4,62.1l0,0c-0.4,0.2-0.7,0.5-1.1,0.7c25.6-19.7,50.5-41.9,65.2-71.2
		c9.3-17.7,15.4-36.8,19-56.4c0.6-12.1,12.2-19.2,16.6-29.8l0,0c0-0.1,0.1-0.2,0.1-0.3c-54.6,46.7-117.8,87-189.7,100
		c-10.3,2-20.7,3.3-31,4.1c-1.5,0.1-3,0.2-4.4,0.3c-1,0.1-2,0.1-3,0.2s-2,0.1-3,0.1c-2,0.1-3.9,0.1-5.9,0.2
		c-2.2,0.1-4.4,0.1-6.6,0.1c-1.6,0-3.2,0-4.7,0c-1.2,0-2.5,0-3.7-0.1c-0.1,0-0.3,0-0.4,0c-0.5,0-0.9,0-1.4,0c-0.6,0-1.2,0-1.8-0.1
		c-1.1,0-2.2-0.1-3.4-0.1c-1.2-0.1-2.4-0.1-3.6-0.2c-44.3-2.6-88.1-14-129.4-29.9c0.1,0,0.2,0,0.2,0l0,0c31.8,1,63.4,2.7,95.2,3.4
		h0.2c2,0,4.1,0.1,6.1,0.1l0,0c-7.7-1.2-15.3-2.3-23-3.4c-2.6-0.4-5.1-0.7-7.7-1.1c-0.2,0-0.4-0.1-0.7-0.1
		c-10.6-1.5-21.1-2.9-31.7-4.4c-0.1,0-0.1,0-0.2,0c-3-0.4-6-0.9-9-1.3c12.1-2.5,24.2-4.7,36.4-6.5c1.3-0.2,2.7-0.4,4.1-0.6
		c1.3-0.2,2.7-0.4,4.1-0.6c1.1-0.2,2.2-0.3,3.2-0.4c1.6-0.2,3.3-0.4,4.9-0.6c2.7-0.3,5.4-0.7,8.1-1c1.4-0.2,2.7-0.3,4.1-0.4
		s2.7-0.3,4.1-0.4s2.7-0.3,4.1-0.4s2.7-0.3,4.1-0.4c7.3-0.6,14.7-1.1,22-1.5c0.8-0.1,1.7-0.1,2.5-0.1c1.4-0.1,2.7-0.1,4.1-0.2
		c1.3-0.1,2.5-0.1,3.8-0.1c1.7-0.1,3.5-0.1,5.2-0.2c1.7,0,3.5-0.1,5.2-0.1c1.4,0,2.8-0.1,4.2-0.1c0.8,0,1.6,0,2.5,0
		c1.2,0,2.5,0,3.7,0c0.9,0,1.8,0,2.7,0.1c18,0.4,36.2,1.5,53.9,4.8c0.9,0.2,1.8,0.3,2.7,0.5c1.5,0.3,2.9,0.6,4.4,0.9
		c0.7,0.2,1.5,0.3,2.2,0.5s1.5,0.3,2.2,0.5c5.8,1.4,11.5,3.1,17.1,5.1c0.2,3.2,0.4,6.4,0.7,9.6c0.1-0.2,0.1-0.3,0.2-0.5l0,0
		c2.7-8.2,2.9-16.9,3.7-25.4h0.2c0.7,0,1.4,0,2.1,0c0.6,0,1.2,0,1.8-0.1c0.1,0,0.2,0,0.3,0c19-0.9,37.2-8.1,53.6-17.4
		c11.8-6.6,22.8-14.3,33.3-22.5l0,0c1.2-0.9,2.4-1.9,3.6-2.8c2.4-1.9,4.7-3.8,7.1-5.8c1.2-1,2.3-2,3.5-2.9c1.9-1.6,3.7-3.2,5.6-4.8
		c1.8-1.6,3.7-3.2,5.5-4.8l0,0c3.7-3.2,7.3-6.5,10.9-9.8c7.3-6.6,14.5-13.2,21.8-19.6c0.2-0.2,0.5-0.3,0.7-0.5s0.5-0.3,0.7-0.5
		c1.1-0.8,2.2-1.7,3.4-2.5c2.1-1.4,4.3-2.7,6.4-2.9c0.4-0.1,0.8-0.1,1.2,0c1.2,0.1,2.4,0.7,3.5,1.8
		C791.6,199.4,788.7,219.9,783,237.6z"/>
	<path class="st0" d="M304.4,153c50.9-22.9,101.5-47.3,146.8-80.2c-6.1,21.4-13.8,44-30.8,59.3c-15.9,13.8-37.7,16.4-58,18.3
		C343.1,151.5,323.8,152.7,304.4,153z"/>
	<path class="st1" d="M371.2,320c14.6,4.6,29.5,8.7,44.3,12.4c6.6,3.3,14.7,8,15.7,16c-18.8-9.6-41.4-15.6-61.8-7.3
		c12.5-0.5,27.6-0.7,36.3,10c-9.2,3.5-16.4,10.4-23.1,17.5c21,26.7,58.5,33.3,90.1,24.7c12.8-3.6,27.1-7.5,35.5-18.6
		c2.8,5,5.1,10.3,6.6,15.8c-67.9,7.3-134.4,23.7-201.6,35.5c9.7-11.1,12.2-26.3,15.3-40.3c6.8,9,15.6,16.3,24.7,23.1
		c-10.8-15.1-19.5-34.1-15.1-53C341.9,339.1,356,326.9,371.2,320z"/>
	<path class="st1" d="M249.7,362.2c5.9-6.2,14.2,0.5,18,5.7c12.8,17.3,19.8,38.9,20.6,60.3c-4.2,0.8-8.3,1.5-12.4,2.2
		c-1.1-4.7-2.2-9.5-3.4-14.2c-9.7,0.4-10.1-8.7-5-14.7c-3.8-5.6-7.5-11.3-11.4-16.9c1.4,8.1,7.4,16,3.5,24.2
		c-3.1,6.2,1.7,11.4,7.2,13.6c0.2,3.2,0.4,6.4,0.6,9.7c-8.1,1.3-15.9,3.1-24,4.2C229.3,413.7,232.3,382.4,249.7,362.2z"/>
	<g>
		<g>
			<path class="st2" d="M539.9,221.1C531.2,168,519,115.2,499.3,65c-1.6-4.5-7-5.2-10.2-8.3c-2.7-1.8-5.4-4.8-8.3-7.2l0,0
				c-0.3-0.3-0.7-0.5-1-0.8c-0.7-0.5-1.4-1-2.1-1.4c-2.1-1.2-4.3-1.9-6.6-1.4c-1,0.2-1.9,0.6-2.9,1.2c-2,2.1-4.2,4.1-6.4,6
				c-6.6,5.8-13.7,10.9-21.4,15.3c-43,25.1-90.3,42-132.5,68.5c-5.6,4-12.7,7-15.9,13.6c-18.5,32.6-28.6,69.3-35.6,106v0.1
				c7.1,2.2,14,7.3,21.4,7.3C359.9,229.1,450.6,208.9,539.9,221.1C539.9,221.1,539.9,221.1,539.9,221.1z M451.2,72.7
				c-6.1,21.4-13.7,44.1-30.8,59.3c-15.9,13.9-37.7,16.5-58,18.3c-19.4,1.2-38.7,2.4-58.1,2.8C355.2,130.1,405.8,105.7,451.2,72.7z"
				/>
		</g>
		<path class="st2" d="M767.1,186.8c4.3-3,11.3-9.8,16.1-4.7c8.6,17.3,5.7,37.7,0,55.5c-10.8,31.6-30.4,59.5-52.1,84.6
			c-21.1,23.7-44.5,46-71.5,62.8c25.6-19.6,50.5-41.8,65.2-71.2c9.3-17.7,15.4-36.8,19-56.4c0.6-12.2,12.4-19.3,16.7-30.1
			c-54.6,46.7-117.8,87-189.7,100c-68.2,13.1-138.4-0.8-202.3-25.4c34,0.9,67.8,3,101.8,3.6c-24.1-3.8-48.3-6.6-72.3-10.4
			c42.6-9,86.4-13.6,130.1-13.7c28.8,0.7,58.1,2.8,85.4,12.3c0.2,3.2,0.4,6.4,0.7,9.6c2.9-8.4,3.1-17.2,3.9-25.9
			c20.6,0.1,40.3-7.4,58.1-17.4C710,240.7,737.9,212.6,767.1,186.8z"/>
		<path class="st2" d="M142.2,252.7c26-3.7,52.1,2.3,76.9,9.9c33.2,10.5,65.2,24.3,97.1,38.1c-43.9-9.9-84.7-32-129.5-37.6
			c27.3,11.8,54.7,26,75.9,47.4c-10.7,0.1-22.9,4-28.1,14.1c-4.8,6.9,0.2,16.4-5.5,23.1c-6.2,7.7-14.4,13.5-21.2,20.5
			c-12.9,4.9-22.3,16-26.3,29.1c-8,25-5,51.7-1.7,77.2c-33.7-38.1-51.4-87.1-64.1-135.6c-5.3,60.8,18.4,121,54.4,169.1
			c-15.7-9.8-28.2-24.1-39.5-38.6c-26.9-36.4-46.7-79.2-52.2-124.3c-2.2-22.1-0.6-46.3,12.8-65C102.8,263.7,122.7,255.5,142.2,252.7
			z"/>
		<g>
			<path class="st2" d="M551.2,405.9L551.2,405.9c-16.8,0.8-33.6,2.4-50.2,4.5c-2.4,0.3-4.8,0.6-7.1,0.9c-1.6,0.2-3.2,0.4-4.8,0.6
				c-3.2,0.4-6.3,0.9-9.5,1.4c-1.6,0.2-3.2,0.5-4.7,0.7c-3.9,0.6-7.8,1.2-11.6,1.8c-69,11.3-137.2,28.5-206.8,36.7
				c-0.3,0-0.6,0.1-0.8,0.1c-0.6,0.1-1.1,0.1-1.7,0.2l0,0c-3.7,0.4-7.4,0.5-10.5,2.4c13.3-0.1,26.5-0.7,39.8-1.5
				c3.8-0.2,7.7-0.4,11.5-0.6c13.3-0.7,26.6-1.3,39.9-1.4h0.1c-31,3.5-62.2,6.2-93.4,9.3c0,0.6-0.1,1.7-0.1,2.3
				c42.5,9.1,84.9,28.2,113.4,61.9c-0.1-0.1-0.2-0.1-0.3-0.2c-8.6-6.3-17.5-12.2-26.7-17.5c-3.1-1.8-6.2-3.6-9.4-5.3
				c-5.7-3.1-11.6-6-17.5-8.7c-4.7-2.2-9.5-4.2-14.4-6.1c-4.6-1.8-9.2-3.4-13.8-5c-10.2-3.4-20.6-6.2-31.1-8.3l0,0
				c58,39.6,114.5,83.9,155.2,142.1c20.3,28.2,35.7,59.5,49.1,91.4v0.1c18.3-24.4,34.9-50.4,49.3-77.6c1-1.8,1.9-3.6,2.9-5.5
				c0.5-1,1.1-2.1,1.6-3.1c1.1-2.1,2.1-4.2,3.2-6.3c0.5-1.1,1-2.1,1.5-3.2l0,0c1.7-3.5,3.3-7,5-10.5c0.6-1.2,1.1-2.4,1.7-3.7
				s1.1-2.5,1.7-3.8c0.7-1.5,1.3-3,1.9-4.5c1.3-3,2.5-6,3.8-9c0.6-1.5,1.2-3,1.8-4.5c0.6-1.5,1.2-3,1.8-4.6c1.1-2.8,2.1-5.6,3.1-8.4
				c1.2-3.3,2.4-6.7,3.5-10c1.4-4.1,2.7-8.1,3.9-12.2c1.1-3.7,2.2-7.4,3.3-11.2c1-3.7,2-7.4,3-11.2c0,0,0,0,0-0.1
				c0.5-2,1-4.1,1.5-6.1c0.4-1.9,0.9-3.8,1.3-5.7l0,0C549,473.9,552.5,440,551.2,405.9z M453.8,658.4c2.3-5.6,4.5-11.3,6.6-17
				c0.5-1.4,1-2.9,1.6-4.3c0.5-1.4,1-2.9,1.5-4.3C476,597,485,560,490.5,522.5c0.2-1.5,0.4-3,0.6-4.5c0.2-1.4,0.4-2.8,0.6-4.2
				c0-0.1,0-0.2,0-0.3c0-0.2,0.1-0.4,0.1-0.7v-0.1c0.2-1.3,0.3-2.6,0.5-3.9s0.3-2.6,0.5-3.9v-0.1c0-0.3,0.1-0.6,0.1-1
				s0.1-0.8,0.1-1.2c2.9-26.8,3.8-53.9,0.5-80.7c1.3-0.2,2.6-0.3,3.9-0.5c9.1-1.1,18.2-2.3,27.2-3.3
				C523,502.6,498.3,586.5,453.8,658.4z"/>
		</g>
	</g>
	<g>
		<path class="st3" d="M363.3,77.7c-0.2,0.1-0.4,0.2-0.6,0.3l0.1-0.1L363.3,77.7z"/>
		<path class="st3" d="M822.7,172.9c0-0.1,0-0.1,0-0.2c-1.9-9.9-4.1-17.9-6.7-24.2c-5-13.4-9.3-17.5-18-21.3s-18.9,2.7-24.7,6.8
			c-4.5,3-9.3,6.7-15,10.7c-22.1,15.6,0,0-22.1,15.6c-31.1,26-57.1,61.8-97.5,74c-6.7-41.9-16.7-83.5-29.1-124.1
			c-0.4-1.5-0.9-3-1.4-4.5c-1.5-5.5-3.1-10.8-4.7-15.7l-0.1-0.4l-0.1-0.3c-19.1-56.7-47.6-78.7-63.2-85.6
			c-17-7.5-29.7,23.7-34.7,24.3c-5,0.6-0.3-2.4-23.3-18.8c-23-16.3-49.1,15.1-60.8,22.5c-9.4,5.9-59.1,24-105.9,50.4l-0.8,0.4
			c0,0-0.1,0-0.1,0.1l-0.1,0.1l-2.6,1.5c-1.3,0.8-2.6,1.5-3.9,2.3l-2.3,1.3c-1.4,0.8-2.9,1.7-4.3,2.5l-2.2,1.3
			c-0.7,0.4-1.4,0.9-2.1,1.3c-5,3-9.8,6-14.3,9c-13.5,7.2-26.2,16.4-31.1,31.6c-9.3,21.7,0,0-9.3,21.7
			c-7.3,18.3-13.9,36.9-20.5,55.5c-47.4-13.6-100.5-10.8-143.7,13.6c-32,20.1-45,59.5-46.8,95.6c-3,68.1,23,135.5,64.6,188.7
			c14.1,16.5,0,0,14.1,16.5c20.6,22.5,44.8,41.8,71.6,56.5c16.6,10,53.9,20.6,101.3,42.2c21.7,11.1,41.7,26,58.4,43.9
			c46.2,49.6,57.4,119.5,65.5,184.3c15.8-16.3,32.2-32,46.5-49.7c43.1-52.2,75.7-111.9,106.8-171.7c15.2-29.9,31.3-59.4,43-90.8
			c12-31.9,19.5-65.4,23.1-99.3c63.9-26,117.9-73.5,156.7-130.1C809.3,270.5,831.1,221.8,822.7,172.9z M806.4,224
			c-7.8,33-24.5,63.3-44.4,90.4c-38.2,51-89.5,93.8-149.8,115.7c-3,33.5-9.4,66.6-20.8,98.3c-12.5,35.9-31.2,69.1-48.4,102.8
			c-35.1,66.9-72.4,134.3-125.5,188.9c-8.6-64-28.4-131.2-78.5-175.3c-39.1-34.9-89-54.4-138.2-70
			c-63.7-30.4-112.6-87.7-137.4-153.3c-4.5-12.1-8.3-24.5-11.2-37.2c-0.2-0.8-0.4-1.7-0.6-2.5c-0.2-0.9-0.4-1.8-0.6-2.7
			c0,0,0,0,0-0.1c-0.5-2.2-0.9-4.4-1.3-6.6c-0.2-1.1-0.4-2.2-0.6-3.4c-0.6-3.8-1.2-7.7-1.6-11.6c-0.2-1.7-0.4-3.4-0.6-5.2
			c0-0.1,0-0.1,0-0.2c-0.1-1.4-0.3-2.9-0.4-4.3c0-0.5-0.1-0.9-0.1-1.4c-1-14.3-0.5-28.6,1.6-42.9c4.2-26.9,16.6-55.3,41.7-68.8
			c43.5-22.3,95.7-21.7,141.1-5.6c12.9-34.3,22.9-70.1,41-102.1c24-18.1,51.3-31,78.6-43.5c1.8-0.8,3.6-1.7,5.5-2.5
			c2.2-1,4.4-2,6.6-3l0,0h0.1l0.1-0.1l0.4-0.2l0,0c0.1,0,0.1,0,0.2-0.1s0.3-0.1,0.4-0.2c36.9-16.6,71.6-26.2,87.3-41.4
			c15.9-15.3,37.6,0.4,49.1,7.6s11.7-4.5,17.3-9.1c5.6-4.6,22.8-40,67.8,51.1c0,0,0,0.1,0.1,0.2c0.2,0.4,0.4,0.8,0.6,1.1
			c18.2,53.2,32.8,108,39.4,163.9c19.7-0.4,38.2-9.1,54-20.4c34.7-23.6,58.9-60.9,97.4-79.1c7.7-3.6,19.7-6,24.3,3.3
			c3.4,6.8,5.7,14,7.1,21.4c0.1,0.5,0.2,1,0.3,1.5c0.2,1.3,0.4,2.6,0.6,3.9C810.9,195.6,809.5,210.2,806.4,224z"/>
		<path class="st3" d="M350.6,83.5c-27.3,12.5-54.8,25.8-78.6,43.8c-18.2,32-28.2,67.7-41,102.1c-45.4-16.2-97.6-16.7-141.1,5.6
			c-25.1,13.4-37.5,41.8-41.7,68.8c-2.1,14.1-2.6,28.4-1.6,42.6c-1-14.3-0.5-28.6,1.6-42.9c4.2-26.9,16.6-55.3,41.7-68.8
			c43.5-22.3,95.7-21.7,141.1-5.6c12.9-34.3,22.9-70.1,41-102.1C295.9,108.9,323.3,96,350.6,83.5z"/>
		<path class="st3" d="M808.3,176.2c-1.4-7.3-3.7-14.4-7.1-21.1c-4.6-9.3-16.6-6.8-24.3-3.3c-38.6,18.2-62.7,55.5-97.4,79.1
			c-15.8,11.3-34.3,20-54,20.4c-6.6-56-21.2-111-39.5-164.3h0.1c18.2,53.2,32.8,108,39.4,163.9c19.7-0.4,38.2-9.1,54-20.4
			c34.7-23.6,58.9-60.9,97.4-79.1c7.7-3.6,19.7-6,24.3,3.3C804.6,161.6,806.9,168.8,808.3,176.2z"/>
		<path class="st3" d="M528,43.7c15.7,18.1,24.9,40.6,32.5,63.1c12.7,38.1,20.1,77.5,26.5,117c5.9,1.8,11.7,3.8,17.3,6.4
			c-8.2-48.5-17.5-97.7-39.3-142.3C556.3,70.6,545.2,53.3,528,43.7z"/>
		<path class="st3" d="M545.6,246.5c-28.4-5-57.1-8.3-85.6-13.3c28-0.3,55.8,0.8,83.8,0.6c-85.3-13.8-172.5,4.8-251.5,37.4
			c19.1,7.8,37.7,16.4,57,23.2c61.8-16.5,126-25.6,190.2-23.8c-25.6-4.5-51.4-7.4-77-12c28.4-0.4,56.7,0.7,85.1,0.6
			c-29.2-4.8-58.5-8.5-87.5-13.4C488.6,245.8,517,246.9,545.6,246.5z"/>
		<path class="st3" d="M491,518c-6.7,48.1-19,95.4-37.2,140.4c44.5-71.8,69.2-155.8,70.7-240.3c-10.4,1-20.7,2.6-31.1,3.8
			C497.5,453.8,495.3,486.1,491,518z"/>
	</g>
	<path class="st3" d="M586.1,87L586.1,87c-0.3-0.4-0.4-0.9-0.6-1.1C585.7,86.3,585.9,86.6,586.1,87z"/>
</g>
</svg>
