<?xml version="1.0" encoding="utf-8"?>
<!-- Generator: Adobe Illustrator 22.0.1, SVG Export Plug-In . SVG Version: 6.00 Build 0)  -->
<svg version="1.1" id="Layer_1" xmlns="http://www.w3.org/2000/svg" xmlns:xlink="http://www.w3.org/1999/xlink" x="0px" y="0px"
	 viewBox="0 0 658.1 658.1" style="enable-background:new 0 0 658.1 658.1;" xml:space="preserve">
<style type="text/css">
	.st0{fill:url(#SVGID_1_);}
	.st1{fill:url(#SVGID_2_);}
	.st2{fill:url(#SVGID_3_);}
	.st3{fill:url(#SVGID_4_);}
	.st4{fill:url(#SVGID_5_);}
	.st5{fill:url(#SVGID_6_);}
	.st6{fill:url(#SVGID_7_);}
	.st7{fill:url(#SVGID_8_);}
	.st8{fill:url(#SVGID_9_);}
	.st9{fill:url(#SVGID_10_);}
	.st10{fill:url(#SVGID_11_);}
	.st11{fill:url(#SVGID_12_);}
	.st12{fill:url(#SVGID_13_);}
	.st13{fill:url(#SVGID_14_);}
	.st14{fill:url(#SVGID_15_);}
	.st15{fill:url(#SVGID_16_);}
	.st16{fill:url(#SVGID_17_);}
	.st17{fill:url(#SVGID_18_);}
	.st18{fill:url(#SVGID_19_);}
	.st19{fill:url(#SVGID_20_);}
	.st20{fill:url(#SVGID_21_);}
	.st21{fill:url(#SVGID_22_);}
	.st22{fill:url(#SVGID_23_);}
	.st23{fill:url(#SVGID_24_);}
	.st24{fill:url(#SVGID_25_);}
	.st25{fill:url(#SVGID_26_);}
	.st26{fill:url(#SVGID_27_);}
</style>
<g id="Layer_7">
	<g>
		
			<linearGradient id="SVGID_1_" gradientUnits="userSpaceOnUse" x1="329.0673" y1="4.8749" x2="329.0673" y2="-652.0251" gradientTransform="matrix(1 0 0 -1 0 5.1499)">
			<stop  offset="0" style="stop-color:#2B2C2C"/>
			<stop  offset="1" style="stop-color:#161617"/>
		</linearGradient>
		<path class="st0" d="M547.8,202.9c-15.2,13.8-29.3,22.9-29.3,22.9s7.5,39.3,14.4,51.1c9.6,16.6,21.2,34.3,37.3,47.3
			c13.5,10.9,42.7,32,42.7,32s-29.4,49.3-44.8,70.8c-11.2,15.6-53.2,68-74.7,90.9c-21.5,22.9-60.2,57.6-81.1,75.9
			c-20.3,17.7-79.3,60.6-83.1,63.3l-0.1,0.1c0,0,0.1,0,0,0s0,0,0,0l-0.1-0.1c-3.8-2.8-62.8-45.7-83.1-63.3
			c-21-18.2-59.6-53-81.1-75.9s-63.5-75.3-74.7-90.9c-15.4-21.5-44.8-70.8-44.8-70.8s29.2-21.1,42.7-32c16.1-13,27.6-30.8,37.3-47.3
			c6.9-11.8,14.4-51.1,14.4-51.1s-14.1-9.1-29.3-22.9c-13.4-12.2-28.2-33.7-28.2-33.7s34.7-4.3,59.8-8.1
			c29.1-4.5,47.7-16.5,47.7-16.5s-3.3-10.9-2.7-25.4c0.6-14.6,0.4-23.1,8.2-47.3c7.8-24.3,23.7-45.4,37.5-56.9
			c13.8-11.4,26.4-14.7,26.4-14.7s8.3,18.2,14.6,29.4c5.6,9.8,13.6,21.6,25.7,30.6c12.3,9.2,28.5,12.8,29.9,13.1
			c1.3-0.3,17.5-3.9,29.9-13.1c12-9,20.1-20.8,25.7-30.6c6.3-11.1,14.6-29.4,14.6-29.4s12.6,3.3,26.4,14.7s29.7,32.6,37.5,56.9
			c7.8,24.3,7.6,32.8,8.1,47.3c0.6,14.6-2.7,25.4-2.7,25.4s18.7,12,47.7,16.5c25,3.9,59.8,8.1,59.8,8.1S561.2,190.7,547.8,202.9z"/>
		<g>
			<g>
				
					<linearGradient id="SVGID_2_" gradientUnits="userSpaceOnUse" x1="329.0672" y1="-215.125" x2="329.0672" y2="-609.3252" gradientTransform="matrix(1 0 0 -1 0 5.1499)">
					<stop  offset="0" style="stop-color:#7C7C7D"/>
					<stop  offset="0.6415" style="stop-color:#5E5E5D"/>
					<stop  offset="1" style="stop-color:#50504F"/>
				</linearGradient>
				<path class="st1" d="M540.3,423.2c-16.3,21.7-30.8,39.7-46,56.7c-14.7,16.5-34.9,36.9-34.9,36.9s-9.5-14.1-15.6-22.3
					s-19.7-23.3-19.7-23.3s2.7,7,5.2,15.8s5,17.9,5,17.9s-23.1,22.6-35.1,33.2c-12,10.7-28.9,25.4-28.9,25.4s4.5,3.5,11.4,8.5
					c7,5,10.3,7.4,10.3,7.4s-9.9,8.9-18,15.5c-8.2,6.6-27.4,19.6-27.4,19.6l-17.4-11.8l-17.5,11.8c0,0-19.2-13-27.4-19.6
					c-8.1-6.6-18-15.5-18-15.5s3.3-2.3,10.3-7.4c7-5,11.4-8.5,11.4-8.5s-16.9-14.7-28.9-25.4S224,504.9,224,504.9s2.6-9.1,5-17.9
					c2.5-8.8,5.2-15.8,5.2-15.8s-13.6,15.1-19.7,23.3c-6.1,8.1-15.6,22.3-15.6,22.3s-20.2-20.4-34.9-36.9
					c-15.2-17-29.7-34.9-46-56.7C101.7,401.5,77.6,365,77.6,365s34.5-24.1,49.3-41.5c14.7-17.5,21.3-31.8,29.1-55.5
					c7.8-23.7,7.6-47.7,7.6-47.7s6.9,2.3,15,5.2c8.2,2.8,12.3,4.5,12.3,4.5s-0.8,15.1-0.2,33s1,52.4,3.7,78s8.1,40.9,17.1,61.3
					c8.9,20.4,32.2,58,62.1,87.9c29.9,29.9,55.3,40.1,55.3,40.1s25.9-10.3,55.7-40.1c29.9-29.9,53.2-67.5,62.1-87.9
					s14.4-35.7,17.1-61.3c2.7-25.6,3.1-60.2,3.7-78c0.6-17.9-0.2-33-0.2-33s4.1-1.7,12.3-4.5s15-5.2,15-5.2s-0.1,24.1,7.6,47.7
					c7.8,23.7,14.4,38,29.1,55.5C546,341,580.6,365,580.6,365S556.6,401.5,540.3,423.2z"/>
			</g>
		</g>
		<g>
			<g>
				
					<linearGradient id="SVGID_3_" gradientUnits="userSpaceOnUse" x1="329.2673" y1="-35.725" x2="329.2673" y2="-299.4251" gradientTransform="matrix(1 0 0 -1 0 5.1499)">
					<stop  offset="0" style="stop-color:#9D9D9C"/>
					<stop  offset="1" style="stop-color:#7A7B7B"/>
				</linearGradient>
				<path class="st2" d="M504.8,200.7c-14.4,7.4-54.5,22.3-73,29.7c-18.4,7.4-30.1,13.8-45.2,23.1c-15.1,9.3-31.2,22.3-39.4,29.9
					s-18,21.2-18,21.2s-9.9-13.6-18-21.2s-24.3-20.6-39.4-29.9c-15.1-9.3-26.8-15.7-45.2-23.1c-18.4-7.4-58.6-22.3-73-29.7
					s-25.4-16.5-25.4-16.5s32.8-2.5,51-7.8c18.2-5.2,33-15.1,33-15.1s15.8,24.7,32.6,41.3c15.5,15.3,33.4,26.4,33.4,26.4
					s-28.9-32.6-37.1-45.4c-8.5-13.4-12.8-22.7-17.3-34s-7.6-23.5-8.3-32.2c-0.8-8.7-0.4-17.5,1.9-28.5c2.3-11.1,7-23.7,13.8-34.2
					s13-13.8,13-13.8s5.2,9.5,11.1,16.5c7.2,8.7,16.5,16.5,16.5,16.5s-7.2,9.1-9.7,15.7s-5.4,17.1-3.9,29.5
					c1.6,12.4,5.4,22.9,5.4,22.9s9.7-3.5,17.7-8.7s10.9-6.8,23.7-17.1c12.8-10.3,24.3-20.4,24.3-20.4s11.4,10.1,24.3,20.4
					s15.7,11.8,23.7,17.1c8,5.2,17.7,8.7,17.7,8.7s3.9-10.5,5.4-22.9c1.6-12.4-1.4-22.9-3.9-29.5s-9.7-15.7-9.7-15.7
					s9.3-7.8,16.5-16.5c5.8-7,11.1-16.5,11.1-16.5s6.2,3.3,13,13.8s11.4,23.1,13.8,34.2c2.3,11.1,2.7,19.8,1.9,28.5
					c-0.8,8.7-3.9,21-8.3,32.2c-4.5,11.3-8.8,20.6-17.3,34c-8.1,12.8-37.1,45.4-37.1,45.4s17.9-11.1,33.4-26.4
					c16.8-16.6,32.6-41.3,32.6-41.3s14.7,9.9,33,15.1c18.2,5.2,51,7.8,51,7.8S519.2,193.3,504.8,200.7z"/>
			</g>
		</g>
		<g>
			
				<linearGradient id="SVGID_4_" gradientUnits="userSpaceOnUse" x1="395.5993" y1="-227.9251" x2="395.5993" y2="-510.5251" gradientTransform="matrix(1 0 0 -1 0 5.1499)">
				<stop  offset="0" style="stop-color:#DADADA"/>
				<stop  offset="1" style="stop-color:#B4B5B5"/>
			</linearGradient>
			<path class="st3" d="M333.1,315.2c0,0,9.8-11.7,19.2-20c9.4-8.3,18.8-17.1,33.2-26.8c14.4-9.7,19.8-13,33-19s39.6-16.3,39.6-16.3
				s0.4,24.8-0.8,51.6c-1.2,26.8-2.7,45.8-5.8,62.5c-3.1,16.7-6.2,27.2-6.2,27.2s-14.6,5.8-28.1,10.1c-15.8,5-47,10.5-47,10.5
				l-1.2,44.5c0,0,10.1-10.8,14.6-16.8c4.4-5.8,12-20.2,12-20.2s13.4-3.8,22.3-6.1c9.6-2.5,21.5-8,21.5-8s-13.4,32.8-30.3,56.3
				s-25.8,32.6-39.2,44.8c-13.3,12.1-36.8,26.2-36.8,26.2V355.5c0,0,7.8-0.2,20.4-2.1s26-5.4,26-5.4s-5.2,12.4-8.3,20
				c-3.1,7.6-8.2,19.4-8.2,19.4s7.8-9.9,11.6-15.7c3.9-5.8,15.9-27.7,15.9-27.7s9.1-4.3,13.6-7.4s8.3-6.8,10.3-9.3
				c1.9-2.5,5.8-10.1,8-17.3c2.1-7.2,2.1-17.9,2.1-17.9s-4.5,2.1-8,3.9c-3.5,1.7-7.2,4.1-7.2,4.1s3.5-9.3,5.2-15.5
				s7.6-23.8,7.6-23.8s-7.2,15-9.9,20.1c-2.7,5-9.5,17.3-10.9,19.4s-6.2,8.5-6.2,8.5s-7.6,5.2-12,8.5c-4.5,3.3-10.3,7.6-10.3,7.6
				v12.2c0,0-11.1,4.3-19,5.6c-10,1.7-20.6,2.7-20.6,2.7L333.1,315.2z"/>
		</g>
		<g>
			
				<linearGradient id="SVGID_5_" gradientUnits="userSpaceOnUse" x1="264.2123" y1="-228.9251" x2="264.2123" y2="-510.2251" gradientTransform="matrix(1 0 0 -1 0 5.1499)">
				<stop  offset="0" style="stop-color:#DADADA"/>
				<stop  offset="1" style="stop-color:#B4B5B5"/>
			</linearGradient>
			<path class="st4" d="M324.9,315.3c0,0-7.6-12.4-26-27.6c-18.4-15.1-31.8-24.6-54.5-35.7c-22.7-11.1-41.7-17.9-41.7-17.9
				s-0.2,30.7,1.2,60s1.7,45.2,5.2,62.1c3.5,16.9,10.3,39.8,27.6,67.9s32.6,45.2,47,59.4c14.4,14.2,41.3,31.9,41.3,31.9
				s0.2-60.3,0.2-84.3c0-24.1,0-75.7,0-75.7s-11.1-1.2-30.7-5.6c-19.6-4.5-44.2-17.1-44.2-17.1s2.1,14.3,4.1,24.6
				c2.7,14,8.3,27.2,8.3,27.2s5.6,2.7,14.4,5.6c5.8,1.9,11.1,4.1,11.1,4.1l1,44.8c0,0-6.4-7.4-17.9-24.1
				c-11.4-16.7-15.9-28.9-20.6-43.1s-7.4-38.4-8.5-53.4c-1.2-14.9-2.3-29.1-2.3-29.1s12,7.2,23.3,15.5s22.9,19.2,22.9,19.2l1.2,12.6
				c0,0,9.1,3.7,17.9,5.6c8.7,1.9,20.6,2.9,20.6,2.9L324.9,315.3z"/>
		</g>
		
			<linearGradient id="SVGID_6_" gradientUnits="userSpaceOnUse" x1="138.2673" y1="-214.825" x2="138.2673" y2="-511.5251" gradientTransform="matrix(1 0 0 -1 0 5.1499)">
			<stop  offset="0" style="stop-color:#8A8A8A"/>
			<stop  offset="0.381" style="stop-color:#868686;stop-opacity:0.619"/>
			<stop  offset="0.8551" style="stop-color:#767676;stop-opacity:0.1449"/>
			<stop  offset="1" style="stop-color:#717172;stop-opacity:0"/>
		</linearGradient>
		<path class="st5" d="M179.8,250.3c0,0-3.3,13.4-6.1,24s-8.1,25.6-16.4,40.4c-8.2,14.7-28.8,34.3-36.3,40.7
			c-7.5,6.4-17.1,14.1-17.1,14.1s17.9,26.2,28.2,40.6c10.4,14.4,15.3,19.9,30.4,38.8c15,18.9,35.9,40.8,35.9,40.8l0.6,27
			c0,0-22.3-22.5-37.5-39.8s-33.6-40.3-43-53.1c-9.4-12.8-17.1-23.7-25.9-36.7c-8.8-12.9-15-22.3-15-22.3s8.6-5.8,18.3-13.7
			c9.7-7.9,18-14.5,23.8-20.2c5.7-5.7,15.8-17.9,19.8-24.6s8-14.5,10.9-22.4c2.9-8,7.6-19.1,9.6-30.6c2-11.4,2.9-18.5,3.4-24.5
			s0.3-8.8,0.3-8.8l15.7,5.5L179.8,250.3z"/>
		
			<linearGradient id="SVGID_7_" gradientUnits="userSpaceOnUse" x1="520.0672" y1="-214.925" x2="520.0672" y2="-511.7251" gradientTransform="matrix(1 0 0 -1 0 5.1499)">
			<stop  offset="0" style="stop-color:#8A8A8A"/>
			<stop  offset="3.437465e-02" style="stop-color:#898888;stop-opacity:0.9656"/>
			<stop  offset="0.6019" style="stop-color:#777778;stop-opacity:0.3981"/>
			<stop  offset="1" style="stop-color:#717172;stop-opacity:0"/>
		</linearGradient>
		<path class="st6" d="M478.1,249.8c0,0,3.8,13.9,6.6,24.5s8.1,25.6,16.4,40.4c8.2,14.7,28.8,34.3,36.3,40.7
			c7.5,6.4,17.1,14.1,17.1,14.1s-17.9,26.2-28.2,40.6c-10.4,14.4-15.3,19.9-30.4,38.8c-15,18.9-35.9,40.8-35.9,40.8l-0.6,27.2
			c0,0,22.3-22.6,37.5-39.9s33.6-40.3,43-53.1c9.4-12.8,17.1-23.7,25.9-36.7c8.8-12.9,15-22.3,15-22.3s-8.6-5.8-18.3-13.7
			c-9.7-7.9-18-14.5-23.8-20.2c-5.7-5.7-15.8-17.9-19.8-24.6s-8-14.5-10.9-22.4c-2.9-8-7.6-19.1-9.6-30.6c-2-11.4-2.9-18.5-3.4-24.5
			s-0.3-8.8-0.3-8.8l-16.4,5.7L478.1,249.8z"/>
		
			<linearGradient id="SVGID_8_" gradientUnits="userSpaceOnUse" x1="328.8762" y1="-496.7084" x2="328.8762" y2="-609.3085" gradientTransform="matrix(1 0 0 -1 0 5.1499)">
			<stop  offset="0" style="stop-color:#6F6F6E;stop-opacity:6.000000e-02"/>
			<stop  offset="0.1073" style="stop-color:#646464;stop-opacity:0.1609"/>
			<stop  offset="0.279" style="stop-color:#575757;stop-opacity:0.3223"/>
			<stop  offset="0.4682" style="stop-color:#4E4D4D;stop-opacity:0.5001"/>
			<stop  offset="0.6864" style="stop-color:#494949;stop-opacity:0.7052"/>
			<stop  offset="1" style="stop-color:#484748"/>
		</linearGradient>
		<path class="st7" d="M410.4,527.8c-13.8,13.1-39.8,35.6-39.8,35.6s4.9,3.9,11.1,8.4s10.3,7.4,10.3,7.4s-10.6,10-22.3,19
			c-8.8,6.9-23.2,16.4-23.2,16.4l-17.3-11.9l-17.5,11.9c0,0-14.3-9.6-23.2-16.4c-11.6-9.1-22.3-19-22.3-19s4.1-2.8,10.3-7.4
			c6.2-4.5,11.1-8.4,11.1-8.4s-26-22.5-39.8-35.6s-23.9-22.9-23.9-22.9l11.5-2.9c0,0,29,28.5,42.9,40.5c14,12,26.1,21.3,26.1,21.3
			l-22,16.2c0,0,10,8.5,15.5,12.7c5.6,4.1,14.2,9.3,14.2,9.3s4.1-3,8.3-6c4.1-3,8.5-6.2,8.5-6.2s4.4,3.2,8.5,6.2s8.3,6,8.3,6
			s8.7-5.2,14.2-9.3c5.6-4.1,15.5-12.7,15.5-12.7l-22-16.2c0,0,12.2-9.3,26.1-21.3c14-12,42.9-40.5,42.9-40.5l11.5,3
			C434.4,504.9,424.3,514.7,410.4,527.8z"/>
		
			<linearGradient id="SVGID_9_" gradientUnits="userSpaceOnUse" x1="328.8172" y1="-220.525" x2="328.8172" y2="-539.525" gradientTransform="matrix(1 0 0 -1 0 5.1499)">
			<stop  offset="0" style="stop-color:#8A8A8A;stop-opacity:0.77"/>
			<stop  offset="0.3967" style="stop-color:#5D5D5D;stop-opacity:0.7475"/>
			<stop  offset="0.5394" style="stop-color:#4D4D4E;stop-opacity:0.7394"/>
			<stop  offset="1" style="stop-color:#686868;stop-opacity:0"/>
		</linearGradient>
		<path class="st8" d="M478.4,225.8c0,0-0.2,18.9-0.4,32.8c-0.2,13.9-1.3,42.9-1.9,56.4c-0.6,13.4-3.5,35.2-5.7,47
			s-8.7,29.3-13,39.7c-4.3,10.4-13.4,27.2-22.4,42s-22.7,32.1-29.7,41.1c-7.1,8.9-14.1,17.4-25.6,27.2c-12.3,10.4-34.6,23.3-40,26.6
			c-4.8,3-9.8,5.5-10.7,6v0.1c0,0,0,0-0.1,0s-0.1,0-0.1,0v-0.1c-0.9-0.5-5.9-3-10.7-6c-5.4-3.3-27.7-16.2-40-26.6
			c-11.5-9.8-18.6-18.2-25.6-27.2c-7.1-8.9-20.7-26.2-29.7-41.1c-9-14.8-18.2-31.6-22.4-42c-4.3-10.4-10.8-27.9-13-39.7
			c-2.2-11.8-5-33.6-5.7-47c-0.6-13.4-1.7-42.5-1.9-56.4c-0.2-13.9-0.5-32.9-0.5-32.9L191,230c0,0-0.6,19.8-0.3,30.8
			c0.3,11,0.8,38.7,1.5,53s3.4,37.9,4.9,46.3c1.6,8.4,3.3,14.1,6.6,23.4c4.3,12,11.4,26.8,17.2,37.3c5.7,10.5,17.3,27.2,24.1,36.5
			c6.8,9.3,18.3,22.6,28.4,32.8c10.1,10.2,22,19.7,32,26.8c9.6,6.8,22.5,13.1,23.5,13.6c1.1-0.5,13.9-6.9,23.5-13.6
			c10-7.1,21.9-16.6,32-26.8c10.1-10.2,21.7-23.4,28.4-32.8c6.8-9.3,18.3-26,24.1-36.5c5.7-10.5,12.9-25.3,17.2-37.3
			c3.3-9.2,5-15,6.6-23.4s4.2-32,4.9-46.3c0.7-14.3,1.2-41.9,1.5-53c0.3-11,0.3-30.8,0.3-30.8L478.4,225.8z"/>
		
			<linearGradient id="SVGID_10_" gradientUnits="userSpaceOnUse" x1="430.0172" y1="-178.6251" x2="430.0172" y2="-299.3889" gradientTransform="matrix(1 0 0 -1 0 5.1499)">
			<stop  offset="0" style="stop-color:#BABABA;stop-opacity:0"/>
			<stop  offset="8.466142e-02" style="stop-color:#999898;stop-opacity:6.095623e-02"/>
			<stop  offset="0.1897" style="stop-color:#7F7E7F;stop-opacity:0.1366"/>
			<stop  offset="0.3091" style="stop-color:#6F6D6D;stop-opacity:0.2226"/>
			<stop  offset="0.4496" style="stop-color:#626261;stop-opacity:0.3237"/>
			<stop  offset="0.6311" style="stop-color:#5B5B5B;stop-opacity:0.4544"/>
			<stop  offset="1" style="stop-color:#5A5959;stop-opacity:0.72"/>
		</linearGradient>
		<path class="st9" d="M329.2,304.7v-15.4c0,0,8-10.8,14.6-17.9s15.4-13.8,23.1-19.5c7.7-5.7,28.8-20,42-26.4s38.8-16.6,50.2-21.1
			c11.4-4.5,35.5-13.7,35.5-13.7l36.3-6.9c0,0-3.7,3.7-16.7,11.7c-12.9,7.9-32,15.2-44.1,20c-12.1,4.9-28,10.8-37.5,14.6
			s-22.5,9.8-32.7,15.5c-8.5,4.8-30.2,19.1-41,27.8c-10.4,8.4-14.8,13.2-19.7,18.7C334.1,297.9,329.2,304.7,329.2,304.7z"/>
		
			<linearGradient id="SVGID_11_" gradientUnits="userSpaceOnUse" x1="228.4173" y1="-178.6251" x2="228.4173" y2="-299.3777" gradientTransform="matrix(1 0 0 -1 0 5.1499)">
			<stop  offset="0" style="stop-color:#BABABA;stop-opacity:0"/>
			<stop  offset="7.938188e-02" style="stop-color:#A7A5A6;stop-opacity:7.938188e-02"/>
			<stop  offset="0.1835" style="stop-color:#989898;stop-opacity:0.1835"/>
			<stop  offset="0.3131" style="stop-color:#8E8D8E;stop-opacity:0.3131"/>
			<stop  offset="0.495" style="stop-color:#878889;stop-opacity:0.495"/>
			<stop  offset="1" style="stop-color:#878787"/>
		</linearGradient>
		<path class="st10" d="M329.2,304.7v-15.4c0,0-7.8-10.8-14.4-17.9s-15.4-13.8-23.1-19.5c-7.7-5.7-28.8-20-42-26.4
			s-38.8-16.6-50.2-21.1c-11.4-4.5-35.5-13.7-35.5-13.7l-36.3-6.9c0,0,3.7,3.7,16.7,11.7c12.9,7.9,32,15.2,44.1,20
			c12.1,4.9,28,10.8,37.5,14.6s22.5,9.8,32.7,15.5c8.5,4.8,30.2,19.1,41,27.8c10.4,8.4,14.8,13.2,19.7,18.7
			C324.4,297.9,329.2,304.7,329.2,304.7z"/>
		
			<linearGradient id="SVGID_12_" gradientUnits="userSpaceOnUse" x1="329.9673" y1="-326.559" x2="329.9673" y2="-340.2424" gradientTransform="matrix(1 0 0 -1 0 5.1499)">
			<stop  offset="0" style="stop-color:#B3B1B2"/>
			<stop  offset="1" style="stop-color:#B3B1B2"/>
		</linearGradient>
		<path class="st11" d="M363.7,340.3c-5.7,1.7-7.4,2-11.9,2.8c-4.6,0.8-18.5,2.3-18.5,2.3l11.7-9.1l21.1-4.6l6.9,5.3
			C372.8,337.1,369.4,338.5,363.7,340.3z M295.7,340c-5.7-1.7-8.7-3.1-8.7-3.1l6.5-5.2l20.5,5.4l11.4,8.3c0,0-11.2-1.1-16.7-2.2
			C304.2,342.4,301.4,341.7,295.7,340z"/>
		
			<linearGradient id="SVGID_13_" gradientUnits="userSpaceOnUse" x1="386.2673" y1="-383.1251" x2="386.2673" y2="-510.6251" gradientTransform="matrix(1 0 0 -1 0 5.1499)">
			<stop  offset="0" style="stop-color:#9C9B9B"/>
			<stop  offset="0.3729" style="stop-color:#919191"/>
			<stop  offset="1" style="stop-color:#868686"/>
		</linearGradient>
		<path class="st12" d="M333.1,515.8l11.4-21c0,0,20.4-14,30.2-24.3c9.8-10.3,22.1-25.3,27.7-33.7c5.6-8.3,10.9-17.3,13.7-22.7
			c2.8-5.4,5.7-11.8,5.7-11.8l17.7-14c0,0-3.6,9.2-8.5,19s-8.6,17.1-13.5,25.1c-4.9,8.1-10.5,15.8-17.6,25s-18.6,22.2-24.7,27.7
			s-16.2,13.7-23.9,19.1C343.7,509.9,333.1,515.8,333.1,515.8z"/>
		
			<linearGradient id="SVGID_14_" gradientUnits="userSpaceOnUse" x1="263.8297" y1="-229.2251" x2="263.8297" y2="-510.5251" gradientTransform="matrix(1 0 0 -1 0 5.1499)">
			<stop  offset="0" style="stop-color:#A6A6A6;stop-opacity:0.21"/>
			<stop  offset="0.5532" style="stop-color:#909090;stop-opacity:0.647"/>
			<stop  offset="1" style="stop-color:#868686"/>
		</linearGradient>
		<path class="st13" d="M202.7,234.4l12.5,25c0,0,0.3,13.2,0.7,32.6c0.4,19.4,1.7,42.7,2.9,53.8c1.2,11.1,3.9,22.3,7.2,33.2
			c3.3,10.9,14,31.8,21.2,43.1c7.2,11.3,19.8,29.1,29.9,40.2s13.8,14,20.8,19.6s16.8,13.3,16.8,13.3l10.4,20.5
			c0,0-13.6-8.8-20.4-14.1c-6.8-5.2-12.5-9.8-17.3-14.1c-4.8-4.3-14.1-13.5-19.2-19.5s-11.4-13.8-17.4-21.9
			c-5.9-8.1-12.9-18.6-18.4-28.6s-8.3-15.5-12.2-24.7c-3.9-9.2-5.7-14.7-8-22.9c-2.2-8.2-3-11.3-4.5-20.2
			c-1.5-8.9-1.6-11.7-2.4-22.1c-0.8-10.4-1.8-44.7-2.3-58C202.4,256.2,202.7,234.4,202.7,234.4z"/>
		
			<linearGradient id="SVGID_15_" gradientUnits="userSpaceOnUse" x1="272.2173" y1="-327.6251" x2="272.2173" y2="-389.3251" gradientTransform="matrix(1 0 0 -1 0 5.1499)">
			<stop  offset="0" style="stop-color:#A6A6A6;stop-opacity:0.48"/>
			<stop  offset="1" style="stop-color:#C5C4C3"/>
		</linearGradient>
		<path class="st14" d="M250.2,332.8l9.8,11.5c0,0,1.6,8.9,3.2,15.9s6.2,21.5,6.2,21.5s9.3,4.5,13.8,6c4.5,1.6,11.1,4.1,11.1,4.1
			l-6.4,2.7c0,0-7.4-2.3-14.2-4.9c-6.8-2.5-11.4-4.9-11.4-4.9s-3.9-8.6-6-17.7c-2.3-9.7-3.3-15.5-4.3-21.5
			C251,339.6,250.2,332.8,250.2,332.8z"/>
		
			<linearGradient id="SVGID_16_" gradientUnits="userSpaceOnUse" x1="412.1895" y1="-227.8251" x2="412.1895" y2="-389.7251" gradientTransform="matrix(1 0 0 -1 0 5.1499)">
			<stop  offset="0" style="stop-color:#A6A6A6"/>
			<stop  offset="1" style="stop-color:#C5C4C3"/>
		</linearGradient>
		<path class="st15" d="M370.1,394.9l-3.7-2.9c0,0,14-2.5,21.6-4.1c7.6-1.7,23.9-6.2,30.5-8.2c6.6-1.9,15.7-5.4,15.7-5.4
			s4.3-14.6,6.2-28.5c1.9-13.8,3.5-31.3,4.3-45.1c0.8-13.8,1.1-42.9,1.1-42.9L458,233c0,0,0.1,6,0,21.4c-0.1,18.7-1.7,48.9-2.6,61.3
			s-3.4,27.4-5.3,37.8c-1.9,10.3-4.9,20.9-4.9,20.9s-15.8,6.1-23.3,8.7s-14.9,4.4-23.2,6.3C390.5,391.4,370.1,394.9,370.1,394.9z"/>
		
			<linearGradient id="SVGID_17_" gradientUnits="userSpaceOnUse" x1="264.0172" y1="-228.9251" x2="264.0172" y2="-340.2251" gradientTransform="matrix(1 0 0 -1 0 5.1499)">
			<stop  offset="0" style="stop-color:#E1E1E1"/>
			<stop  offset="1" style="stop-color:#DADADA"/>
		</linearGradient>
		<path class="st16" d="M202.7,234.1l12.4,25.2c0,0,10.3,2.5,27.9,11s25.2,11.5,38.8,21.1c13.6,9.6,32.2,26.9,32.2,26.9v18.8
			l11.4,8.3l-0.4-30c0,0-6-9.1-13.5-16.3c-7.5-7.1-14.5-13.7-25.6-22s-25-16.8-35.8-22.8C239.3,248.5,202.7,234.1,202.7,234.1z"/>
		
			<linearGradient id="SVGID_18_" gradientUnits="userSpaceOnUse" x1="395.6173" y1="-227.8844" x2="395.6173" y2="-340.2341" gradientTransform="matrix(1 0 0 -1 0 5.1499)">
			<stop  offset="0" style="stop-color:#E1E1E1"/>
			<stop  offset="1" style="stop-color:#DADADA"/>
		</linearGradient>
		<path class="st17" d="M333.3,345.4l11.6-9.1v-17.9c0,0,16.4-15.5,27.7-23.6c11.3-8.1,25.1-16.4,32.1-20s13.8-6.4,13.8-6.4l3.1-6.3
			l-1.8,6c0,0,4.8-2.1,12.2-5.1c7.5-3,13.9-5.1,13.9-5.1l12.2-24.7c0,0-18.5,7.1-30.7,12.3c-12.2,5.2-24.7,11.5-32.7,16.7
			c-8,5.1-27.3,18.9-37.8,28.5c-10.6,9.6-23.7,24.6-23.7,24.6L333.3,345.4z"/>
		
			<linearGradient id="SVGID_19_" gradientUnits="userSpaceOnUse" x1="260.1172" y1="-279.7251" x2="260.1172" y2="-445.5251" gradientTransform="matrix(1 0 0 -1 0 5.1499)">
			<stop  offset="0" style="stop-color:#E1E1E1"/>
			<stop  offset="1" style="stop-color:#DADADA"/>
		</linearGradient>
		<path class="st18" d="M239.7,289.5l-8.7-4.6c0,0,0.6,20.2,1.7,33.9c1.2,13.7,4.2,33.1,7.2,45s8.7,27,14.4,38
			c5.6,11.1,22.7,34.5,27.3,40.1c4.6,5.5,7.7,8.8,7.7,8.8l-0.2-12.1c0,0-6.4-7.3-12.2-15.4c-5.8-8.2-12-17.5-15.8-25.1
			s-6.9-15-9.6-23.4c-2.6-8-4.2-15.1-6.1-27.2c-1.8-11.6-2.6-19.3-3.6-33.1C240.7,300.6,239.7,289.5,239.7,289.5z"/>
		
			<linearGradient id="SVGID_20_" gradientUnits="userSpaceOnUse" x1="404.0672" y1="-383.2016" x2="404.0672" y2="-443.667" gradientTransform="matrix(1 0 0 -1 0 5.1499)">
			<stop  offset="0" style="stop-color:#E1E1E1"/>
			<stop  offset="1" style="stop-color:#DADADA"/>
		</linearGradient>
		<path class="st19" d="M368.9,439.1v9.8c0,0,12.7-10.6,17.4-16.4c4.7-5.7,8.5-10.6,10.8-14.8c2.3-4.2,4.4-8.6,4.4-8.6
			s5-1.2,9.4-2.6c4.3-1.4,10.9-4,10.9-4l17.5-14c0,0-5.7,2.3-11.7,4.6c-6,2.3-8.8,2.8-15.2,4.6c-6.4,1.8-16.9,4.6-16.9,4.6
			s-5,9.4-7.8,13.8s-5.8,8.5-9.1,12.3C375.4,432.1,368.9,439.1,368.9,439.1z"/>
		
			<linearGradient id="SVGID_21_" gradientUnits="userSpaceOnUse" x1="398.6172" y1="-282.8251" x2="398.6172" y2="-381.7251" gradientTransform="matrix(1 0 0 -1 0 5.1499)">
			<stop  offset="0" style="stop-color:#E1E1E1"/>
			<stop  offset="1" style="stop-color:#DADADA"/>
		</linearGradient>
		<path class="st20" d="M363.1,386.9c0,0,12.8-16.9,18-26.3s9.3-16.8,9.3-16.8s8.4-4.1,12.2-6.6c3.8-2.5,5.9-4.1,8.3-6.6
			s4.9-5.3,7.3-10.6c2.4-5.2,3.6-7.7,4.7-13.1s1.6-14.9,1.6-14.9l9.7-4c0,0-0.3,8.1-1.2,14.7c-0.9,6.6-2.2,10.8-2.2,10.8
			s-4.3,9.1-6.5,12.8c-2.2,3.7-6,8.4-6,8.4l-4.9,4.4c0,0-3.8,2.3-6.5,3.9s-10.4,4.3-10.4,4.3L363.1,386.9z"/>
		
			<linearGradient id="SVGID_22_" gradientUnits="userSpaceOnUse" x1="356.2672" y1="-342.5034" x2="356.2672" y2="-355.3857" gradientTransform="matrix(1 0 0 -1 0 5.1499)">
			<stop  offset="0" style="stop-color:#E1E1E1"/>
			<stop  offset="1" style="stop-color:#DCDBDB"/>
		</linearGradient>
		<path class="st21" d="M333.1,355.5l11.6,5c0,0,7.1-1.1,15.9-2.9s16.3-3.8,16.3-3.8l2.6-6.2c0,0-12,3.2-19.3,4.4
			c-7.2,1.2-12,2.2-17.3,2.6S333.1,355.5,333.1,355.5z"/>
		
			<linearGradient id="SVGID_23_" gradientUnits="userSpaceOnUse" x1="287.6672" y1="-327.6251" x2="287.6672" y2="-355.153" gradientTransform="matrix(1 0 0 -1 0 5.1499)">
			<stop  offset="0" style="stop-color:#E1E1E1"/>
			<stop  offset="1" style="stop-color:#DCDBDB"/>
		</linearGradient>
		<path class="st22" d="M314.4,360.4l10.8-4.9c0,0-17.8-2.6-28.3-5.1s-16.9-4.7-25.4-8c-8.4-3.4-21.3-9.6-21.3-9.6l9.8,11.5
			c0,0,11.1,4.5,20.1,7.6c9.1,3.1,16.3,4.5,22,5.8C307.9,359.1,314.4,360.4,314.4,360.4z"/>
		
			<linearGradient id="SVGID_24_" gradientUnits="userSpaceOnUse" x1="319.7672" y1="-350.4251" x2="319.7672" y2="-510.5251" gradientTransform="matrix(1 0 0 -1 0 5.1499)">
			<stop  offset="0" style="stop-color:#E7E6E6"/>
			<stop  offset="0.1075" style="stop-color:#E1E1E0"/>
			<stop  offset="1" style="stop-color:#B9B9B9"/>
		</linearGradient>
		<path class="st23" d="M314.4,360.4l10.8-4.8L325,515.7l-10.4-20.5L314.4,360.4z"/>
		
			<linearGradient id="SVGID_25_" gradientUnits="userSpaceOnUse" x1="338.8672" y1="-350.3251" x2="338.8672" y2="-510.4251" gradientTransform="matrix(1 0 0 -1 0 5.1499)">
			<stop  offset="0" style="stop-color:#E7E6E6"/>
			<stop  offset="0.1075" style="stop-color:#E1E1E0"/>
			<stop  offset="1" style="stop-color:#B9B9B9"/>
		</linearGradient>
		<path class="st24" d="M333.1,355.5l11.6,5l-0.3,134.2l-11.3,20.9V355.5z"/>
		
			<linearGradient id="SVGID_26_" gradientUnits="userSpaceOnUse" x1="330.0243" y1="-90.74" x2="328.997" y2="-149.5956" gradientTransform="matrix(1 0 0 -1 0 5.1499)">
			<stop  offset="0" style="stop-color:#D2D2D2;stop-opacity:0.18"/>
			<stop  offset="0.2533" style="stop-color:#CFCECE;stop-opacity:0.1344"/>
			<stop  offset="0.5274" style="stop-color:#C4C3C3;stop-opacity:8.506390e-02"/>
			<stop  offset="0.8103" style="stop-color:#B0B0B0;stop-opacity:3.414173e-02"/>
			<stop  offset="1" style="stop-color:#A2A0A0;stop-opacity:0"/>
		</linearGradient>
		<path class="st25" d="M390.7,153.6c0,0-13.2-6.1-19.7-9.6c-6.8-3.7-19.3-12.8-24-16.5c-7.1-5.5-17.1-14.3-17.8-14.8
			c-0.6,0.5-10.7,9.3-17.8,14.8c-4.7,3.7-17.2,12.8-24,16.5c-6.5,3.5-19.7,9.7-19.7,9.7l-4.1-11.6c0,0,9.7-3.5,17.7-8.7
			s10.9-6.8,23.7-17.1c12.2-9.8,23.2-19.5,24.2-20.3v-0.1l0,0l0,0V96c1,0.8,12,10.5,24.2,20.3c12.8,10.3,15.7,11.8,23.7,17.1
			c8,5.2,17.8,8.8,17.8,8.8L390.7,153.6z"/>
		
			<linearGradient id="SVGID_27_" gradientUnits="userSpaceOnUse" x1="328.9688" y1="-351.125" x2="328.9688" y2="-652.1251" gradientTransform="matrix(1 0 0 -1 0 5.1499)">
			<stop  offset="0" style="stop-color:#2B2C2C;stop-opacity:0"/>
			<stop  offset="1" style="stop-color:#050607"/>
		</linearGradient>
		<path class="st26" d="M594.3,387.1c-8.9,14-20.3,32-31.6,47.5c-11.1,15.1-39,48.5-55.6,68.2c-20.8,24.6-51.7,52-66.8,66.2
			c-15.1,14.2-29.8,26.8-46.1,39.7c-14.8,11.7-61.8,46.1-65.1,48.6l0,0c0,0-49.3-36.1-64.7-48.2c-16.3-12.8-30.9-25.5-46.1-39.7
			c-15.1-14.2-46.1-41.5-66.8-66.2c-16.5-19.6-44.5-53-55.6-68.2c-11.3-15.5-22.7-33.5-31.6-47.5s-19-31.2-19-31.2l16.1,1.2
			c0,0,7.2,13.2,13,21.9c5.8,8.7,20.2,30.5,33.8,48.7s32,40.6,48.7,60.4s39.2,40.8,57.4,57.6c18.2,16.9,41.1,36.9,63.8,54.7
			c21.6,17,48.5,36.1,51,37.9l0,0c0,0,28.5-20.4,51.2-38.3c22.7-17.9,45.6-37.8,63.8-54.7c18.2-16.9,40.8-37.8,57.4-57.6
			c16.7-19.8,35.1-42.1,48.7-60.4c13.6-18.2,27.9-40,33.8-48.7c5.8-8.7,13-21.9,13-21.9l15.7-0.8
			C612.9,356.3,603.2,373.2,594.3,387.1z"/>
	</g>
</g>
</svg>
