<?xml version="1.0" encoding="utf-8"?>
<!-- Generator: Adobe Illustrator 22.0.1, SVG Export Plug-In . SVG Version: 6.00 Build 0)  -->
<svg version="1.1" id="Layer_1" xmlns="http://www.w3.org/2000/svg" xmlns:xlink="http://www.w3.org/1999/xlink" x="0px" y="0px"
	 viewBox="0 0 949.6 949.6" style="enable-background:new 0 0 949.6 949.6;" xml:space="preserve">
<style type="text/css">
	.st0{fill:#161616;}
	.st1{fill:#A3242E;}
	.st2{fill:#D63831;}
	.st3{fill:#FFFFFF;}
	.st4{fill:#C8C8C8;}
</style>
<g>
	<path class="st0" d="M399.8,68.2c77.3,3.1,160.6,32.1,219.8,83.4l0.9,0.8l1.1-0.5c15.3-6.3,33.2-13.9,50.4-23l3-1.6l-2.8-1.9
		C590,71,486.1,46.6,388.4,62.4l-6.8,1.1l6.3,2.7C391.7,67.9,395.9,68.1,399.8,68.2C441.8,69.9,395.9,68.1,399.8,68.2z"/>
	<path class="st0" d="M897.8,570.2c-7.4-6.6-15-13.4-22.6-19.8l-0.5-0.4H874c-9.6-0.3-19.2-0.1-28.8-0.1c3.8-20.4,7.9-46.6,7.6-73
		c19.2-10.3,34.7-21.4,47.4-33.9l6.6-6.6l-8.7,3.3c-60.4,22.6-125.2,34-189.4,37.8c66.5-14.7,129.6-48.2,179.9-93.9l1.9-1.8
		c7.7-7.2,15.6-14.7,22.2-23.3l4.1-5.3l-6.3,2.2c-47.1,16.5-98.1,24.1-148,24.5c60-33.3,109.2-83.7,144.7-142.2l5.8-9.5l-8.7,6.9
		c-46.4,36.7-98.9,66.8-155.8,83.9c23.4-35.8,39.8-68.8,50.2-100.7l2.5-7.6l-5.8,5.5c-46.5,44.3-106.9,77.7-171.3,84.7
		c54.3-51.5,88.7-125.6,104.3-198l1.1-5.3l-4.3,3.3c-84.4,65.2-181.8,85.2-285,64c9-9.2,18-18.4,27.1-27.6l4.5-4.6l-6.3,1.2
		c-45.6,8.8-92.7,13.5-138.9,17.9h-0.1h-0.1c-1.7,0.1-3.4,0.7-4.9,1.7c-2.9,3.4-5.9,6.7-9,9.9l-0.1,0.1c-2,1.9-3.5,4.2-4.7,6.8v0.1
		v0.1c0.7,3.9,1.3,7.8,1.7,11.7c5.4-6.9-87.9-32.3-106.7-35.2c-11.7-2.7-10,18.5-10.7,23.8c-21.3,16-24.3,28.4-16.5,55.1
		c4.9,14.8,10.6,30.4,20,43.7c-26.4,40.8-23,79.3,8.6,114.8l1.1,1.3C132.6,403.4,70.4,470.8,82,549.8H63.2c-4.1,0-8.2,0-12.3,0h-1.5
		l-0.4,1.5c-8,30.1-16.1,60.2-24.1,90.2l-0.7,2.5h2.6c6.9,0,13.8,0,20.8,0h24.7c6.1,0,12.1,0,18.2,0C77,694.5,63.5,744.9,50,795.4
		l-0.7,2.5h2.6c49.4,0.1,98.8-0.2,148.3,0.2c147.4,103.8,344.2,112.5,491.3,0.6l0.1-0.1c0.6-0.5,1.3-0.7,2.1-0.6h0.1h0.1
		c54.3,0,108.6,0,162.9,0h1.5l0.4-1.5c18.7-69.9,37.5-139.8,56.1-209.8l0.3-1.2l-0.9-0.8C908.6,579.9,903.1,575,897.8,570.2
		C890.4,563.6,903.1,575,897.8,570.2z M822.7,775.2c-38.2,0-76.4-0.1-114.6,0c-7.9-6.9-15.7-13.8-23.5-20.8
		c16.3-60.6,32.5-121.3,48.7-182H866c7.7,6.9,15.5,13.7,23.3,20.6c-16,60.8-32.5,121.4-48.7,182.1
		C834.7,775.2,828.7,775.2,822.7,775.2z M233.8,756.4c6.8-15.5,10.8-31.4,12-47.9l-9.7-87.3h-36.8c-6.8,0-13.5,0-20.3,0h-1.5
		l-0.4,1.5c-13.6,50.8-27.3,101.6-40.9,152.4c-19.1,0-38.2,0-57.2,0l41.2-153.9H53.9l0.5-1.8c4.2-15.6,8.4-31.3,12.6-46.9h70.9h143
		c3.1,28.1,6.2,56.1,9.3,84.2l3-4.7c17.1-26.5,34.3-53,51.4-79.5c17.5,0,34.9,0,52.4,0c-43.3,67.1-90.3,125.5-111,202.7
		c-19.1,0-38.2,0-57.3,0C230.4,769,232.1,762.7,233.8,756.4C237.6,742,232.1,762.7,233.8,756.4z M212,351.5c7.2-6.2,15.1-8.9,23.5-8
		h0.1c17.8,5.5,31.9,16.3,42.1,32.6c-23.2,0.9-47,3.7-69.7,8.9l-0.4-2.3C205.2,368.6,206.6,358.7,212,351.5
		C217.4,344.4,206.6,358.7,212,351.5z M271.8,394c38-0.1,97.5-1.3,125.1-33.8l5.3-6.2l-7.5,3.1c-1.7,0.7-3.3,1.4-5,2l-0.2,0.1
		l-0.2,0.1c-50.5,26.5-176-72.6-192.5-15c-1,2.9-1.3,5.9-1.3,8.8c-5.4-9.5-8-21.1-7.3-33.1l0.1-1.1c0.2-3.3,0.4-6.4,1.6-9.2l0.1-0.3
		v-0.3c0.2-3.8,1.5-7.6,2.7-11.2l0.5-1.6c3.4-9.4,8.2-18.8,14.8-28.5c-0.7,11-1.2,22.3,0,33.4l0.8,7.3l3-6.7
		c1.9-4.9,4.1-9.7,6.5-14.3c1.6-0.5,3.7,0.2,5.3,0.2c31.4,3.8,58.1,21.3,83.8,38.4l0.2,0.1l0.2,0.1c8.2,3.7,16.8,6.5,25.7,8.3
		c51.6,5.7,37.9-56.6,14-73.3c-24.9-17.4-130.7,35.5-128-38v-0.1v-0.1c-0.1-1.1,0-2.3,0-3.5v-0.9l0.2-6.2l-3.8,4.9
		c-8.9,11.6-15,25.3-19.8,37.3c-6.9-15-22.9-75.3,5.7-73.5c6.1,4.4,12.6,8.3,19.3,11.6h0.1h0.1c11.2,1.6,21.8-1.5,31.7-9.3l1.6-1
		c-1,4-2,7.9-3,11.9l-1.3,5.4l4.4-3.4c2.8-2.4,5.7-4.8,8.6-7.2c1.7,1.2,3.4,2.5,5.1,3.7c0.6,9.9,1.3,19.8,1.9,29.7l0.5,7.7l3.3-6.9
		c3.6-7.9,7.2-15.8,10.7-23.8c1.7,0.3,3.6,0.6,5.5,0.9c10,12.4,23,25.1,30.9,39l0.2,0.4l0.2,0.2c3.9,4.5,7.8,9,11.7,13.6l5.6,5.9
		l-2.3-7.9c-2.2-7.3-4.5-14.7-6.7-22c26,0,53.6,4.2,78.5,10.6l5.2,1.3c-0.4,0.8-0.7,1.6-1.1,2.4l-0.1,0.2v0.2
		c-9.8,49,60.5,102.1,92.1,48.5c54.6-92.5-109.3-49.6-51-11.9l0.5,0.3c2.3,1.9,4.7,2.2,7.1,1.1l2.3-1.3l-1.8-1.9
		c-4.3-4.5-6.2-8.7-5.9-12.7v-0.1c1.7-59.4,59.5,71.5-9.2,22.5c-12.7-8.4-19.1-25.1-15.1-39.7v-0.1c2-9.4,7.6-17.7,15.1-22.1
		c35.4-22.9,88.3,11.9,128.3,2.7c10.2-1.8,20.1-4.3,29.5-7.6c-23.1,54.5-127.6,159-186.5,80.9l-0.1-0.2l-0.2-0.1
		c-2.4-2.8-4.5-5.7-6.5-8.7l-9.2-12.1l5.7,14c6.6,16.3,18.3,29.3,32.6,36.6c4.3,2,8.6,3.8,13,5.4l0.3,0.1h0.3
		c27.6,3.1,42,5.3,73.8-6c3-0.9,6.4-0.1,9.4,0.1c7,0.4,14,0.8,21,1.2h0.1h0.1c39.9,0.2,78.6-5,117.5-12.6l1-0.2l0.1-0.3
		c13.5-3.1,27.5-7.1,42.7-12.3c-58.3,59-148.9,78-228.8,75.2l-0.5,3.9c107.7,25.1,223.3,31.4,332.6,12.8
		c-112.1,54.3-247.3,64.2-365.8,24.7l-11.8-3.9l10,7.4c8.4,6.2,17.9,10.9,27.1,15.4l0.6,0.3c30.3,14.1,65.2,24.7,109.5,33.3
		c-75.9-5.7-169.7-16.1-236.9-54.7l-0.2-0.1l-0.3-0.1c-1.4-0.3-2.8-0.8-4.2-1.2l-16.2-5.2l14.3,8.7c89.7,54.7,198.7,88.9,304.1,91.7
		h1.3c56.2,0,104-6.1,146.2-18.5c-0.3,4-0.7,8.1-1.3,12.2l-17.2,3c-45.6,8-91.5,22-138.4,20.2h-0.1h-0.1
		c-11.9,0.8-23.8,0.7-35.8-0.1l-2-0.1c-143.9-7.3-381.2-185.6-478.3,16.7c-3.6,0.1-7.2,0.1-10.8,0.1
		C92.4,451.6,187.9,395.1,271.8,394C297.6,393.9,231.3,394.5,271.8,394z M236.3,268.3l0.3-2.7c10.1,6.6,21.9,12.1,35.2,16.5
		c2.4,0.7,3.9,3.3,4.5,8l0.2,1.4c-12.6-3.3-25.1-7.1-37.3-11.5C235.5,278.6,235.7,273.6,236.3,268.3z M297.3,297.2l0.3,3.1l2.7-1.5
		c3.1-2.3,6.1-4.6,9-7c3.5-2.4,8-5.1,12.8-5.9l-3.9,3c-6.2,5-12.4,10-18.6,15c-3.8-1.8-7.3-3.9-10.8-6.3c-1-1-0.5-2.7,0.4-5.1
		l0.3-0.7l1.8-5.2c1.7,0.2,4,0.1,5.6,0.7C297.2,290.6,297.4,293.9,297.3,297.2z M316.5,303.9c1.6-4.2,3.3-8.5,4.9-12.8l2-5.5
		c15.7-1.4,13.8,36.2-9.6,25.2C314.7,308.6,315.6,306.3,316.5,303.9C318.1,299.8,315.6,306.3,316.5,303.9z M286.6,289.5
		c-2.2,1.3-4.7,2-7.4,2.1l0.2-0.2c3.6-3.7,7.5-5.3,11.9-4.8L286.6,289.5z M222.6,268.4l0.8,2.7l2.3-1.6c2.3-1.6,7.1-5.4,9.9-4.5
		c0.1,0,0.1,0.1,0.2,0.1l-2.2,0.9c-5.6,2.2-10.6,5.6-15,9c-0.2-7.1-0.5-14.3-0.8-21.3l-0.1-2.8C219.3,257,221,262.9,222.6,268.4z
		 M214.9,240.2c0.4,1.4,0.7,2.9,1.1,4.2l-1.9,1.9c-2.8,2.8-5.5,5.9-8.2,9.1C208.7,250.1,211.6,245,214.9,240.2
		C215.3,241.7,211.6,245,214.9,240.2z M255.5,179.7c0,0.2-0.1,0.4-0.1,0.6l-2.9-0.4c-14.8-1.8-29.6-3.7-44.4-5.5
		c-1.6-11.5,18.3-13.6,25.4-12C241.7,167.2,249,172.9,255.5,179.7C255.4,179.9,254.5,178.8,255.5,179.7z M340.7,164.9l0.5-0.1
		c14-3,38.5-8.3,55.3-8.3h0.2h0.2c10.8-1.8,21.5-3.5,32.3-5.2c-3.9,2.9-7.8,5.8-11.7,8.8c-0.8,0.6-1.7,1.2-2.7,1.6l-1.6,0.2
		c-10.3,1-21,2.1-31.1,5.4l-9.5,3.1l10,0.8c1.4,0.1,2.8,0.2,4.3,0.4l0.3,0.1h0.3c35.9-3.8,86.1,17.5,114.8,36.5
		c-27.1-6.4-56.6-8.3-76.9,15.5c-4.4,4.8-7.6,10.4-10.3,16.1l-4.9-2.5c-22-11.4-43.7-21.8-62.1-30.5l-0.5-0.2
		c-8.5-3.9-17.2-7.9-26.1-11.3c-0.3-0.6-0.5-1.3-0.7-1.9c1.4-0.3,2.8-0.4,4.2-0.5c19.1-0.8,37.8-4.8,58.4-9.5l-0.5-3.9
		c-16.8,0.7-33.8,3.4-50.6,2.9h-0.4C308.4,181.7,330.9,167,340.7,164.9z M700.6,138.2c1.2-0.9,2.3-1.8,3.4-2.6
		c-23.4,35.9-52.2,70.6-82.7,100.7c5.5-10.2,10.3-21.2,14.4-32.6l0.3-0.2l0.2-0.7c2.4-7.1,4.7-14.3,6.9-21.5l2-7
		c0,0-5.6,5.3-5.8,5.5l-0.1-0.6c-0.3-1.2-0.6-2.4-0.8-3.6c17.7-12.8,39.2-20.5,57.2-33.5C697.3,140.9,699,139.5,700.6,138.2
		C701.8,137.3,699,139.5,700.6,138.2z M613,184.2c0.8-0.5,1.7-0.8,2.6-1.1c5.1-1.7,10.3-3.3,15.4-4.8c1.9,1.1,3.7,2.3,5.3,3.8
		l0.3,0.2c-6.3,5.5-13,10.5-20.2,14.8l-0.1-0.7C615.5,193,614.4,187.5,613,184.2C613.2,183.9,613,184.2,613,184.2z M588.5,191
		c0.9-0.2,1.9-0.4,2.8-0.8c4.1-0.7,9.2-3.4,13.5-2.7c2.8,3.3,5.4,6.8,7.9,10.4l0.7,0.8c-7.6,4.3-15.5,7.9-23.7,10.7l-0.3-1.8
		c-0.9-5.5-2.3-10.7-3.8-15.7C586.1,191.5,587.1,191.3,588.5,191C589.4,190.8,587.1,191.3,588.5,191z M560.3,216
		c-1.4-5.9-2.8-11.8-4.3-17.7l0,0c5.1-2.1,10.5-3.2,16.1-3.3l2.1-0.4c1.2-0.3,2.3-0.1,3.3,0.8l0.1,0.1c3.1,4.2,5.6,8.8,8,13.3
		l0.8,1.6C577.9,213.1,569.1,215,560.3,216C559.6,212.6,569.1,215,560.3,216z M538.6,200.4c9.1-0.9,12.5,9.2,17,16.1
		c-7.3,0.6-14.6,0.5-22-0.1c-3.7-5.2-7.9-10-11.8-14.3c5.4-0.5,10.9-1,16.2-1.7H538.6z M349.8,219.8c-14.1,2.9-23.7-0.8-29-11.3
		C330.5,212.1,340.2,215.9,349.8,219.8C341.6,218.2,340.2,215.9,349.8,219.8z M782.9,516.8l16.1-6.6c-1.7,12.7-4.6,25.8-8.8,39.6
		c-9.2,0-18.3,0-27.5,0h-48.9c-8.7-0.1-17.3,0.1-26,0C717.9,541.5,749.2,530.7,782.9,516.8z M242,528.8
		c68.8-35.5,146.5-2.9,213.2,20.9c-77,0.2-154.1,0.1-231.1,0.1h-11C221,541.4,230.7,534.4,242,528.8
		C259.7,519.7,230.7,534.4,242,528.8z M385.8,663.4c8.1-30.3,16.2-60.6,24.3-90.8c19.1,0,38.2,0,57.3,0
		c-13.5,50.5-27,100.9-40.5,151.4l-0.7,2.5H459c7.3,0,14.6,0,21.9,0c18.2,16.3,36.5,32.5,54.8,48.7c-17.6,0-35.1,0-52.7,0h-98.2
		c-7.8-6.9-15.6-13.8-23.3-20.7C369.5,724.1,377.7,693.8,385.8,663.4C393.9,633.1,377.7,693.8,385.8,663.4z M580.5,775.1
		c-5.5,0-11.1,0.3-16.7-0.1c-18.9-16.7-37.8-33.4-56.6-50.1c13.6-50.7,27.2-101.5,40.8-152.3c7.6,0,15.2,0,22.9,0H633
		c15.9,0,31.9,0,47.8,0c7.7,6.9,15.5,13.8,23.3,20.7l-48.7,181.9C630.4,775.2,605.5,775.1,580.5,775.1z M449.3,798
		c42.4,0,84.8,0,127.2,0c-82.4,30.4-173.7,34.2-255.6,0C363.7,798,406.5,798,449.3,798z"/>
	<path class="st0" d="M721.7,166l-0.9,2.9c-7.9,25.7-16.4,45.4-26.5,62l-0.7,1.1l0.8,1.1c6.6,9.1,12.6,18.9,18.5,29l1,1.7l1.7-1
		c19.6-11.3,38.5-24.4,56.1-38.8l1.5-1.2l-1.1-1.5c-11.9-16.1-28.2-36.7-48.1-53.4L721.7,166z"/>
	<path class="st0" d="M793.7,253.9l-1.4,4c-4,11.5-8.4,21.2-13.5,29.9l-2.6,4.5l4.9-1.5c8.8-2.6,17.4-5.5,25.9-8.9l1.9-0.9l-1-1.9
		c-3.9-7.2-7.9-14.4-12-21.5L793.7,253.9z"/>
	<path class="st0" d="M611.1,726.5l0.4-1.5c9-33.7,18.1-67.5,27.1-101.2l0.7-2.5h-47l-0.4,1.5c-9,33.7-18.1,67.5-27.1,101.2
		l-0.7,2.5h31.2H611.1z"/>
	<path class="st0" d="M777.8,622.8c-9.2,33.7-18.5,67.5-27.7,101.2l-0.7,2.5c0,0,8.8,0,11.9,0h13.1c5.8,0,11.7,0,17.5,0h0.3l0.3-0.1
		c0,0-0.1,0,0,0c1.8,0,4.1,0.8,4.7-2.5c9-33.4,17.9-66.8,26.8-100.1l0.7-2.5h-46.4L777.8,622.8z"/>
</g>
<g>
	<path class="st1" d="M530.1,219.9l0.8,1.1l1.4,0.1c36.1,3.5,74.8-8.5,103-31.3c-0.5,1.6-1,3.1-1.5,4.7l-0.1,0.3
		c-0.6,1.7-1.2,3.5-1.7,5.2l-0.3,0.2l-0.4,1.1c-5.6,16-12.7,31-21.1,44.4L598.7,264l16.1-14.5c38.3-34.8,73-77.5,100-121.6l8.3-13.6
		l-12.7,9.6c-1.9,1.4-3.9,3-5.8,4.5l-1.8,1.5l0.2,0.4c-3.5,2.6-6.9,5.1-10.3,7.7c-17.6,12.8-43.2,19.8-58.5,34.6l-1,1v0.1
		c-0.7-0.2-1.3-0.4-2-0.4h-0.5l-0.5,0.1c-5.4,1.6-10.8,3.2-16.2,5l-0.2,0.1c-2.5,0.8-4.5,2.6-5.8,5.3c-0.1-0.1-0.8-0.7-0.8-0.7
		l-0.7-0.2c-5.4-1.3-10.9,1.7-16.2,2.6l-0.4,0.1l-0.3,0.2c-3.4,0.7-6.3,2.2-8.9,4.7l-0.4,0.8c-2.2-1.5-4.6-1.9-7-1.4l-1.9,0.3
		c0.4-0.1-23,1.1-20.1,9.5c0.2,0.8,0.4,1.6,0.6,2.4c-3.6-4.4-7.7-7.3-13.6-6.7l-0.5,0.1c-6.4,0.8-13,1.4-19.4,1.9l-6.9,0.6l4.2,4.5
		C520.2,207.5,525.6,213.5,530.1,219.9z"/>
	<path class="st1" d="M609.3,453.5c78.8,0,157.1-18.8,227.1-55l10.5-5.4l-11.8-0.3h-0.4c-109.2,0-205.4,17.3-315.9-4.7
		c75.6-2.3,157.7-25.1,210.3-82.5l8.2-8.9l-11.4,4.1c-18.4,6.6-35,11.5-50.9,15.1l-1.4,0.3l-0.1,0.2c-38.2,7.6-75.8,12.4-114.9,12.2
		c-7-0.4-14-0.8-21-1.2h-0.1c-3.8-0.2-7.5-1-11.3,0.2c-24,8.5-46.7,8.8-71.2,5.8c-4.1-1.5-8.2-3.2-12.1-5c-3.8-1.9-7.3-4.2-10.6-6.9
		c75.5,41.4,152.9-37.7,178.7-101.4l2.6-6.4l-6.4,2.4c-10.3,3.9-21.4,6.9-32.9,8.9h-0.1c-41.4,9.6-93.4-25.6-129.9-2
		c-8.7,5.2-15,14.4-17.3,25.2c-4.5,16.6,2.7,35.5,17.1,45c19.5,13.9,53.7-1,46.4-27.2c-5.1-18.3-38.4-28.3-39.3,0.3
		c-0.2,1.8,0,3.6,0.4,5.5c-24.7-41.2,87.6-44.8,49,18.6c-29.5,48.5-91.9-0.1-83.1-44.5c2.9-6.7,6.3-13.6,11.5-19.4
		c21.9-25.7,54-17.7,81.8-11.7l13,2.8l-10.5-8.1c-30.1-23.2-70.5-37.4-108-42.2c2.8-0.3,5.6-0.6,8.4-0.9l1.5-0.1
		c1.9-0.5,3.6-1.3,5.2-2.5l0.1-0.1c6.2-4.6,12.3-9.3,18.5-13.9l10.3-7.8l-12.7,2.5c-13.4,2.3-26.9,4.5-40.3,6.7
		c-18.3,0.2-38.3,4.6-56,8.4l-0.5,0.1c-15.6,3.3-38.9,26.5-7.8,27h0.4c-2.6,0.2-5,0.4-7.5,0.5h-0.2h-0.2c-2.7,0.1-5.2,0.8-7.6,2.3
		l-0.3,0.4l-0.2,0.5c-0.4,2.3-0.1,4.5,0.7,6.5l0.4,1.5l1.5,0.5c9,3.4,18,7.5,26.6,11.5l0.5,0.2c11.9,5.6,25.9,12.2,40.6,19.5
		c-19.4-3.7-39.2-5.7-59-5.5h-4l1.1,3.8c1.1,3.6,2.2,7.1,3.3,10.6c-0.7-0.8-1.4-1.6-2.2-2.4c-5.4-9.5-14.4-18.4-21.1-26.9l-0.2-0.2
		c-3.5-4.3-6.9-8.7-10.4-13l-0.7-0.9l-1.1-0.2c-2.9-0.6-5.5-1-8-1.3l-2.2-0.3l-0.9,2.1c-2.1,4.7-4.2,9.5-6.3,14.2l-0.1-2
		c-0.3-5.5-0.7-11.1-1.1-16.7l-0.1-1.4l-1.1-0.8c-2.4-1.8-4.8-3.5-7.2-5.2l-1.5-0.9l-1.5,0.9c-1.1,0.6-2.1,1.4-3.1,2.2l0.2-0.9
		c0.5-2,1-4,1.5-6l0.4-1.7l-1.2-1.2c-7.5-7.3-14.7-15.8-24.9-19.3h-0.2c-12-2.8-35.2,1.8-31.4,18.7h-0.5
		c-34.2-3.2-21.1,53.2-15.8,68.5v0.1c1.7,4.8,3.4,9.7,5.8,14.4l0.7,11.3l5-9c0.7-1.2,1.3-2.4,1.9-3.7l0.1-0.2
		c3.6-9.2,8.1-19.8,14.2-29.6c6.7,68.6,97.4,25.3,130.7,38.4c29,11.4,28.6,67.5-11.5,63.1c-8.3-1.8-16.3-4.4-24-7.9
		c-26.2-17.3-53.9-35.2-85.8-39.1h-0.2h-0.2c-2.9,0-5.3-1-8.2,0.4l-0.7,0.3l-0.4,0.6c-0.9,1.2-1.6,2.5-2.3,3.8
		c-0.1-8.7,0.5-17.5,1.1-26.1l0.8-11.2l-6.1,8.4c-8.9,12.2-15.3,23.9-19.6,35.7l-0.5,1.6c-1.3,3.8-2.6,7.8-3,12.1
		c-1.2,3.4-1.5,6.9-1.7,10.3l-0.1,1.1c-0.9,15.9,3.4,30.9,12.2,42.4l6,7.8L201,359c-0.3-4.7-0.6-9.5,0.8-13.8
		c11.2-39.3,53.5-8.5,73.3,1.3c35.8,17.7,60.1,35.3,101.9,22.7c-56.1,30.8-123.9,9.8-182.1,33.4c-59.2,24-99.7,84.2-82.7,149.5
		l0.6,2.3h2.3c4.6,0,9.1,0,13.7-0.1l1.8-0.1l0.8-1.7c93.2-197.8,330.5-22.2,474-14.9l2,0.1c12.1,0.9,24.1,0.9,36.2,0.1
		c33.3,1.2,68.3-5.1,100.5-11.7c-24.7,9-48,16.2-71.1,22l-19.7,5l20.3,0.9c13.4,0.6,26.9,0.1,40.4,0.3h48.9c9.7,0,19.3,0,29,0h2.2
		l0.6-2.1c6.2-20.4,9.8-39.2,10.9-57.4l0.3-4.3l-4.1,1.3c-42.4,12.9-90.6,19.1-147.5,19.1h-1.2c-91.6-2.5-185.4-29.1-266.5-71.2
		c74.7,26.1,158.2,44.6,237.9,43.2h0.9l0.3-5.8l-0.9-0.1c-47.5-6.2-96.2-17.8-139.7-38l-0.6-0.3c-1.6-0.8-3.3-1.6-4.9-2.4
		C521.5,448,565.7,453.5,609.3,453.5z M226.8,181.8c5.2,0.6,10.6,1.3,15.9,2c-6.5,3.8-13.3,5.2-20.2,4.2c-4.9-2.4-9.6-5.2-13.9-8.4
		C214.7,180.3,220.7,181.1,226.8,181.8C232,182.4,220.7,181.1,226.8,181.8z"/>
	<path class="st1" d="M466.8,554.7h17.4l-16.4-5.8c-77.5-27.3-194.7-77.3-261.4,1l-4.2,4.9h22c22.4,0,44.8,0,67.3,0h0.2
		C350,554.8,408.4,554.8,466.8,554.7z"/>
	<path class="st1" d="M449.3,793c-46,0-92,0-138,0.1h-13.8l12.5,5.7c41.3,18.8,87.9,28.8,134.8,28.8l0,0
		c48.9,0,98.2-10.6,143.5-28.7l14.5-5.8h-15.6C541.3,793,495.3,793,449.3,793z"/>
</g>
<path class="st2" d="M299.9,74.3c40.4-14.6,83-23.2,125.9-25.1c90.4-3.6,182.7,19.7,258,70.5c12.8-8.3,25.1-17.2,36.5-27.3
	c7.2-6.3,13.9-13,20.7-19.6c-2.5,27.3-7.2,54.4-13.9,80.9c20.2,17.7,38.9,37,55.2,58.4c9-8.1,17.2-17.1,25.5-26
	c-1.6,17-4.1,33.9-7.6,50.7c7.9,11.8,15.3,23.9,22,36.4c41.3-19.9,80.2-46.5,109.4-82.3c-2.8,15.9-8.3,31.3-14.8,46.1
	c-16.3,36.4-39.9,69.3-67.2,98.4c2.7,8.1,5.3,16.1,7.6,24.3c15.1-2.8,29.8-7.2,44.2-12.4c16.6-6,32.8-13.3,47.4-23.3
	c-19.2,36.6-47,68.7-79.8,93.8c0.8,6.7,1.6,13.4,2.2,20.1c25.2-6.9,48.9-18.6,71.1-32.1c-18.4,30.5-42.9,57-69.8,80
	c-0.7,15.3-1.8,30.8-3.8,46.1c4.3,0,8.6,0,12.9,0c17.9,15.9,35.8,31.8,53.7,47.7c-21.1,78.8-42.2,157.7-63.4,236.5
	c-56.9,0-113.9,0-170.8,0c-42.3,31.6-90.4,55.4-141.3,69.5c-66.9,18.6-138.3,20-206,5.1c-58.2-12.8-113.6-38.1-161.4-73.5
	c-1.8-1.7-4.4-0.9-6.6-1.1c-53.3,0.1-106.7,0-160,0c13.8-51.3,27.5-102.7,41.3-154c-22.1,0-44.2,0-66.3,0
	c11.6-43.4,23.2-86.8,34.9-130.3c11.3,0,22.5,0,33.7,0c-0.1-27,7.8-53.8,21.5-76.9c13.8-23.3,32.7-44,56.2-57.8
	c12-7.4,24.9-13.3,38.4-17.5c-9.9-15.4-15.6-33.5-15.3-51.8c0.1-20.1,7.3-40,19.6-55.9c-11.1-22.6-20.4-46.3-25.8-71
	c-1.6-5.8-0.2-12.5,4.6-16.4c7-5,14.7-9.1,20.9-15.1c1.8-6.9-0.1-14.4,3-21c1.7-4.1,6-6.7,10.3-6.7c7,0,14,1.1,20.9,0.3
	c8.7-1,17.3-2.5,26-3.1c3.7-0.1,8,0.1,10.5,3.3c8.4,10.6,17.7,20.7,29.1,28c4.5,3,11,1.6,14.3-2.5c4.9-5.8,9.7-11.6,14.5-17.5
	c1.2-1.5,2.8-2.8,4.8-2.9c40.4-3.2,80.8-7.7,121-13.1c12.3-1.8,24.6-3.3,36.7-5.9c-8.9,10.2-17.8,20.4-26.7,30.6
	c21.5,5.3,43.7,7.5,65.9,7.7c28.8,0.1,57.6-3.7,85.2-11.5c-26.9-21.7-57.1-39.2-89-52.6c-58.2-24.4-122.4-33.3-185.1-27.3
	C320.6,76.2,310.1,76.3,299.9,74.3 M388.7,64.4c3.5,1.5,7.4,1.7,11.2,1.8c44.2,1.8,87.9,12.2,128.9,28.7
	c16.7,6.9,32.9,15.3,48.4,24.6c15.2,9.2,30.3,18.9,43.7,30.6c17-7,34-14.3,50.2-22.9c-41.6-27.6-88.4-47.3-137.2-57.9
	C486.3,59.1,436.8,56.6,388.7,64.4 M675.8,136.9c-29.7,17-62.2,29.1-96,34.8c-47.6,8-96.5,4.4-143.5-5.6
	c9.8-10.2,19.7-20.2,29.6-30.2c-16.3,3.1-32.7,5.5-49.1,7.7c-29.9,4-60,7.3-90,10.2c-1.3,0.3-2.9,0-3.8,1.1c-3,3.4-5.9,6.9-9.1,10.1
	c-1.6,1.7-3.7,3.3-4.2,5.8c-0.4,4.2,3,8.2,1.5,12.4c-1.6,2.4-4.7,3.1-7.4,2.9c-6.8-0.3-13.4-2.7-19.3-6.1
	c-13.1-7.8-24.2-18.4-34.3-29.7c-3.8-4.3-10.2-3.9-15.4-2.8c-10.7,2.3-21.7,3.3-32.6,1.6c-3.6-0.9-6.6,2.5-7,5.8
	c-0.6,5.7-0.7,11.4-1.5,17.1c-5.1,3.9-10.4,7.5-15.7,11.2c-4.9,3.5-6.4,10-6.5,15.7c0,9.1,3.1,17.8,5.7,26.5
	c5,15,10.6,30.2,19.8,43.2c5.5-11.4,11.1-22.8,18.6-33c2.7,10.8,5.6,21.6,8.8,32.3c3.4-2.4,7.4-6.4,12-4.7c11,7.4,23.2,12.9,35.8,17
	c4.2,1.2,5.5,5.9,6,9.7c3.9-2.8,8.4-5.9,13.5-5.2c2.3,0.4,4.9,0,6.8,1.3c1.2,3.5,0.4,7.4,0.7,11c3.3-1.8,5.7-4.9,8.9-6.9
	c5.2-3.5,11.2-6.8,17.7-6.4c5.8,0.4,10,5.6,11.2,10.9c1.7,7.2-0.8,16.3-7.8,19.7c-5.9,2.8-12.5,0.4-18-2.4
	c2.7-7.2,5.5-14.3,8.2-21.5c-6.6,5.1-13,10.6-19.6,15.8c-4.2-2.2-8.8-4-12.4-7.2c-2.2-2.2-0.7-5.5,0.1-7.9c-5.4,3.3-12.1,3-17.8,0.6
	c-10.1-4.1-20.5-7.7-31.3-9.9c-5.6-2-4.7-9.4-4.3-14.1c-6.5,2.6-12.2,6.8-17.6,11.2c-0.3-10.4-0.8-20.8-1.2-31.2
	c-9.2,9.3-17,20-23.4,31.4c-5.3,9.6-10,19.7-12.1,30.6c-3.4,16.9-1.3,35.3,7.9,50c5.4,8.2,11.3,16,17.8,23.4
	c-1.9-10.9-2.3-23.5,4.8-32.8c5.8-7.7,16.2-9.6,25.3-8.8c7.4,0.2,13.9,4.4,19.6,8.8c10,8,18.6,17.7,26.5,27.7
	c-19.9,0.6-39.8,2.5-59.5,6.1c-23.3,4.3-46.5,11-66.8,23.4c-25.6,14.7-45.7,38-58.7,64.4c-12.2,24.5-17,52.8-12.5,79.9
	c-11.1,0-22.3,0-33.4,0c-8,30.1-16.1,60.1-24.1,90.2c22.1,0,44.1,0,66.2,0c-13.7,51.3-27.5,102.6-41.2,153.9
	c49.6,0.1,99.3-0.2,148.9,0.2c7,4.9,13.7,10.3,20.9,14.9c58.6,39.3,127.9,61.3,198.1,66.3c36.1,2.9,72.7,1.1,108.1-6.4
	c58.6-12.4,114.6-37.5,162.3-73.8c1-0.9,2.3-1.3,3.6-1.1c54.3,0,108.6,0,162.9,0c18.7-69.9,37.5-139.8,56.1-209.8
	c-13.1-11.3-25.7-23.2-38.9-34.3c-10.4-0.3-20.8,0-31.1-0.1c4.7-25.1,8.4-50.6,8-76.2c17.4-9.2,34-20.3,48-34.1
	c-29.8,11.1-60.7,19.5-92,25.6c-41,7.8-82.6,12.6-124.3,13.5c11.9-2.2,23.9-4.3,35.6-7.4c62.7-15.8,121.2-47.5,169-91
	c8.3-7.9,16.9-15.7,23.9-24.8c-27.9,9.8-56.9,16.1-86.2,20c-23.2,3-46.7,4.9-70.1,4.6c7.5-4.2,15.1-8.3,22.4-12.8
	c53-32.5,96.2-79.5,128.3-132.4c-21.2,16.8-43.5,32.3-67.2,45.5c-29.9,16.7-61.5,30.9-94.5,40.2c21.7-32.6,40.8-67.4,52.9-104.8
	c-23.7,22.8-50.6,42.3-80,57c-30.7,15.2-63.9,26.1-98.2,28.9c30.8-28,54.8-62.9,72.9-100.2c15.5-32.1,27.6-65.9,35.1-100.7
	C710.3,115,693.6,126.8,675.8,136.9 M722.7,169.5c-6.7,21.7-14.9,43.1-26.7,62.5c6.8,9.3,12.8,19.2,18.6,29.2
	c19.6-11.3,38.3-24.3,55.8-38.6C756.3,203.4,741,184.8,722.7,169.5 M794.2,258.5c-3.7,10.5-8.1,20.7-13.7,30.3
	c8.6-2.7,17.5-4.9,25.7-8.8C802.2,272.8,798.6,265.5,794.2,258.5z"/>
<path class="st2" d="M694.4,140.4c4.2-2.8,7.9-6.5,12.4-8.9c-0.3,1.1-0.6,2.1-1.4,2.9c-19.8,21.8-40.5,43-63.1,62
	c-2.5,2.2-5.1,4.1-8,5.7c2.3-7.1,4.8-14.2,6.9-21.4c-28.7,27.1-69.3,41.4-108.7,37.6c-4.4-6.4-9.6-12.1-14.9-17.8
	c6.8-0.6,13.5-1.2,20.3-2c2.4-0.2,5.2-0.6,7.2,1.2c5.6,4.9,9.2,11.5,13.3,17.6c-1.3-6.2-3.1-12.2-4.5-18.4c-0.7-1.7,1.5-2.7,2.8-2.9
	c5.6-1.3,11.3-2.2,16.9-3.2c1.9-0.4,4.3-0.1,5.4,1.7c3.2,4.2,5.7,8.9,8.2,13.6c-0.9-5.5-2.4-11-4-16.4c1.3-2.6,5-2.2,7.4-3.3
	c5-0.8,9.9-3.8,15-2.6c3.5,3,5.6,7.4,8.5,11c-0.8-4-2.4-7.9-3.2-11.9c-0.5-2.3,2.3-2.9,3.9-3.5c5.3-1.7,10.5-3.6,16-5
	c2.6,0.2,4.4,2.7,6.5,4.2c-0.5-1.9-1-3.7-1.2-5.6c1.7-1.7,4.1-2.4,6.2-3.5C660.6,162.5,678.1,152.2,694.4,140.4z"/>
<path class="st2" d="M396.5,154.5c13.5-2.5,27.2-4.1,40.6-6.7c-6.1,4.6-12.4,9.2-18.5,13.9c-1.1,0.8-2.2,1.8-3.6,1.9
	c-10.8,1.1-21.8,2.1-32.3,5.4c1.5,0.1,3,0.2,4.5,0.4c6.7,2.6,13.9,3.9,20.8,6.1c17.7,5.3,35.2,12,50.9,21.9
	c-23.5,3-42.9,24.1-44.2,47.8c-1.4,6.9-2.6,14.1-1.2,21.1c2.8,15.5,11.9,30.1,25.5,38.3c7.8,4.6,16.7,7.9,25.9,7.9
	c15.1,0.3,30.2-7.5,38.3-20.4c7-10.6,8-24.8,2.5-36.2c-5.9-12.6-19.5-22.1-33.8-20.6c-12.1,1-23.3,10.3-25.5,22.4
	c-1.6,8.1,1.5,17.3,8.5,21.8c1.7,1,3.7,2.4,5.7,1.3c-3.7-3.8-6.9-8.7-6.4-14.3c0.3-10,10.9-17.9,20.6-15.5c9.7,2.4,16,13,14.6,22.7
	c-1.5,10.1-9.8,18.6-19.5,21.4c-8.1,2.4-17.2,0.6-24.1-4.3c-13.3-8.8-20.1-26.4-15.9-41.9c7.4-9.2,16.2-18.1,27.8-21.5
	c15.2-4.9,31.3-0.9,46.2,3.1c19.8,5.7,40,12.4,61,10.4c-1.8,12.5-8.5,23.7-17.2,32.7c-9.6,10.1-21.5,17.8-33.9,24.1
	c-4.8,2.5-9.9,4.3-14.6,7c13.7-1.2,26.5-6.7,39.2-11.4c-3.9,4-8.7,6.7-13.5,9.5c-16.2,9.4-34.5,15.8-53.3,16.2
	c-12.4,0.4-24.8-1.7-36.4-6.1c-6.5-2.4-12.5-5.9-18.9-8.6c-2.9-2.5-4.5-6-6.8-9c6.1,15,17.2,28.2,31.7,35.6c4,2.2,8.5,3.5,12.8,5.3
	c5.7,3.1,12.2,4.3,18.6,5.5c21.5,3.7,43.6,1.5,64.6-3.6c7.1-1.8,14.2-3.6,20.9-6.6c32.3,0.2,64.7-2.3,96.5-8.3
	c6.9-1.2,13.8-2.9,20.6-4.2c-0.5,1.2-1.3,2.3-2.4,3c-24.1,16.7-51,29.3-78.9,38c-40,12.6-81.8,18-123.5,20.8c-1.8,0.2-3.5,0.6-5.2,1
	c21.3,7.1,43.1,12.2,64.9,17.2c62.8,13.6,127.1,21.2,191.4,20c6.4,0,12.9-0.8,19.3-0.1c-41.9,8.4-84.7,11.8-127.3,11.7
	c-83.6-0.2-166.8-15.2-246.1-40.9c22.9,20.4,48.7,37.8,76.7,50.3c5.6,2.6,11.4,4.7,16.8,7.5c-14.3-1.6-28.3-4.8-42.4-7.7
	c-17.3-3.7-34.5-8.1-51.7-12.6c-4.3-1.3-8.5-2.4-12.9-3.1c-1.5-0.4-3-0.9-4.5-1.3c69.3,42.2,147.2,69.8,227,83.5
	c25.2,4.2,50.5,7.3,76,8c50.4,0.1,101.3-4.6,149.7-19.3c-1.2,19.3-5.1,38.3-10.8,56.8c-26,0-52,0-77.9,0
	c-13.4-0.2-26.8,0.3-40.2-0.3c37.1-9.4,73.3-22,108.6-36.5c-10.2,1.8-20.2,4.9-30.3,6.9c-27,5.9-54.4,10.2-82,12.3
	c-8.8,0.5-17.6,1.4-26.4,1.1c-5.7-1.8-11.7-1.5-17.5-2c-41.3-3.2-82-12.1-121.4-24.9c-35.1-11.3-69-26-103-40
	c-33.7-13.8-68.2-27.3-104.6-31.5c-29-3.5-58.8,0-86.4,9.7c-20.3,7-39.5,18-54.4,33.6c-18.8,19.4-30.1,45.3-34.1,71.8
	c-2.4,0-4.7-0.1-7.1,0c-5.8-22.1-4.4-45.9,2.6-67.6c8.7-27,27.6-50.2,51.6-65.2c30.5-19.3,67.1-26.5,102.8-27
	c21.1,0,42.3-1.1,63.1-5.1c15.5-3,30.9-7.5,44.7-15.4c5.9-3.4,11.4-7.4,15.8-12.6c-1.7,0.7-3.4,1.5-5.2,2.1
	c-8.5,0.8-16.8,2.9-25.3,3.6c-16.7,1.7-34.1,0.7-49.5-6.4c-21.5-9.7-38.4-26.7-58.8-38.2c-11.7-6.5-25.9-9.8-38.9-5.5
	c-9.6,2.9-17.1,9.9-23.1,17.7c-5.7-6.4-5.8-15.4-6.6-23.4c0.3-4.6,1.9-9,3.4-13.4c4.5-12.5,11.3-24.1,19.1-34.9
	c-0.9,13.4-1.9,26.9-0.5,40.3c2.3-5.1,3.8-10.6,7-15.1c2.1-1,4.6-0.2,6.8-0.1c24.2,2.9,46.8,13.6,66.7,27.5
	c5.8,4.1,12.2,7.4,18.1,11.3c8.2,8.3,19.7,13.1,31.2,14.2c11.8,1.1,23.5-3.7,32-11.8c11.1-10.5,18-24.9,20.4-39.8
	c1.2-8.8,1.2-18.3-3.3-26.2c-2.5-4.5-7-7.9-12.1-9.1c-5.6-1.4-11.4-0.2-16.8,1.3c-20.5,5.8-41.9,8.9-63.2,9.6
	c-13.3,0.3-26.8,0-39.8-3.1c-12.1-2.9-24-9-31.5-19.3c-3.8-5-5.8-11.1-7.9-16.9c-0.1-1.5,0-3.1,0-4.6c-8.8,11.4-14.7,24.6-19.9,37.9
	c-0.6,1.2-1.1,2.3-1.8,3.5l-0.1-1.7c-0.7-11.5-3.2-22.9-3.7-34.4c-0.4-7.8-1.2-15.7,0.4-23.4c1.1-4.7,4.9-9.8,10.2-9.3
	c6.5,0.8,11.4,6.5,18,7c11.2,1.7,20.5-6.3,30.5-9.7c-1.2,6.2-3.2,12.3-4.5,18.5c5.3-4.3,10.2-9,15.3-13.6c1.6,1.2,4.3,2,4.4,4.4
	c1.5,12.4,2.3,25,3.9,37.4c6.4-9.7,10.4-20.8,16.3-30.8c2.5,0.7,5.4,1.2,7.1,3.4c5.6,6.1,11.1,12.3,16.7,18.3
	c4.2,4.3,7.8,9.3,12.7,13c4.2,4.2,7.6,9.3,11.7,13.6c-2.4-8.2-5.1-16.3-7.5-24.5c27.6-0.3,55,3.8,81.7,10.7
	c-20.4-10.6-41.2-20.6-62-30.4c-9-4.2-18-8.3-27.4-11.8c-0.4-1.5-1.5-3-0.9-4.5c1.5-1.6,3.9-1.1,5.8-1.4c19.7-0.9,39-5.1,58.2-9.4
	c-16.9,0.7-33.8,3.4-50.7,2.9c-2.5-1-5-2-7-3.7c-0.4-3.7,2.8-6.5,5.2-8.9c3.8-3.7,9.2-4.8,14.3-5.8c14.3-3,28.6-6,43-8.7
	C390.7,156.5,393.6,155.5,396.5,154.5z"/>
<path class="st2" d="M211.8,168.6c1.8-4.8,7.4-6,11.9-6.6c3.8-0.2,8.5-0.5,11.4,2.4c1.7,2.6-2,4.7-4,5.6
	C225,172.1,216.9,173.5,211.8,168.6z"/>
<path class="st2" d="M241.1,527.1c18.1-9.4,38.3-14.7,58.7-15.8c25.5-1.4,50.9,3.3,75.4,9.9c31,8.5,61.2,19.8,91.6,30.5
	c-86,0.2-172.1,0.1-258.1,0.1C217.5,541.3,228.8,533.1,241.1,527.1z"/>
<path class="st2" d="M311.3,796c92-0.1,184-0.1,276,0c-33.7,13.4-69.2,22.5-105.3,26.4C424,828.9,364.4,820.2,311.3,796z"/>
<g id="_x23_161616ff">
	<path class="st0" d="M388.7,64.4c48.1-7.8,97.6-5.3,145.2,4.9c48.8,10.6,95.7,30.2,137.3,57.8C654.9,135.7,638,143,621,150
		c-13.5-11.7-28.5-21.4-43.7-30.6c-15.7-9.3-31.8-17.6-48.5-24.5c-41-16.4-84.7-26.9-128.9-28.7C396.1,66.1,392.2,65.9,388.7,64.4z"
		/>
	<path class="st0" d="M675.8,136.9c17.8-10.1,34.5-21.9,50.6-34.4c-7.5,34.8-19.6,68.7-35.1,100.7c-18.2,37.3-42.1,72.2-72.9,100.2
		c34.3-2.8,67.5-13.8,98.2-28.9c29.4-14.7,56.3-34.2,80-57c-12.2,37.4-31.3,72.1-52.9,104.8c33-9.3,64.6-23.5,94.5-40.2
		c23.7-13.2,45.9-28.7,67.2-45.5c-32.1,52.9-75.3,99.9-128.3,132.4c-7.3,4.5-14.8,8.6-22.4,12.8c23.5,0.3,46.9-1.6,70.1-4.6
		c29.3-3.9,58.3-10.2,86.2-20c-7,9.1-15.5,17-23.9,24.8c-47.8,43.5-106.3,75.2-169,91c-11.8,3.1-23.7,5.2-35.6,7.4
		c41.7-0.9,83.3-5.6,124.3-13.5c31.3-6.1,62.1-14.4,92-25.6c-14,13.9-30.6,24.9-48,34.1c0.4,25.6-3.3,51.1-8,76.2
		c10.4,0.1,20.8-0.2,31.1,0.1c13.2,11.1,25.9,23,38.9,34.3c-18.6,70-37.4,139.9-56.1,209.8c-54.3,0-108.6,0-162.9,0
		c-1.3-0.1-2.6,0.2-3.6,1.1c-47.7,36.5-103.7,61.6-162.4,74c-35.5,7.5-72,9.3-108.1,6.4c-70.1-5-139.5-27-198.1-66.3
		c-7.2-4.6-13.9-10-20.9-14.9c-49.6-0.4-99.3,0-148.9-0.2C65.5,744.6,79.3,693.3,93,642c-22.1,0-44.1,0-66.2,0
		c8-30.1,16.1-60.1,24.1-90.2c11.1,0,22.3,0,33.4,0c-4.5-27.1,0.3-55.4,12.5-79.9c13-26.3,33-49.7,58.7-64.4
		c20.3-12.4,43.5-19.1,66.8-23.4c19.6-3.6,39.5-5.6,59.5-6.1c-7.9-10-16.5-19.7-26.5-27.7c-5.7-4.4-12.1-8.6-19.6-8.8
		c-9.1-0.8-19.5,1.1-25.3,8.8c-7,9.3-6.6,21.9-4.8,32.8c-6.5-7.3-12.4-15.2-17.8-23.4c-9.2-14.8-11.3-33.2-7.9-50
		c2.1-10.9,6.8-21,12.1-30.6c6.4-11.4,14.2-22.1,23.4-31.4c0.4,10.4,0.9,20.8,1.2,31.2c5.4-4.4,11.1-8.7,17.6-11.2
		c-0.5,4.7-1.3,12.1,4.3,14.1c10.8,2.1,21.2,5.7,31.3,9.9c5.6,2.4,12.4,2.7,17.8-0.6c-0.9,2.4-2.4,5.7-0.1,7.9
		c3.6,3.2,8.1,5,12.4,7.2c6.6-5.2,13-10.6,19.6-15.8c-2.7,7.2-5.5,14.3-8.2,21.5c5.4,2.8,12,5.2,18,2.4c7.1-3.4,9.5-12.5,7.8-19.7
		c-1.3-5.3-5.4-10.6-11.2-10.9c-6.5-0.4-12.5,2.9-17.7,6.4c-3.2,2-5.5,5.1-8.9,6.9c-0.3-3.7,0.5-7.5-0.7-11c-2-1.3-4.6-1-6.8-1.3
		c-5.1-0.8-9.6,2.3-13.5,5.2c-0.5-3.8-1.8-8.5-6-9.7c-12.6-4.1-24.8-9.6-35.8-17c-4.6-1.7-8.5,2.3-12,4.7c-3.2-10.7-6-21.5-8.8-32.3
		c-7.5,10.2-13.1,21.6-18.6,33c-9.2-13-14.8-28.2-19.8-43.2c-2.5-8.7-5.7-17.4-5.7-26.5c0.1-5.7,1.6-12.2,6.5-15.7
		c5.3-3.7,10.6-7.3,15.7-11.2c0.8-5.7,0.9-11.4,1.5-17.1c0.4-3.3,3.4-6.7,7-5.8c10.8,1.6,21.9,0.7,32.6-1.6
		c5.2-1.1,11.5-1.5,15.4,2.8c10.1,11.3,21.3,21.9,34.3,29.7c5.9,3.4,12.4,5.8,19.3,6.1c2.7,0.2,5.8-0.5,7.4-2.9
		c1.5-4.2-1.9-8.2-1.5-12.4c0.4-2.5,2.6-4,4.2-5.8c3.3-3.1,6.1-6.7,9.1-10.1c0.9-1.1,2.5-0.8,3.8-1.1c30.1-2.9,60.1-6.2,90-10.2
		c16.4-2.3,32.8-4.6,49.1-7.7c-9.9,10.1-19.8,20.1-29.6,30.2c47,10,95.9,13.6,143.5,5.6C613.6,166,646.1,154,675.8,136.9
		 M706.5,130.8l0.3,0.7c-4.5,2.4-8.1,6.1-12.4,8.9c-16.4,11.9-33.8,22.1-52,30.9c-2.1,1.1-4.4,1.8-6.2,3.5c0.2,1.9,0.7,3.8,1.2,5.6
		c-2.1-1.4-3.9-3.9-6.5-4.2c-5.4,1.3-10.7,3.3-16,5c-1.6,0.6-4.4,1.2-3.9,3.5c0.8,4,2.4,7.9,3.2,11.9c-2.9-3.6-5-7.9-8.5-11
		c-5-1.2-10,1.8-15,2.6c-2.4,1.1-6.1,0.6-7.4,3.3c1.6,5.4,3.1,10.8,4,16.4c-2.5-4.7-5-9.3-8.2-13.6c-1.2-1.8-3.5-2.1-5.4-1.7
		c-5.7,0.9-11.4,1.9-16.9,3.2c-1.3,0.3-3.5,1.2-2.8,2.9c1.4,6.1,3.2,12.2,4.5,18.4c-4.1-6.1-7.7-12.7-13.3-17.6
		c-2-1.8-4.8-1.4-7.2-1.2c-6.8,0.8-13.5,1.4-20.3,2c5.3,5.7,10.5,11.4,14.9,17.8c39.4,3.9,80-10.4,108.7-37.6
		c-2,7.2-4.6,14.3-6.9,21.4l-0.3,0.2c-5.5,15.7-12.6,30.9-21.4,45c13.4-12.1,25.6-25.5,37.8-38.9c22.7-25.7,43.9-52.8,61.8-82
		C710.3,127.8,708.4,129.3,706.5,130.8 M396.5,154.5c-2.3,0-4.5,0.2-6.8,0.6c-16.3,2.5-32.8,4.3-49,7.8c-4.5,1-9.3,1.9-13,4.8
		c-3,2.4-5.9,5-8,8.1c-1.2,1.7-1.8,4.5,0.2,5.8c3.6,2.4,8.1,2.4,12.3,2.4c17,0.5,33.8-2.2,50.7-2.9c-19.2,4.3-38.5,8.6-58.2,9.4
		c-1.9,0.3-4.4-0.2-5.8,1.4c-0.7,1.5,0.5,3.1,0.9,4.5c9.3,3.5,18.3,7.7,27.4,11.8c20.8,9.8,41.6,19.8,62,30.4
		c-26.7-6.9-54.1-11-81.7-10.7c2.4,8.2,5.1,16.3,7.5,24.5c-4.1-4.3-7.5-9.4-11.7-13.6c-0.7-1.2-1.4-2.4-2.2-3.5
		c-9.9-12.1-19.6-24.4-29.5-36.6c-2.6-0.5-5.2-0.9-7.8-1.3c-3.8,8.4-7.4,16.8-11.3,25.1c-0.7-10.2-1.2-20.4-1.9-30.7
		c-2.3-1.7-4.6-3.6-7-5c-3.6,2.1-6.4,5.4-9.8,7.9c1.3-5.3,2.6-10.6,4-15.9c-7.1-7-14-15.3-23.7-18.6c-7.7-1.8-16-0.1-22.9,3.5
		c-4.4,2.3-6,7.6-4.7,12.2c15.3,1.9,30.5,3.7,45.8,5.7c-9,5.5-19.5,10.9-30.3,9c-7.3-2.3-12.8-8-19.3-11.7
		c-9.5-0.9-18.1,7.5-19.2,16.7c-1.8,14.6-0.1,29.7,5.1,43.6c2.3,6.4,4.3,12.9,7.5,18.9l0.1,1.7c0.6-1.1,1.2-2.3,1.8-3.5
		c5.2-13.3,11.2-26.5,19.9-37.9c0,1.5-0.1,3.1,0,4.6c-0.3,7.1,1.7,14.2,5.6,20.2c4.7,7.1,11.9,12,19.4,15.6
		c13.4,6.2,28.3,8.3,42.9,9.3c19.9,1,39.9-0.8,59.4-4.8c6.3-1.3,13.5-0.6,18.5,3.9c5.6,5.1,7.3,13.1,7.5,20.4
		c0,10.2-2.5,20.4-7.7,29.2c-5.9,10-17.5,16.9-29.3,15.6c-9-0.6-17-4.9-25.2-8.2c-5.9-3.9-12.3-7.2-18.1-11.3
		c-19.8-13.8-42.5-24.5-66.7-27.5c-2.2,0-4.7-0.9-6.8,0.1c-3.3,4.6-4.7,10.1-7,15.1c-1.4-13.4-0.4-26.9,0.5-40.3
		c-7.9,10.7-14.6,22.3-19.1,34.9c-1.4,4.4-3.1,8.8-3.4,13.4c-1.4,3.5-1.5,7.2-1.8,10.9c-0.8,14.2,2.8,29,11.6,40.4
		c-0.3-5.1-0.7-10.4,0.9-15.3c2.6-9.3,10.2-16.8,19.3-19.8c11.1-3.8,23.4-2,33.9,2.7c13,6.4,23.6,16.4,35.2,24.8
		c19.4,14,43.8,20.9,67.7,18.3c12.2-1.3,24.5-4.1,35.4-9.9c1.8-0.6,3.5-1.4,5.2-2.1c-4.4,5.2-10,9.2-15.8,12.6
		c-13.8,7.8-29.2,12.3-44.7,15.4c-20.8,4-42,5-63.1,5.1c-35.7,0.5-72.3,7.7-102.8,27c-24,15-42.9,38.2-51.6,65.2
		c-6.9,21.7-8.3,45.5-2.6,67.6c2.4,0,4.7,0,7.1,0c2.2,0,4.4-0.1,6.5-0.2c6.9-14.7,16-28.3,26.8-40.4c18.8-21.2,43.7-36.6,70.5-45.5
		c19.7-6.5,40.4-10.2,61.1-11.3c27.4-1.3,54.6,4.3,80.6,12.8c34.3,11.3,67.2,26.5,101.2,38.6c43.9,16.1,90,26.8,136.7,29.1
		c12.6,0.6,25.4,1.2,38,0.2c8.8,0.3,17.6-0.6,26.4-1.1c27.6-2.1,55-6.4,82-12.3c10.2-2,20.1-5.1,30.3-6.9
		c-35.3,14.5-71.5,27.2-108.6,36.5c13.4,0.6,26.8,0.1,40.2,0.3c26,0,52,0,77.9,0c5.6-18.5,9.6-37.4,10.8-56.8
		c-48.4,14.7-99.3,19.3-149.7,19.3c-25.5-0.7-50.9-3.8-76-8c-79.9-13.7-157.7-41.2-227-83.5c1.5,0.5,3,1,4.5,1.3
		c6.2,3.6,13.2,5.6,19.9,8.3c62.9,23.4,128.9,38.1,195.7,44.8c18.1,1.5,36.2,3.4,54.4,3c-9.9-1.3-19.7-2.9-29.5-4.7
		c-38.1-7.3-76-17.2-111.2-33.6c-9.4-4.6-18.9-9.2-27.3-15.5c45.3,15.1,93,22.5,140.6,23.9c48.2,1.2,96.5-4.4,143-17.2
		c33-9,64.9-21.6,95.2-37.3c-3.8-0.1-7.4,1.1-11.1,1.7c-15,2.6-30.1,4.6-45.2,6.2c-96.2,9.7-194,3.2-288.2-18.7
		c50,2.4,101-4.5,148.1-22.6c33-12.8,64-32.1,88-58.3c-16.8,6-33.9,11.3-51.3,15.2l-0.1,0.2c-6.9,1.3-13.7,3-20.6,4.2
		c-31.8,6.1-64.2,8.5-96.5,8.3c-7-0.8-14.1-0.5-21.1-1.2c-3.4-0.2-6.8-1-10.1,0c-18.7,6.6-38.7,10.1-58.5,8.3
		c-4.9-0.4-9.6-1.8-14.5-2.3c-4.3-1.7-8.7-3-12.8-5.3c-14.6-7.4-25.6-20.6-31.7-35.6c2.3,3,3.9,6.5,6.8,9
		c6.7,8.9,16.6,14.9,26.8,18.8c18.5,6.6,38.8,5.3,57.5,0.8c19.8-4.6,38.4-14.1,54-27.2c24.6-20.4,41.4-48.6,53.3-77.9
		c-10.8,4.1-22.1,7.1-33.5,9.1c-8.5,2-17.3,3.2-26,3c-22.8-0.1-44.7-7.8-67.1-11c-12.1-1.8-25.3-1.2-35.9,5.7c-8.4,5-14,14-16,23.4
		c-4.2,15.4,2.6,33.1,15.9,41.9c6.9,4.9,15.9,6.8,24.1,4.3c9.7-2.8,18-11.2,19.5-21.4c1.4-9.7-4.9-20.3-14.6-22.7
		c-9.7-2.4-20.3,5.5-20.6,15.5c-0.5,5.6,2.7,10.5,6.4,14.3c-2,1.1-4-0.4-5.7-1.3c-7.1-4.6-10.1-13.7-8.5-21.8
		c2.2-12.1,13.4-21.4,25.5-22.4c14.2-1.5,27.9,7.9,33.8,20.6c5.5,11.4,4.5,25.6-2.5,36.2c-8.1,12.8-23.2,20.7-38.3,20.4
		c-9.2-0.1-18-3.3-25.9-7.9c-13.6-8.2-22.7-22.8-25.5-38.3c-1.4-7-0.2-14.2,1.2-21.1c3.1-7.3,6.7-14.5,12.1-20.4
		c10.4-12.2,26.2-19,42-19.4c14.6-0.7,28.6,3.7,42.7,6.8c-11.8-9.1-25.2-16.1-38.7-22.3c-24.4-10.8-50.5-18-77.1-20.3
		c-2.8-0.3-5.7-0.4-8.5-0.1c-1.5-0.3-3-0.3-4.5-0.4c10.4-3.4,21.4-4.3,32.3-5.4c1.4-0.1,2.5-1.2,3.6-1.9c6.1-4.7,12.4-9.2,18.5-13.9
		C423.6,150.4,410,152,396.5,154.5 M318.4,205.6c0.3,4.2,1.4,10,6.3,11c14.7,3.3,29.6,6.1,44.4,8.9
		C352.3,218.7,335.5,211.6,318.4,205.6 M241.1,527.1c-12.3,6-23.6,14.3-32.5,24.7c86,0,172.1,0.1,258.1-0.1
		c-30.3-10.7-60.5-22-91.6-30.5c-24.5-6.6-49.9-11.3-75.4-9.9C279.4,512.3,259.3,517.7,241.1,527.1 M51.3,623.3
		c22.1,0,44.2,0,66.3,0C103.8,674.6,90,725.9,76.3,777.2c20.5,0,40.9,0,61.4,0c13.8-51.3,27.6-102.6,41.3-153.9
		c18.4,0,36.9,0,55.3,0c3.2,28.5,6.3,57,9.5,85.5c0.2,1.3,0,2.7-0.3,4c-5.8,21.5-11.5,43-17.3,64.5c20.5,0,40.9,0,61.4,0
		c4.7-17.5,9.4-34.9,14-52.4c0.7-2.7,2.5-4.9,4-7.2c31.7-49,63.4-98,95.1-147c-19,0-38.1,0-57.1,0c-17.4,26.8-34.7,53.6-52,80.4
		c-3-26.8-6-53.6-8.9-80.4c-72.4,0-144.8,0-217.2,0C60.7,588.1,56,605.7,51.3,623.3 M359.2,755.2c8.3,7.4,16.5,14.7,24.8,22
		c52.3,0,104.6,0,156.9,0c-19.7-17.6-39.5-35.1-59.2-52.7c-17.6,0-35.2,0-52.8,0c13.7-51.3,27.5-102.6,41.2-153.9
		c-20.5,0-41,0-61.4,0C392.1,632.1,375.6,693.6,359.2,755.2 M505,725.5c19.4,17.1,38.6,34.4,58,51.4c6.9,0.6,13.8,0.1,20.7,0.2
		c24.4,0.1,48.8,0.1,73.2,0.1c16.5-61.5,33-123.1,49.4-184.6c-8.3-7.3-16.5-14.7-24.8-22c-45-0.1-90,0-135.1,0
		C532.7,622.2,518.9,673.8,505,725.5 M731.8,570.5c-16.5,61.5-33,123.1-49.5,184.6c8.3,7.4,16.6,14.8,25,22.1c45-0.1,89.9,0,134.9,0
		c16.4-61.6,33.1-123.2,49.4-184.8c-8.4-7.2-16.5-14.6-24.8-21.9C821.8,570.5,776.8,570.5,731.8,570.5 M311.3,796
		c53.1,24.2,112.7,32.9,170.6,26.4c36.1-3.9,71.6-13,105.3-26.4C495.3,795.9,403.3,795.9,311.3,796z"/>
	<path class="st0" d="M722.7,169.5c18.3,15.4,33.5,33.9,47.7,53.1c-17.5,14.3-36.2,27.3-55.8,38.6c-5.9-9.9-11.8-19.8-18.6-29.2
		C707.8,212.5,716,191.1,722.7,169.5z"/>
	<path class="st0" d="M794.2,258.5c4.3,7,8,14.3,12,21.4c-8.2,4-17,6.1-25.7,8.8C786.2,279.2,790.6,269,794.2,258.5z"/>
	<path class="st0" d="M593.8,623.3c14.3,0,28.6,0,42.9,0c-9,33.7-18.1,67.5-27.1,101.2c-14.3,0-28.6,0-42.8,0
		C575.7,690.7,584.8,657,593.8,623.3z"/>
	<path class="st0" d="M779.8,623.3c14.1,0,28.2,0,42.3,0c-9,33.4-17.9,66.8-26.9,100.2c-0.2,1.6-2.3,0.7-3.3,1
		c-13.3-0.1-26.6,0-39.8,0C761.3,690.8,770.5,657,779.8,623.3z"/>
</g>
<g id="_x23_a3242eff">
	<path class="st1" d="M706.5,130.8c1.9-1.5,3.8-3,5.8-4.5c-17.9,29.2-39.2,56.3-61.8,82c-12.1,13.4-24.3,26.8-37.8,38.9
		c8.8-14.1,15.9-29.3,21.4-45l0.3-0.2c2.9-1.6,5.5-3.5,8-5.7c22.6-19,43.3-40.2,63.1-62c0.7-0.8,1.1-1.9,1.4-2.9L706.5,130.8z"/>
	<path class="st1" d="M340.8,162.9c16.2-3.5,32.6-5.3,49-7.8c2.2-0.4,4.5-0.5,6.8-0.6c-2.9,1-5.8,2-8.8,2.5
		c-14.4,2.8-28.7,5.8-43,8.7c-5,1-10.4,2.1-14.3,5.8c-2.4,2.3-5.6,5.2-5.2,8.9c2,1.7,4.6,2.7,7,3.7c-4.2-0.1-8.7-0.1-12.3-2.4
		c-2-1.4-1.4-4.1-0.2-5.8c2.1-3.1,5-5.8,8-8.1C331.5,164.8,336.3,163.8,340.8,162.9z"/>
	<path class="st1" d="M211.1,164c6.9-3.6,15.3-5.3,22.9-3.5c9.8,3.3,16.6,11.6,23.7,18.6c-1.3,5.3-2.7,10.6-4,15.9
		c3.3-2.5,6.2-5.8,9.8-7.9c2.5,1.5,4.7,3.3,7,5c0.7,10.2,1.3,20.4,1.9,30.7c3.9-8.3,7.5-16.8,11.3-25.1c2.6,0.4,5.2,0.8,7.8,1.3
		c9.8,12.2,19.6,24.4,29.5,36.6c0.9,1.1,1.5,2.3,2.2,3.5c-4.9-3.7-8.5-8.6-12.7-13c-5.7-6-11.2-12.2-16.7-18.3
		c-1.8-2.2-4.6-2.7-7.1-3.4c-5.9,10-9.9,21.1-16.3,30.8c-1.6-12.4-2.4-24.9-3.9-37.4c-0.1-2.4-2.8-3.2-4.4-4.4
		c-5.1,4.6-10,9.3-15.3,13.6c1.3-6.2,3.3-12.3,4.5-18.5c-10.1,3.4-19.3,11.4-30.5,9.7c-6.7-0.6-11.5-6.2-18-7
		c-5.4-0.5-9.1,4.6-10.2,9.3c-1.6,7.7-0.8,15.7-0.4,23.4c0.6,11.6,3.1,22.9,3.7,34.4c-3.1-6-5.1-12.5-7.5-18.9
		c-5.1-13.8-6.9-28.9-5.1-43.6c1.1-9.2,9.7-17.6,19.2-16.7c6.5,3.7,12,9.4,19.3,11.7c10.9,1.9,21.3-3.5,30.3-9
		c-15.3-2-30.5-3.7-45.8-5.7C205,171.6,206.7,166.3,211.1,164 M211.8,168.6c5.1,4.9,13.2,3.6,19.3,1.4c2-0.9,5.7-3,4-5.6
		c-2.9-2.9-7.6-2.7-11.4-2.4C219.2,162.6,213.6,163.8,211.8,168.6z"/>
	<path class="st1" d="M387.2,169.4c2.8-0.3,5.7-0.2,8.5,0.1c26.6,2.3,52.7,9.5,77.1,20.3c13.6,6.2,26.9,13.2,38.7,22.3
		c-14.1-3.1-28.1-7.4-42.7-6.8c-15.9,0.4-31.7,7.3-42,19.4c-5.4,5.9-9,13.1-12.1,20.4c1.3-23.6,20.7-44.8,44.2-47.8
		c-15.7-9.9-33.2-16.6-50.9-21.9C401.1,173.3,393.9,172.1,387.2,169.4z"/>
	<path class="st1" d="M574.8,228c11.4-2,22.6-5,33.5-9.1c-11.9,29.3-28.7,57.5-53.3,77.9c-15.6,13.1-34.2,22.6-54,27.2
		c-18.8,4.5-39.1,5.8-57.5-0.8c-10.3-3.8-20.2-9.9-26.8-18.8c6.3,2.8,12.4,6.3,18.9,8.6c11.6,4.4,24,6.5,36.4,6.1
		c18.8-0.4,37.1-6.8,53.3-16.2c4.7-2.8,9.6-5.5,13.5-9.5c-12.8,4.7-25.5,10.1-39.2,11.4c4.7-2.8,9.8-4.5,14.6-7
		c12.4-6.3,24.2-14,33.9-24.1c8.6-9,15.3-20.2,17.2-32.7c-20.9,2-41.1-4.7-61-10.4c-14.9-4.1-31-8-46.2-3.1
		c-11.6,3.4-20.4,12.3-27.8,21.5c2-9.4,7.6-18.4,16-23.4c10.5-6.8,23.8-7.4,35.9-5.7c22.4,3.2,44.3,10.9,67.1,11
		C557.5,231.2,566.3,230,574.8,228z"/>
	<path class="st1" d="M217.5,223.3c2.2,5.8,4.1,11.9,7.9,16.9c7.5,10.3,19.4,16.4,31.5,19.3c13,3,26.5,3.4,39.8,3.1
		c21.3-0.7,42.6-3.7,63.2-9.6c5.4-1.5,11.2-2.6,16.8-1.3c5.1,1.1,9.5,4.5,12.1,9.1c4.5,7.9,4.5,17.4,3.3,26.2
		c-2.3,14.9-9.3,29.3-20.3,39.8c-8.5,8-20.2,12.9-32,11.8c-11.6-1.1-23-5.9-31.2-14.2c8.2,3.3,16.2,7.6,25.2,8.2
		c11.8,1.3,23.4-5.6,29.3-15.6c5.2-8.8,7.8-19,7.7-29.2c-0.2-7.3-1.9-15.2-7.5-20.4c-4.9-4.5-12.2-5.2-18.5-3.9
		c-19.5,4-39.5,5.8-59.4,4.8c-14.6-0.9-29.5-3.1-42.9-9.3c-7.6-3.6-14.8-8.5-19.4-15.6C219.3,237.5,217.3,230.3,217.5,223.3z"/>
	<path class="st1" d="M675.6,318.9c17.4-3.9,34.5-9.2,51.3-15.2c-24,26.2-55,45.5-88,58.3c-47.1,18-98.1,24.9-148.4,23.1
		c94.2,21.9,192,28.4,288.2,18.7c15.1-1.6,30.2-3.6,45.2-6.2c3.7-0.6,7.3-1.8,11.1-1.7c-30.3,15.7-62.3,28.3-95.2,37.3
		c-46.5,12.7-94.8,18.3-143,17.2c-47.7-1.4-95.3-8.8-140.6-23.9c8.4,6.3,17.9,10.9,27.3,15.5c35.2,16.4,73.1,26.3,111.2,33.6
		c9.8,1.8,19.6,3.4,29.5,4.7c-18.2,0.3-36.3-1.5-54.4-3c-66.7-6.7-132.8-21.5-195.7-44.8c-6.7-2.7-13.6-4.7-19.9-8.3
		c4.4,0.7,8.7,1.9,12.9,3.1c17.1,4.6,34.3,8.9,51.7,12.6c14.1,2.9,28.1,6.1,42.4,7.7c-5.5-2.8-11.3-4.9-16.8-7.5
		c-28.1-12.5-53.8-29.9-76.7-50.3c79.4,25.8,162.6,40.7,246.1,40.9c42.7,0.1,85.5-3.3,127.3-11.7c-6.4-0.7-12.9,0.1-19.3,0.1
		c-64.3,1.2-128.6-6.4-191.4-20c-21.8-5-43.7-10.1-64.9-17.2c1.7-0.4,3.5-0.8,5.2-1c41.7-2.8,83.5-8.2,123.5-20.8
		c28-8.8,54.8-21.4,78.9-38c1.1-0.7,1.9-1.8,2.4-3L675.6,318.9z"/>
	<path class="st1" d="M186.2,319.8c0.3-3.7,0.4-7.4,1.8-10.9c0.8,8.1,0.9,17,6.6,23.4c5.9-7.8,13.5-14.8,23.1-17.7
		c13-4.3,27.2-0.9,38.9,5.5c20.4,11.5,37.4,28.5,58.8,38.2c15.4,7.1,32.8,8,49.5,6.4c8.5-0.7,16.8-2.8,25.3-3.6
		c-10.9,5.7-23.2,8.5-35.4,9.9c-23.8,2.6-48.3-4.4-67.7-18.3c-11.6-8.4-22.2-18.5-35.2-24.8c-10.5-4.8-22.9-6.5-33.9-2.7
		c-9.1,3.1-16.6,10.6-19.3,19.8c-1.6,4.9-1.2,10.2-0.9,15.3C189,348.7,185.3,334,186.2,319.8z"/>
	<path class="st1" d="M527.2,330.4c3.3-1,6.8-0.1,10.1,0c7,0.7,14.1,0.4,21.1,1.2c-6.7,3-13.8,4.8-20.9,6.6
		c-21.1,5.1-43.2,7.3-64.6,3.6c-6.3-1.2-12.8-2.4-18.6-5.5c4.8,0.5,9.6,1.9,14.5,2.3C488.5,340.6,508.6,337.1,527.2,330.4z"/>
	<path class="st1" d="M210.4,446.4c27.6-9.7,57.3-13.2,86.4-9.7c36.4,4.2,70.9,17.6,104.6,31.5c34.1,14.1,67.9,28.7,103,40
		c39.3,12.8,80.1,21.7,121.4,24.9c5.8,0.5,11.8,0.2,17.5,2c-12.6,1-25.4,0.4-38-0.2c-46.8-2.4-92.8-13-136.7-29.1
		c-34-12.1-66.9-27.3-101.2-38.6c-25.9-8.5-53.2-14-80.6-12.8c-20.7,1-41.4,4.7-61.1,11.3c-26.8,8.9-51.7,24.3-70.5,45.5
		c-10.8,12.1-19.9,25.8-26.8,40.4c-2.2,0.1-4.4,0.1-6.5,0.2c4.1-26.5,15.3-52.4,34.1-71.8C171,464.4,190.1,453.4,210.4,446.4z"/>
</g>
<g id="_x23_ffffffff">
	<path class="st3" d="M318.4,205.6c17.1,6.1,33.9,13.1,50.7,20c-14.8-2.8-29.7-5.6-44.4-8.9C319.8,215.5,318.7,209.8,318.4,205.6z"
		/>
	<path class="st3" d="M51.3,623.3c4.7-17.6,9.4-35.2,14.1-52.8c72.4,0,144.8,0,217.2,0c3,26.8,6,53.6,8.9,80.4
		c17.3-26.8,34.7-53.6,52-80.4c19,0,38.1,0,57.1,0c-31.7,49-63.4,98-95.1,147c-1.5,2.3-3.3,4.5-4,7.2c-4.7,17.5-9.4,34.9-14,52.4
		c-20.5,0-41,0-61.4,0c5.8-21.5,11.5-43,17.3-64.5c0.4-1.3,0.5-2.6,0.3-4c-3.2-28.5-6.3-57-9.5-85.5c-18.4,0-36.9,0-55.3,0
		c-13.7,51.3-27.5,102.6-41.3,153.9c-20.5,0-40.9,0-61.4,0c13.7-51.3,27.5-102.6,41.2-153.9C95.4,623.3,73.4,623.3,51.3,623.3
		 M267.4,576.6c3.8,35.8,7.9,71.6,11.9,107.4c2.7-5.8,4.5-12,6.8-18c1.5-3.3,0.5-6.8,0.2-10.2c-2.9-26.4-5.9-52.7-8.8-79.1
		C274.2,576.7,270.8,576.6,267.4,576.6 M287.6,712.6c-1.9,2.9-2.4,6.5-3.3,9.8c-3.2,12.1-6.4,24.2-9.6,36.3c-8,0.1-16-0.1-24,0.1
		c-1.9-0.2-3.4,1.2-4.8,2.3c-3.3,2.6-6.6,5-9.8,7.7c15.5,0.1,31,0.1,46.5,0c3.7-14.3,7.5-28.6,11.3-43c0.8-3,1.3-6.2,3.1-8.8
		c30.3-46.7,60.5-93.4,90.8-140.2c-4-0.1-8-0.2-11.9-0.1C346.3,621.9,317,667.3,287.6,712.6 M75.1,605.1c-3.8,3.1-7.4,6.4-10.7,10.1
		c20.5,0.3,40.9,0.2,61.4,0c4.9-2.6,8.9-6.9,13.3-10.4c-19.1-0.1-38.2,0-57.3-0.1C79.6,604.8,77.3,604.6,75.1,605.1 M166.2,604.9
		c-13.7,51.3-27.6,102.6-41.4,153.8c-8.6,0.2-17.2-0.4-25.8,0.3c-4.5,2.9-8.6,6.4-12.8,9.8c15.4,0.1,30.9,0.1,46.3,0
		c13.7-51.3,27.6-102.6,41.4-153.8c22.3-0.1,44.7-0.1,67,0c2.1-3.3,4-6.7,5.9-10.1C220.1,604.8,193.1,604.7,166.2,604.9z"/>
	<path class="st3" d="M359.2,755.2c16.5-61.5,33-123.1,49.4-184.6c20.5,0,41,0,61.4,0c-13.7,51.3-27.4,102.6-41.2,153.9
		c17.6,0,35.2,0,52.8,0c19.7,17.6,39.5,35.1,59.2,52.7c-52.3,0-104.6,0-156.9,0C375.7,769.9,367.4,762.5,359.2,755.2 M451.8,576.7
		c-9.8,36.5-19.6,73-29.5,109.5c-4.9,18.5-10.2,37-14.8,55.6c3.9-2.8,7.7-5.8,11.5-8.7c1.1-0.7,1.6-1.9,1.9-3.1
		c13.6-51.1,27.4-102.1,41-153.2C458.6,576.6,455.2,576.6,451.8,576.7 M379,758.8c3.5,3.1,7.1,5.9,10.8,8.8c1.3,1.3,3.3,1.1,5,1.1
		c40.3-0.1,80.6,0.1,120.9-0.1c-3.6-3-7.3-6-11-8.8c-1.3-1.2-3.2-1.2-4.8-1.2C459.6,758.9,419.3,758.6,379,758.8z"/>
	<path class="st3" d="M505,725.5c13.8-51.6,27.7-103.3,41.5-154.9c45,0,90,0,135.1,0c8.2,7.4,16.5,14.7,24.8,22
		c-16.5,61.5-33,123.1-49.4,184.6c-24.4-0.1-48.8,0-73.2-0.1c-6.9-0.2-13.9,0.3-20.7-0.2C543.6,759.9,524.4,742.6,505,725.5
		 M663,576.7c7.4,7,15.2,13.7,22.9,20.4c-4.7,19-10.1,37.8-15,56.7c-9.4,34.9-18.7,69.9-28.1,104.8c-29.1,0.2-58.2-0.2-87.2,0.1
		c3.8,3.3,7.7,6.7,11.8,9.6c2.5,0.6,5.1,0.3,7.6,0.3c25.2-0.1,50.5,0.2,75.7,0c15.4-58.3,31.3-116.5,46.7-174.9
		c-6.6-5.5-12.7-11.7-19.5-17C672.8,576.4,667.9,576.7,663,576.7 M579.9,611.7c-10.8,41-22.1,81.8-32.7,122.9
		c4.2-2.5,8.3-5.3,12.4-8c9.8-36.7,19.7-73.3,29.5-110c19-0.3,37.9,0,56.9-0.2c1.5,0.1,2.6-1.1,3.7-1.8c3.3-2.7,6.9-5.1,10-8.1
		c-26-0.3-52.1,0.1-78.1-0.2C581,608.1,580.3,609.9,579.9,611.7 M593.8,623.3c-9,33.7-18.1,67.5-27.1,101.2c14.3,0,28.6,0,42.8,0
		c9-33.7,18.1-67.5,27.1-101.2C622.4,623.3,608.1,623.3,593.8,623.3z"/>
	<path class="st3" d="M731.8,570.5c45,0,90,0,135,0c8.3,7.3,16.4,14.7,24.8,21.9c-16.2,61.7-33,123.2-49.4,184.8
		c-45,0-89.9-0.1-134.9,0c-8.4-7.3-16.7-14.7-25-22.1C698.9,693.6,715.4,632.1,731.8,570.5 M850.3,576.8c7,6.8,14.6,13,21.7,19.7
		c1.3,0.9,0.5,2.5,0.3,3.7C858,653,844,705.9,829.8,758.6c-43.1,0.2-86.2-0.2-129.3,0.1c4.1,3.3,7.8,7.3,12.4,9.8
		c41.6,0.3,83.2,0.2,124.7,0.2c15.5-58.3,31.3-116.5,46.7-174.9c-6.6-5.6-12.7-11.7-19.5-17C860,576.4,855.1,576.8,850.3,576.8
		 M731.2,734.6c4.2-2.5,8.3-5.3,12.4-8c9.8-36.7,19.8-73.3,29.5-110c19.2-0.5,38.5,0.1,57.7-0.3c4.7-2.6,8.9-6.4,13.1-9.8
		c-26.1-0.3-52.2,0-78.3-0.1C753.9,649.1,742.4,691.8,731.2,734.6 M779.8,623.3c-9.3,33.7-18.5,67.5-27.7,101.2
		c13.3,0,26.6,0,39.8,0c1-0.3,3.1,0.6,3.3-1c9-33.4,17.9-66.8,26.9-100.2C807.9,623.3,793.8,623.3,779.8,623.3z"/>
</g>
<g id="_x23_c8c8c8ff">
	<path class="st4" d="M267.4,576.6c3.4,0,6.8,0,10.1,0.2c2.9,26.4,5.8,52.7,8.8,79.1c0.3,3.4,1.3,7-0.2,10.2c-2.3,6-4.1,12.2-6.8,18
		C275.3,648.2,271.3,612.4,267.4,576.6z"/>
	<path class="st4" d="M287.6,712.6c29.4-45.3,58.7-90.7,88.1-136c4,0,8,0,11.9,0.1c-30.3,46.7-60.5,93.5-90.8,140.2
		c-1.7,2.7-2.3,5.8-3.1,8.8c-3.7,14.3-7.6,28.6-11.3,43c-15.5,0.1-31,0.1-46.5,0c3.2-2.7,6.5-5.1,9.8-7.7c1.4-1.1,2.9-2.5,4.8-2.3
		c8-0.1,16,0.1,24-0.1c3.2-12.1,6.4-24.2,9.6-36.3C285.2,719.1,285.7,715.6,287.6,712.6z"/>
	<path class="st4" d="M451.8,576.7c3.4,0,6.8,0,10.2,0c-13.6,51.1-27.4,102.1-41,153.2c-0.3,1.2-0.8,2.4-1.9,3.1
		c-3.8,3-7.6,5.9-11.5,8.7c4.5-18.6,9.9-37,14.8-55.6C432.2,649.7,442,613.2,451.8,576.7z"/>
	<path class="st4" d="M663,576.7c4.9,0,9.9-0.3,14.8,0.1c6.8,5.3,12.9,11.4,19.5,17c-15.3,58.4-31.2,116.6-46.7,174.9
		c-25.2,0.2-50.5-0.1-75.7,0c-2.5-0.1-5.1,0.3-7.6-0.3c-4.1-3-7.9-6.3-11.8-9.6c29.1-0.3,58.2,0.1,87.2-0.1
		c9.4-34.9,18.7-69.9,28.1-104.8c5-18.9,10.3-37.7,15-56.7C678.1,590.4,670.4,583.7,663,576.7z"/>
	<path class="st4" d="M850.3,576.8c4.8,0,9.7-0.4,14.5,0c6.8,5.3,12.9,11.4,19.5,17c-15.4,58.3-31.2,116.6-46.7,174.9
		c-41.6,0.1-83.2,0.1-124.7-0.2c-4.6-2.5-8.3-6.5-12.4-9.8c43.1-0.3,86.2,0.1,129.3-0.1c14.2-52.8,28.3-105.7,42.5-158.4
		c0.2-1.2,1-2.8-0.3-3.7C864.9,589.8,857.4,583.6,850.3,576.8z"/>
	<path class="st4" d="M75.1,605.1c2.2-0.5,4.5-0.3,6.7-0.3c19.1,0.1,38.2,0,57.3,0.1c-4.4,3.4-8.3,7.8-13.3,10.4
		c-20.5,0.2-40.9,0.2-61.4,0C67.7,611.5,71.4,608.2,75.1,605.1z"/>
	<path class="st4" d="M166.2,604.9c26.9-0.2,53.8-0.1,80.8-0.1c-1.9,3.4-3.8,6.8-5.9,10.1c-22.3-0.1-44.7-0.1-67,0
		c-13.8,51.3-27.7,102.5-41.4,153.8c-15.5,0.1-30.9,0.1-46.3,0c4.2-3.4,8.3-6.8,12.8-9.8c8.5-0.6,17.2,0,25.8-0.3
		C138.7,707.4,152.5,656.2,166.2,604.9z"/>
	<path class="st4" d="M579.9,611.7c0.5-1.8,1.1-3.6,1.7-5.4c26,0.3,52.1-0.1,78.1,0.2c-3.2,2.9-6.7,5.4-10,8.1
		c-1.1,0.8-2.3,1.9-3.7,1.8c-19,0.2-37.9-0.2-56.9,0.2c-9.7,36.7-19.7,73.3-29.5,110c-4.1,2.8-8.2,5.5-12.4,8
		C557.8,693.6,569.1,652.7,579.9,611.7z"/>
	<path class="st4" d="M731.2,734.6c11.2-42.8,22.7-85.5,34.3-128.2c26.1,0.1,52.2-0.1,78.3,0.1c-4.2,3.4-8.3,7.3-13.1,9.8
		c-19.2,0.4-38.5-0.2-57.7,0.3c-9.7,36.7-19.6,73.3-29.5,110C739.5,729.3,735.4,732.1,731.2,734.6z"/>
	<path class="st4" d="M379,758.8c40.3-0.3,80.6,0,120.9-0.1c1.7,0,3.5,0,4.8,1.2c3.7,2.9,7.4,5.8,11,8.8c-40.3,0.2-80.6,0-120.9,0.1
		c-1.7-0.1-3.7,0.2-5-1.1C386.1,764.8,382.5,761.9,379,758.8z"/>
</g>
</svg>
