<?xml version="1.0" encoding="utf-8"?>
<!-- Generator: Adobe Illustrator 22.0.1, SVG Export Plug-In . SVG Version: 6.00 Build 0)  -->
<svg version="1.1" id="Layer_1" xmlns="http://www.w3.org/2000/svg" xmlns:xlink="http://www.w3.org/1999/xlink" x="0px" y="0px"
	 viewBox="0 0 1245 1245" style="enable-background:new 0 0 1245 1245;" xml:space="preserve">
<style type="text/css">
	.st0{fill:#1F2129;}
	.st1{fill:#FFFFFF;}
	.st2{fill:#172554;}
	.st3{fill:#0083E8;}
</style>
<g id="_x23_1f2129ff">
	<path class="st0" d="M801.1,18.1C835.6,4.2,873.3-1.6,910.3,1.8c-4.3,10.1-9.1,20.1-15.1,29.4c-19.1,30.1-41.9,58-58.2,89.9
		c-8.5,16.6-15.2,34.6-15.8,53.4c109.3,17.8,215.9,50.9,316.5,97c0.1,17.1-0.4,34.1-1,51.2c12.5-6.6,24.9-13.2,36.9-20.7
		c-1,4.6-2.1,9.3-3.1,13.9c-2.2,9.7-6.8,18.6-11.7,27.1c-7.2,12.6-16.3,24.1-25.2,35.5c-1.9,16.8-3.2,33.7-5.4,50.5
		c-7.6,61.8-19.8,123.1-37.3,182.9c7.4,8.2,13.5,17.7,16.7,28.4c5.8,19,5.8,39.1,6.4,58.8c-14.5-7.9-29.2-15.5-44.2-22.4
		c-26.6,72.4-60.8,142.1-102.7,206.9c7,0.7,14.1,0.9,21.1,1.8c9.7,1.4,18.7,5.9,25.9,12.4c5.4,5.5,9.4,12.1,12.3,19.2
		c5.4-9.8,13.9-18.2,24.6-22c7.4-2.8,15.4-2.8,23.2-1.8c9.7,1.4,19.9,1.2,29.1,5.2c8.3,3.4,15.4,9.4,21,16.4c2.3-6,7-11.6,13.5-13.1
		c9-2.4,18.2,2.5,24,9.3c5.8,8.5,11.3,17.1,17.1,25.6c0.2-5.9-0.1-11.9,0.1-17.8c0.1-4.8,3.5-9.4,8.1-10.9c3.9-1.4,8-0.3,11.9,0.1
		c5.2,0.8,10.5,1,15.6,2.2c4,0.8,6.1,4.6,9.3,6.7v98.6c-1.3,6.4-2.1,13.5-7.2,18.2c-3.3,2.7-7.2,6-11.9,5.2
		c-8.6,0.1-16.4-4.9-21.3-11.7c-5.6-8-10.9-16.2-16.5-24.2c-0.1,5.9,0.1,11.9-0.1,17.8c-0.1,4.9-3.5,9.6-8.1,11.2
		c-3.9,1.4-8,0.3-12,0c-5.1-0.7-10.2-0.8-15.3-1.8c-3.8-0.8-6.1-4.2-9-6.5c-0.1-3.7-0.1-7.3-0.1-10.9c-4.7,4.5-9.9,8.7-16.1,11
		c-7.6,3.1-16.1,3.1-24.1,2.1c-8.8-1.1-18-0.8-26.5-4c-7-2.5-13.2-6.9-18.3-12.2c-0.6,5.3-4.6,8.7-8.4,11.8
		c-11.1-1.1-22.2-1.8-33.3-2.7c-3.8-0.2-7.5-2.1-9.6-5.2c-5.6-7.8-10.7-16-16.3-23.8c-2.7-0.1-5.5-0.3-8.2-0.5
		c-0.1,4.9,0.1,9.8-0.1,14.6c-0.1,4.5-3,8.9-7.1,10.7c-3.7,1.8-7.8,0.9-11.7,0.7c-5.4-0.5-10.8-0.4-16.1-1.3
		c-4.1-0.7-6.5-4.3-9.5-6.8c0-2.5,0-4.9,0-7.4c-5.8,5.2-12.7,9.6-20.4,11.3c-8.2,2.1-16.7,0.4-24.9,0.5c-2,0.9-3.1,3-4.6,4.6
		c-25.2,29-51.7,56.9-79.3,83.7c-52.5,51.2-108.8,98.4-166.2,144c-27.2-21.7-54.2-43.7-80.7-66.3
		c-59.2-50.6-115.7-104.6-166.6-163.5c-0.6-0.9-1.5-1.3-2.6-1.3c-40.7,1.7-81.3,4.6-122,7c-13.3,0.5-26-6.4-34.2-16.6
		c-3.4,6.9-5.3,14.9-11.4,20.1c-20.5,1.5-40.9,3.4-61.3,5.1c-5.6,0.8-10.3-3.2-13.4-7.4c-0.3-18.2,0-36.5-0.1-54.7
		c-7.9,17-14.7,34.5-22.4,51.5c-2.7,5.6-6.2,11.2-11.6,14.5c-5.3,3.4-12.4,3.8-17.9,0.8c-5.6-2.9-9.4-8.4-12.2-13.9
		c-14.3-30.1-28.2-60.4-42.5-90.6c-1.3-2.8-2.4-5.9-1.7-9c0.9-5.2,5.4-9.4,10.6-10c7.7-1.1,15.4-1.9,23.1-2.9
		c3.5-0.5,7.2-0.2,10.1,1.9c3.2,2.1,4.6,5.8,6.1,9.1c5,10.8,10,21.6,15,32.5c6-14.4,12-28.8,18.1-43.2c1.7-4.2,5.8-7.1,10.3-7.5
		c31.8-3.5,63.6-6.9,95.4-9.8c5.7-0.8,11,2.9,13.3,8.1c7.2-6.3,16.2-10.6,25.8-11.6c9.3-0.9,18.6-1.5,28-2.2
		c-35.1-54.7-65.4-112.5-89.5-172.9c-27.1-1.8-54-5.5-80.6-11c-17.9-3.9-35.8-8.2-52.5-15.7c-8.8-4-18-9.7-21-19.5
		c12.8-12.7,27.8-22.8,41.8-34c22.4-19.4,44.7-38.8,67-58.2c-18.4-73.3-29.4-148.4-33.9-223.8c-1.4-25.9-2.6-51.9-2.2-77.8
		c28.3-12.6,56.8-24.8,85.8-35.5c130-48.6,268.3-75,407.1-76.8c4.2,0.3,7.8-1.9,11.5-3.4c10.1-4.1,20.5-7.5,30.9-10.3
		c-0.5,3-0.9,6.1-1.3,9.1c21.4-29.2,45.1-56.8,72.5-80.6C739,50.7,768.6,31.1,801.1,18.1 M781.1,42c-29.6,15.7-56,36.7-79.6,60.4
		c-27.4,27.5-51,58.6-71.6,91.4c-8.2,12.7-15.2,26.1-22.8,39.2c-5.3,6.2-11.4,11.7-17.3,17.5c2.8-10.6,4.1-21.7,9.2-31.5
		c8.3-17.9,17-35.6,24.3-53.9c-39.8,14.3-75,39.7-104,70.2c-27.7,28.9-50.4,62.4-69.2,97.7c-2.5,4.4-4.6,9.2-7.7,13.3
		c-33.8,13.8-63.6,35.5-92.1,57.9c-58.4,46.9-111.8,99.6-167.1,149.9c-30.3,27.8-61.8,54.3-92.7,81.4c-12.6,11.4-27,20.6-39.8,31.8
		c7.1,5,15.3,8,23.4,10.8c17.9,5.9,36.4,9.8,55,13c24.5,4,49.2,7.4,74.1,7c50.5,2.2,101-5,150.2-15.8c49.9-11,98.8-25.7,147.2-41.8
		c14.2-4.9,28.7-9.3,42.3-15.6c17.7-8,35.3-16.2,52-26c5.4-3.4,11.5-6.4,14.6-12.3c5-8.9,4.9-19.6,4.3-29.5
		c-1.2-13.6-3.5-27.1-5.3-40.7c5.3,5.1,10.9,9.9,16.1,15.1c10.4,11.3,14.2,27.1,14.6,42.2c2.3-0.9,4.6-2,6.9-3
		c-3-21.7-6.5-43.3-9.7-64.9c6.2,6.8,12.8,13.3,18.6,20.5c6.8,8.6,10.3,19.2,13,29.7c2.2-1.2,4.5-2.3,6.8-3.4
		c-1.2-6.3-2.9-12.5-4.4-18.8c-2.9-11.4-4.6-23-6.7-34.6c5.1,4.7,10,9.6,14.9,14.3c7.5,7.2,13.4,15.9,18.6,24.9
		c5.9-4.1,10.9-9.4,17-13.1c3.9-2.2,8.3-3.2,12.7-4.4c21-4.9,42.5-7.8,63.8-11.4c41.5-7.3,82.1-18.7,123-28.8
		c18.3-4.6,36.8-8.1,55.3-12c0.3,2.2,0.2,4.5-1.3,6.2c-17.7,9-35.7,17.3-53.3,26.3c-57.9,28.8-114.7,60.3-167.4,97.9
		c-33.6,24.1-65.7,50.8-92.8,82.1c-21.3,24.7-39.6,52.8-48.8,84.3c-6.3,21.6-7.5,44.7-3,66.7c20.3-18.3,38.2-38.9,57.2-58.5
		c24.9-26.4,50.9-52,79.7-74.2c26.3-20.3,55.1-37.8,86.1-50c32.8-13,68.1-19.7,103.4-19.5c59.9,0.2,118.2,19.4,171,46.5
		c-1.1-15.8-2.6-32.5-11.4-46.1c-6.9-10.5-16.7-18.7-25.4-27.7c-11.4-11-21.7-23.1-31.2-35.7c-11-18-19.6-38.5-19.4-60
		c0.1-17,6.5-33.4,16.3-47.1c13.6-19.2,32-34.1,49.8-49.2c16.1-13.5,32.4-26.9,46.2-42.8c9.7-11.7,18.7-24.1,25.8-37.6
		c-26.7,14.5-53.9,28.8-77.9,47.7c11.2-2.4,22-6.5,32.1-12c5.9-3,11.4-7,17.8-8.8c-14.9,16.6-30.4,32.8-48,46.6
		c-24.9,19.9-53.4,35.2-83.5,45.5c-7.8,2.6-15.6,5.2-23.3,7.8c-26.2,8.1-52.9,14.2-79.6,20.4c-42.9,9.8-85.9,19.3-128.5,30.2
		c-13.7,3.3-27.2,7.4-41,10.2c-7.7,1.7-12.3,9-19.7,11.4c-6-10.6-15.1-19.2-24.2-27.2c-6.6-5.5-13.5-11.2-21.7-14.2
		c5.8,13,8,27.3,10.5,41.2c-4.3-4.7-7.6-10.2-11.8-15c-6-7.4-13.8-13.2-21.7-18.5c2.2,13.7,4.5,27.5,5.6,41.3
		c-8.4-13.4-20.7-23.8-33.7-32.6c1.8,25.6,4.5,51.3,3.2,77c-7.4,4.9-15.6,8.6-23.6,12.6c-33.4,15.8-67.9,29.1-102.7,41.2
		c-45.4,15.6-91.7,28.6-138.7,38.2c-49.8,10-100.5,16.4-151.4,15.4c-41.2-0.8-82.7-6.7-121.5-21.1c0-0.3-0.1-0.8-0.1-1.1
		c1.1-0.2,2.2-0.4,3.2-0.7l-0.8,0.4c36.4,0,72.8-5.5,107.8-15.5c40-11.4,78-29.1,113.8-50.1c32.1-18.6,62.5-39.9,92.8-61.3
		c31.2-22,62.4-44,94.9-64.1c29.6-18.2,60.3-35,93-47.2c-5.7,12.1-15.3,21.7-22.3,32.9c3.9-2.7,7.1-6.2,10.9-9.1
		c26.8-21.4,56.4-39.1,87.4-53.7c34.5-15.8,71.6-28,109.8-29.3c-5,4.8-10.9,8.5-16.2,13c-14.1,11.1-27.5,23.4-37.6,38.2
		c39.5-18.5,78.8-37.6,119.5-53.4c33.9-13.1,68.7-25.1,104.8-30.3c19.9-2.6,40.9-3.5,59.9,4.1c9,3.9,17.7,9.7,23.2,18.1
		c4.8,7.4,3.2,16.6,3.1,24.9c16.1,0,32.2-1,48.1-3.3c3.3-3.4,4.3-8.3,6.4-12.5l-0.1,0.5c5.6-11,10.6-22.6,11-35.1
		c0.8-14.4-4.8-28.9-14.8-39.2c-12.7-13.2-30.5-20.4-48.2-23.9c-15.8-3.2-32-3.1-48.1-2.5c-31.2,0.3-62.8-0.3-93.4-7
		c-8.9-2.3-18.1-4.8-25.3-10.6c-14-10.3-26.6-23.1-34.2-38.9c-6.6-13.5-9-28.9-7.5-43.8c1.8-19.1,9-37.2,17.7-54
		C836.3,93.8,848.6,75.9,861,58c9.9-14.4,20.3-28.6,28.8-43.9C852,13.9,814.4,24.2,781.1,42 M540,181.3
		c-142.5,9.3-282.9,45.8-412.6,105.5c0.2,91.3,9.8,182.8,30.6,271.7c5.6-4.2,10.4-9.4,15.8-13.9l0-0.1c11.5-10.3,22.7-20.8,34-31.3
		c44.1-40.8,87.6-82.3,134.6-119.8c28.3-22.3,57.8-43.7,91.2-57.9c17-32.8,36.8-64.3,60.7-92.5c13.2-15.6,27.9-30.1,43.4-43.4
		c8.6-6.6,17-13.6,26.3-19.2C556,179.8,548,181,540,181.3 M824.4,195.7c1.9,7.5,5.8,14.3,10.2,20.6c6.8,9.2,15.3,17,24.5,23.6
		c4.3,3.2,9.5,4.7,14.5,6.3c13.8,3.8,28.2,5.4,42.5,6.6c20.7,1.5,41.6,1.9,62.3,1c24.8-0.5,50.4,2.5,72.9,13.8
		c12.2,6.1,23.2,15,31,26.4c10.8,16,13.5,36.5,8.7,55c1.2-0.8,2.5-1.6,3.7-2.3l0-0.4c7.1-3.5,13.8-7.8,20.5-11.9
		c0.7-15.8,1.2-31.6,0.9-47.4c-19.4-9.5-39.5-17.5-59.5-25.7C981.8,231.6,903.8,209.4,824.4,195.7 M962.1,370.1
		c-8.7,3-17.9,6.1-24.4,13c20.4,0.4,40.9,0.4,61.3,0.6c2.7,0.1,5.4-0.1,8.1-0.4c-1.6-6.7-5.9-13.3-12.7-15.6
		C983.8,363.9,972.4,367,962.1,370.1 M1089.8,418.7c-16,13.6-32.6,26.8-45.8,43.3c-7,8.7-12.8,18.4-15.8,29.2
		c-4.2,14.9-2.3,31.1,3.5,45.3c2.9,8.5,7.2,16.4,11.9,24c5.8,7.1,11.2,14.5,17.6,21.1l0,0.2c4.9,4.9,9.6,10.2,14.8,14.8
		c4.3-14.7,7.8-29.5,11.3-44.4c11.4-49.8,19.3-100.5,23.8-151.4C1103.8,406.6,1097,412.8,1089.8,418.7 M801.1,521.2
		c-25,4.8-50.5,7.4-75.2,13.8c-5.9,1.3-10.2,5.7-14.7,9.4c-5.5,4.7-11.4,8.9-18.1,11.8c-1.7-2.5-3.3-5.2-5.4-7.5
		c0.3,3.8,1.6,7.5,1.7,11.3c-9.8,4.8-19.5,9.9-29.2,14.8c0.1,1.3,0.2,2.5,0.3,3.8c-11.8,5.1-23.3,10.9-35.2,15.8
		c0-4.8,0.7-9.6,0.1-14.3c-1.6,10-7.2,19.3-15.7,24.9c-11.6,7.8-24.2,14.1-36.7,20.3c-17,8.1-34,16.4-51.9,22.2
		c-41.7,14.2-83.7,27.5-126.4,38.5c-42.5,11-85.6,19.8-129.3,23.8c-13.2,1.1-26.3,1.8-39.5,2c-6.4,0.1-12.8-0.2-19.2-0.1
		c24.5,59.8,54.7,117.3,90.4,171.2c6.7,0.2,12.7,6.4,11.8,13.2c0,1.6-0.9,3.4,0.2,4.8c3.5,5.1,7,10.3,10.8,15.2
		c3-6.2,5.3-12.8,8.1-19.1c4-8.8,11.8-17,21.8-18.1c4.8-0.7,9.1,1.6,13.4,3.2c4.9,4.5,9.3,9.7,12,15.9
		c12.7,31.1,25.7,62.2,38.7,93.2c2.2,4.2,3,9.2,1,13.7c-1.5,1.9-2.9,3.9-5.1,5c-4,2.2-8.7,1.4-13,2c3.9,5.2,8.5,9.7,12.8,14.5
		c64.6,70.6,137.4,133.1,212.2,192.5c80.3-63.7,158.2-131.2,226.3-208.1c-7.9-0.8-15.8-0.7-23.8-1l0.2-0.2
		c-15.9-0.2-31.8-1-47.6-1.4c-1.8,0.1-3.8-0.7-5.3,0.4l0.5-0.5c-12.4-0.6-24.7-0.5-37.1-0.8c-4.7,0.3-9.5-1.2-12.4-5
		c-6,2.5-12.3,4-18.8,4.2c-9,0.3-18.2,0.3-26.9-2.5c-6.2-1.9-11.9-5.2-16.8-9.3c-0.7,6.1-5.8,11.7-12.2,11.6c-9.3,0-18.7,0-28,0.1
		c-3.1,0.1-6-1.4-9-0.6c-6.2,1.2-12.6,0.6-18.9,0.8c-6.5,0-13.1,0.4-19.4-1.4c-10.5-2.7-19.3-9.8-25.6-18.5
		c-6.2,11-17.2,20-30.1,20.9c-14.8,0.6-29.6,0.7-44.3,1.4c-5.9,0-11.7,0.5-17.6,0.5c-4.8,0.1-9.3-2.9-11.2-7.3
		c-0.7-1.7-0.7-3.7-2.2-5c2-4.6,3.9-9.2,6.1-13.7l-0.6-0.7l0.6,0.5c2.8-6.7,5.7-13.3,8.7-19.9c0.9-2.1,2.5-3.9,4.1-5.5
		c-7.4-5.4-12.9-13.3-15.5-22.1c-3.1-10.7-3-22.3-0.1-33c3.4-12.4,12.4-23.8,24.8-28.2c6.5-2.4,13.5-2,20.2-2.2
		c16.3-0.4,32.6-0.9,49-1.2c7.1-0.3,13.3,6.4,12.4,13.5c5-4.8,10.6-9,17.1-11.3c10.7-4.1,22.3-2.5,33.5-3
		c12.1-0.5,24.3,4.1,32.9,12.7c2.8,2.5,4.6,5.8,7.5,8.3c0.2-3.4,0-6.8,0.3-10.2c0.6-5.7,5.7-10.4,11.4-10.6c5.7-0.2,11.4,0.1,17.1,0
		c3.2,0,6.7-0.1,9.6,1.7c2.5,1.2,3.6,4.1,6.2,5.1c0,20.5,0,41,0,61.5c0,4.6-0.3,9.3,1.5,13.6c5.7,0.7,11.6,1.4,17.3,0.1
		c1.6-5.4,1-11.2,1.1-16.7c0.1-17.3,0-34.7,0-52c-0.2-6.2,4.8-12.1,11.1-12.5c4-0.2,8,0.1,12,0.2c4.4,0.3,9.1-0.3,13.4,1
		c3.4,1,5.2,4.3,8,6.3c0,13,0.1,26,0,39c3.9-7.9,6.9-16.2,10.6-24.3c3.4-8.6,9.7-17.1,18.9-20c5.1-1.2,11.1-1.5,15.4,1.9
		c6.4,3.9,11.1,10.2,14,17.1c6.8,16.7,13.2,33.5,20.3,50c0.4-6.7-1.2-13.7,1.6-20c-2-4.1-2.1-8.9,0.1-12.9
		c4.2-9.1,8.1-18.4,12.5-27.4c1.2-2.8,4.4-3.8,5.7-6.6c11.1,0.5,22.1,1.3,33.2,1.9c13.1,0,25.9,5.6,34.8,15.2
		c1.6,1.9,3.2,3.8,4.7,5.9c0.7,0.7,1.3,2.5,2.6,1.9c2.3-4.2,4.1-8.8,6.4-13c1.4-2.7,4.3-3.9,5.8-6.5c3,0.2,6.1,0.5,9.1,0.7
		c43.8-66.2,79.2-137.8,106.1-212.5c-5.5-2.4-11.1-4.4-16.8-6.4c-11.8-4.2-23.9-7.9-36.1-10.9c-36.5-9-74.8-11.9-112-6.2
		c-32.4,4.8-63.6,16-92.2,31.8c-29.2,16-55.7,36.4-80.2,58.8c-21.3,19.3-41,40.3-60.7,61.2c-19.1,20.1-37.7,41-60.1,57.5
		c-6.4-20.1-9.8-41.3-7.9-62.4c2.8-35.2,18.2-68.2,38.5-96.7c22.2-31,49.9-57.7,79.3-81.7c54.7-44.4,116-79.8,178.2-112.6
		C855.9,509.4,828.6,515.8,801.1,521.2 M476.3,513.2c-35.1,22.9-69.7,46.6-105.1,69c-2.7,1.9-5.8,3-8.1,5.3c6,0.8,12-0.5,17.9-1.7
		c13.1-3,25.9-7,38.7-11.3c17.2-6,34.4-12.2,50.6-20.4c8.8-4.1,13.8-13,17.3-21.6c3.6-9.3,6-19.3,5-29.2
		C486.8,506.2,481.6,509.8,476.3,513.2 M565.7,888.7c-11.3,8.2-17.6,21.8-19.4,35.4c-1.8,13.8-1.3,28.1,3.3,41.3
		c4.1,11,11.2,21.9,22.4,26.6c6.9,3.1,14.7,2.2,22,2.3c7-0.1,14.4,0.6,21-2.4c2.4-1.9,2.7,2.8,5,2.2c9.2-0.1,18.5-0.1,27.7-0.1
		c-4.7-6.8-9.3-13.5-14.1-20.2c8.3-15.9,9.9-34.7,7-52.3c-2.4-13.9-9.4-28.2-22.1-35.3c-9.4-5.2-20.4-3.1-30.6-3.4
		C580.2,882.6,572.1,884,565.7,888.7 M654.7,882.8c0,21,0,42.1,0,63.1c0.3,12.3,2.3,25.3,9.9,35.4c5.9,7.9,15.7,12,25.3,12.8
		c9.8,0.6,20.2,0.8,29.2-3.8c7.8-3.8,13.1-11.3,16-19.3c4-10.9,4.1-22.6,4-34c0-17.6,0-35.2,0-52.8c-6.6-0.2-13.3-0.3-19.9-0.5
		c0,20.4,0,40.8,0,61.3c-0.2,6.1-0.9,13.1-5.9,17.3c-5.2,3.9-12,3.5-18.2,3.3c-5.6-0.4-12.4-0.5-16.2-5.5c-5-6.6-4.2-15.4-4.2-23.2
		c0-18,0-36,0-53.9C668,882.9,661.4,882.9,654.7,882.8 M480,885.1c-10.3,0.4-18.5,8.6-22.1,17.8c-3.2,8.3-3.5,17.5-1.9,26.2
		c1.7,8.9,7.2,17.7,15.9,21c5.1,2.1,10.8,1.4,16.2,1.3c8.7-0.2,17.3-0.5,26-0.6c4.1-0.3,8.5,2.8,8.4,7.2c0.5,4.8-4,8.8-8.5,8.8
		c-15.5,0.6-30.9,0.5-46.4,1.5c-4.1,9.7-8.5,19.3-12.6,29c19.3-0.7,38.7-1.3,58-1.7c4.8,0,9.7-1.3,13.7-4c8.6-6,13.3-16.4,14.3-26.7
		c1.1-11.2-0.3-23.4-7.2-32.7c-4.3-6-11.3-10.2-18.8-10.2c-11.3,0.1-22.7,0.6-34,0.8c-5,0.4-4.9-9.2,0-8.9
		c15.1-0.5,30.3-0.7,45.4-1.2c4.1-9.8,8.4-19.5,12.7-29.2C519.4,884.1,499.7,884.5,480,885.1 M783.1,886c-5.1,2.6-8.1,7.9-10.1,13
		c-13.6,31.9-27,64-40.4,96c8.2,0.2,16.4,0.3,24.6,0.5c9.5-22.5,19-45,28.7-67.4c6,13.2,11,26.8,16.9,40c-9-0.3-17.9-0.7-26.9-0.9
		c-4,9.5-7.9,18.9-12,28.4c25.1,0.9,50.2,1.5,75.2,2.5c-2.9-8-6.4-15.8-9.5-23.8c-9.2-22.5-18.1-45.1-27.2-67.7
		c-2.7-6.3-4.5-13.4-9.8-18.2C790.2,885.9,786.4,884.3,783.1,886 M855.2,888.7c-4.2,9.2-8.3,18.5-12.5,27.7
		c14.7,1.1,29.5,1.5,44.2,2.6c8.5,1,14.1,9,16.3,16.7c2.3,8.9,2.2,19-2.4,27.2c-2.9,5.3-8.6,9.3-14.9,8.9
		c-7.8-0.4-15.7-0.6-23.4-1.3c0.2-13.3,0.1-26.7,0.1-40c-6.6-0.4-13.3-0.8-19.9-1c0,22.9,0,45.8,0,68.8c14.4,0.5,28.9,1.3,43.3,2
		c8.2,0.5,16.5-2.8,22.3-8.6c11.7-11.5,15.8-28.5,16-44.4c0-16.5-4.1-34.2-16-46.3c-5.9-6-14-9.8-22.5-10.2
		C875.7,889.8,865.5,889.2,855.2,888.7 M350.3,891.1c-6.8,2.1-10.4,9.1-12.8,15.3c-13.5,32.7-26.8,65.6-40.2,98.3
		c8.2-0.5,16.3-1.1,24.5-1.4c9.8-23.2,19.3-46.6,29.1-69.8c5.5,12.9,11,25.8,16.5,38.8c-8.9,0.4-17.8,0.8-26.7,1.4
		c-3.9,9.8-8.2,19.4-11.8,29.3c25-1.5,50-2.5,75-3.8c-13.5-32.2-26.8-64.5-40.2-96.8C361.2,897.2,356.9,890.5,350.3,891.1
		 M929.7,921.4c16.8,1.4,33.6,2.5,50.3,3.7c4.4,0.4,9.2,0.2,12.9,3c4.7,3.6,5.3,10.4,3.8,15.8c-1.5,4.9-7,7.2-11.8,6.6
		c-18.4-1.3-36.9-2.6-55.3-3.8c-0.1,18.5,0.1,37-0.1,55.5c6.6,0.9,13.3,0.9,19.9,1.5c0.1-9.1,0-18.2,0-27.3
		c9.1,0.6,18.3,1.2,27.4,1.8c6.4,9.5,12.8,19.1,19.4,28.5c9.6,0.7,19.3,1.5,28.9,2.2c-7.8-11.4-15.6-22.9-23.1-34.4
		c7.5-4.4,12.2-12.4,14.3-20.7c2.3-9.4,1.9-19.3-0.6-28.6c-2.2-8.8-7.4-16.9-15-22c-5.3-3.6-11.6-5.5-17.9-5.9
		c-13.5-1-26.9-2-40.4-3C938.1,903.1,933.9,912.3,929.7,921.4 M251.1,898.6c-7.5,0.7-14.7,4.1-20.2,9.2
		c-11.4,10.5-16.7,26.1-17.5,41.2c-1,16,1.4,33.2,11.6,46.1c5.8,7.7,15.2,13.1,25.1,12.6c15-0.9,29.9-1.9,44.9-2.8
		c0-21.8-0.1-43.7,0-65.5c-19.3,1.2-38.6,2.6-57.9,4.3c4.4,8.6,8.7,17.2,13.1,25.8c8.3-0.6,16.6-1.2,24.9-1.7c0,3.4,0,6.8,0,10.2
		c-8.3,0.4-16.7,1.3-25,1.6c-8.5,0-14.5-7.9-16.1-15.5c-1.9-9.4-1.2-19.8,4.1-28.1c2.9-4.6,7.5-8.4,13.1-9c11-1.1,22.1-1.5,33.1-2.6
		c4.1-9.8,8.4-19.5,12.7-29.2C281.6,896.2,266.3,897.2,251.1,898.6 M141.9,909.2c-0.1,35.8,0,71.5,0,107.2c19-1.6,37.9-3.3,56.9-4.8
		c4.3-9.6,8.5-19.3,12.7-28.9c-16.6,1.3-33.1,2.7-49.7,4.2c0-4.3,0-8.6,0-12.8c11.3-1.1,22.6-2,33.9-3.1c4.1-9.7,8.5-19.3,12.7-28.9
		c-15.5,1.3-31,2.7-46.5,4.3c0-3.8,0-7.6,0-11.3c12.3-1.3,24.6-2.5,36.9-3.5c4.4-9.7,8.5-19.5,12.8-29.3
		C188.3,904.3,165.1,906.7,141.9,909.2 M1058.6,905.7c-11,2.4-19.2,11.6-23.4,21.6c-4.9,11.9-5.5,25.1-4.2,37.8
		c1.4,13.5,6.7,26.9,16.2,36.7c5.7,6,13.6,9.9,21.9,10.5c7.6,0.5,15.2,1.7,22.9,2c9.4,0.2,18.2-5.1,23.8-12.5
		c10.6-13.6,12.7-32,10.8-48.7c-1.9-16-9.3-32.5-23.5-41.1c-7.8-4.9-17.1-5-25.9-6C1070.9,905.4,1064.7,904.2,1058.6,905.7
		 M115.3,912.2c-9.5,22.9-19.1,45.8-28.6,68.8c-9.8-20.6-18.9-41.5-28.8-62c-8.2,1.2-16.4,2-24.6,3.1c14.5,30.8,28.7,61.6,43.3,92.3
		c2.1,3.9,5.1,9.3,10.3,8.6c5.1-1.6,7.4-7.1,9.6-11.5c14.7-34,29.2-68.2,43.9-102.2C132.1,910.3,123.7,911,115.3,912.2
		 M1138.3,915.2c-3.2,3.4-3.4,8.3-3.4,12.7c0.1,30.2-0.2,60.4,0.2,90.6c6.6,0.4,13.2,1.4,19.8,2c0-19.2-0.1-38.4,0-57.6
		c1.6,1.5,2.6,3.5,3.8,5.3c11.2,16.8,22.4,33.6,33.8,50.3c2.6,3.7,5.9,7.4,10.6,8c2.5,0.5,5.2-0.9,6.3-3.2c2.1-4.1,1.8-8.9,1.8-13.4
		c0-29.3,0-58.6,0-87.9c-6.7-0.8-13.4-1.8-20.1-2.5c0.1,19.2,0.1,38.3,0,57.5c-11.4-16.5-22.3-33.3-33.4-49.9
		c-2.9-4.2-5.4-9.2-9.9-12C1145.1,913.3,1140.9,912.7,1138.3,915.2 M296.3,927c4.7,0.5,7.4,4.3,10.8,7c0.1,4.4,0,8.8,0.1,13.1
		c2.2-3.5,3.1-7.5,4.9-11.2c-3.9-5.9-8.2-11.5-12.2-17.3C298.7,921.4,297.5,924.2,296.3,927 M874.9,930.5c0,6.8,0,13.6,0,20.4
		c0,2.6,0,5.3,0,7.9c4.1,0.1,8.1,0.6,12.2,0.5c2.7-0.6,3.7-3.7,4.4-6c1.6-6.7,1.1-14.2-2.7-20C885.5,929.4,879.5,931.4,874.9,930.5
		 M1018.3,976.6c1.2,1.7,2.3,3.5,3.4,5.2c-0.6-2.4-1.1-4.8-1.7-7.2C1019.4,975.2,1018.9,975.9,1018.3,976.6z"/>
	<path class="st0" d="M569.3,921.3c2.8-5,7.8-9.2,13.7-9.4c7.3-0.2,14.7-0.3,22-0.2c7,0.4,12.2,6.4,14.6,12.5
		c3.5,9.1,3.2,19.4,0.2,28.5c-9.9-0.6-19.9,0-29.8-0.1c2.8,4.3,5.8,8.5,8.7,12.8c-5.8-0.1-11.7,0.4-17.5-0.1
		c-8.5-1.3-13.8-9.6-15.3-17.4C564.3,939.1,564.8,929.3,569.3,921.3 M583.3,924.3c-2.8,1.1-4,4.3-4.9,7c-1.3,5.3-1.4,11.1,0.3,16.4
		c2.2-3.5,5.5-6.7,9.8-7.1c7.2-0.5,14.4,0,21.6-0.5c-0.2-4.3-0.3-8.9-2.4-12.8c-1-1.7-2.3-3.8-4.6-3.5
		C596.5,924.1,589.8,923.9,583.3,924.3z"/>
	<path class="st0" d="M1064.2,933.2c4.9-0.9,9.9,0.5,14.9,0.8c6,0.9,12.6,0.3,17.7,4.2c8.1,6.2,11.1,17,10.6,26.8
		c-0.2,7.5-2.9,15.7-9.7,19.7c-5.2,3.2-11.4,1.5-17,1.1c-5.1-0.7-10.4-0.6-15.4-1.9c-8-2.7-12.8-10.7-14.3-18.6
		c-1.4-8.1-1-16.9,3.2-24.1C1056.4,937.4,1059.8,934.1,1064.2,933.2 M1066.3,945.4c-3.9,3.7-4.1,9.6-3.8,14.6
		c0.4,4.5,1.9,9.8,6.2,12.1c7.3,1,14.8,1.7,22.2,2.2c4.7-2.9,4.2-9.5,4-14.3c-0.5-5.5-3.2-13.3-10-13.1
		C1078.8,946.6,1072.5,945.1,1066.3,945.4z"/>
</g>
<g id="_x23_ffffffff">
	<path class="st1" d="M781.1,42c33.3-17.9,70.9-28.1,108.8-27.9C881.3,29.5,870.9,43.6,861,58c-12.4,17.8-24.7,35.8-34.8,55.1
		c-8.8,16.9-15.9,35-17.7,54c-1.5,14.9,0.9,30.3,7.5,43.8c7.6,15.8,20.2,28.6,34.2,38.9c7.3,5.8,16.5,8.3,25.3,10.6
		c30.6,6.8,62.2,7.4,93.4,7c16-0.6,32.2-0.7,48.1,2.5c17.7,3.5,35.5,10.6,48.2,23.9c10.1,10.3,15.7,24.8,14.8,39.2
		c-0.4,12.5-5.3,24.2-11,35.1l0.1-0.5c2.8-12.5,3-25.6,1.1-38.2c-1.2-7.4-2.9-15.1-7.3-21.4c-7.2-9.7-17.3-17-28.4-21.7
		c-14.2-5.9-29.6-8.1-44.8-9c-25.9-1.6-52,0-77.9-1.1c-18.6-0.8-37.4-2.9-55.2-8.9c-13.9-4.7-27-12.2-37.6-22.5
		c-12.5-11.8-22.3-26.8-26.4-43.5c-4.8-18.9-2.4-38.8,3.3-57.1c12.9-40.4,38.5-74.8,62.4-109.2c-21.5-0.6-42.9,4.4-62.3,13.3
		c-29.3,13.4-54.3,34.4-76.7,57.3c-37.7,38.8-67.7,84.1-99.2,127.9c-8.5,11.7-17.1,23.4-26.9,34.1c-5.6,5.9-11.5,11.8-18.9,15.4
		c-0.3-11.6-0.2-23.4,2.4-34.8c3.2-13.8,9.3-26.8,15.5-39.5c5.3-10.6,10.9-21.1,16.5-31.6c-17.3,7.1-32.7,18.1-46.8,30.1
		c-24.1,20.7-44.9,44.8-63.9,70.1c-17.7,24-34.2,49.1-47,76.1c-0.2,0.3-0.6,0.8-0.8,1.1c-29.5,13.6-56,32.8-81.8,52.4
		c-59.2,46-114.4,96.8-170.5,146.6c-42.9,38.2-85.9,76.4-131,112.1l0.1,1c0,0.3,0.1,0.8,0.1,1.1c38.8,14.4,80.3,20.4,121.5,21.1
		c50.8,1,101.6-5.3,151.4-15.4c47-9.6,93.3-22.6,138.7-38.2c34.9-12.1,69.3-25.4,102.7-41.2c8-3.9,16.1-7.6,23.6-12.6
		c1.3-25.7-1.4-51.4-3.2-77c12.9,8.8,25.2,19.2,33.7,32.6c-1.1-13.9-3.4-27.6-5.6-41.3c8,5.2,15.7,11,21.7,18.5
		c4.2,4.8,7.5,10.3,11.8,15c-2.5-14-4.7-28.2-10.5-41.2c8.2,3,15.1,8.6,21.7,14.2c9.1,8,18.2,16.6,24.2,27.2
		c7.4-2.4,11.9-9.7,19.7-11.4c13.8-2.8,27.3-6.9,41-10.1c42.7-10.8,85.6-20.4,128.5-30.2c26.7-6.2,53.4-12.3,79.6-20.4
		c0.3,3.9,0.8,7.8,1.1,11.7c-18.4,3.9-37,7.4-55.3,12c-40.9,10.1-81.5,21.5-123,28.8c-21.3,3.6-42.8,6.4-63.8,11.4
		c-4.3,1.1-8.7,2.2-12.7,4.4c-6.2,3.7-11.2,9-17,13.1c-5.2-9-11.1-17.7-18.6-24.9c-5-4.8-9.9-9.7-14.9-14.3
		c2.1,11.5,3.8,23.2,6.7,34.6c1.5,6.3,3.2,12.5,4.4,18.8c-2.3,1.1-4.6,2.2-6.8,3.4c-2.7-10.5-6.2-21.1-13-29.7
		c-5.9-7.1-12.4-13.7-18.6-20.5c3.2,21.7,6.7,43.2,9.7,64.9c-2.3,1-4.6,2-6.9,3c-0.4-15-4.2-30.9-14.6-42.2
		c-5.2-5.2-10.8-10-16.1-15.1c1.8,13.5,4.1,27,5.3,40.7c0.6,9.9,0.7,20.6-4.3,29.5c-3.1,5.8-9.2,8.9-14.6,12.3
		c-16.8,9.7-34.4,18-52,26c-13.7,6.4-28.1,10.8-42.3,15.6c-48.4,16.1-97.4,30.8-147.2,41.8C304,693,253.5,700.2,203,698
		c-24.9,0.5-49.6-2.9-74.1-7c-18.6-3.3-37.1-7.1-55-13c-8.1-2.8-16.3-5.8-23.4-10.8c12.8-11.2,27.2-20.3,39.8-31.8
		c30.9-27.1,62.4-53.6,92.7-81.4c55.4-50.3,108.7-103,167.1-149.9c28.5-22.4,58.3-44.1,92.1-57.9c3.1-4.1,5.2-8.9,7.7-13.3
		c18.8-35.3,41.5-68.8,69.2-97.7c29.1-30.4,64.2-55.9,104-70.2c-7.3,18.4-16,36.1-24.3,53.9c-5.1,9.8-6.4,20.9-9.2,31.5
		c5.8-5.7,11.9-11.3,17.3-17.5c7.7-13,14.6-26.4,22.8-39.2c20.6-32.8,44.3-63.9,71.6-91.4C725,78.8,751.5,57.7,781.1,42z"/>
	<path class="st1" d="M148,300.2c122.5-56.3,255-91.3,389.6-100.6c-15.6,13.3-30.2,27.8-43.4,43.4
		c-104.5,12.7-206.6,42.5-302.3,86.2c0,61.6,5.1,123.3,15.8,184c-11.3,10.5-22.5,21-34,31.3C156.3,464.3,148.4,382.2,148,300.2z"/>
	<path class="st1" d="M834.6,216.3c48.7,9.2,96.8,21.9,143.9,37.5c-20.8,0.9-41.6,0.5-62.3-1c-14.3-1.2-28.6-2.8-42.5-6.6
		c-5.1-1.5-10.2-3.1-14.5-6.3C849.9,233.3,841.4,225.6,834.6,216.3z"/>
	<path class="st1" d="M1082.4,294c4.3,2.4,8.9,4.1,13.4,6.2c-0.1,15.3-0.4,30.7-1,46l0,0.4c-1.3,0.8-2.5,1.5-3.7,2.3
		C1095.9,330.5,1093.2,309.9,1082.4,294z"/>
	<path class="st1" d="M886.7,302.5c26.4-5,53.4-7.8,80.3-6.3c17.8,1.1,35.8,4.1,52.2,11.5c13.8,6.1,26.3,16.1,33.8,29.3
		c7.6,13,10,28.2,9.8,43.1c-15.9,2.3-32,3.3-48.1,3.3c0.1-8.3,1.7-17.5-3.1-24.9c-5.4-8.4-14.2-14.2-23.2-18.1
		c-19-7.6-40-6.7-59.9-4.1c-36.1,5.2-70.9,17.1-104.8,30.3c-40.7,15.8-80,34.9-119.5,53.5c10.1-14.9,23.5-27.2,37.6-38.2
		c5.3-4.5,11.3-8.2,16.2-13c-38.2,1.3-75.3,13.5-109.8,29.3c-31,14.5-60.7,32.2-87.4,53.6c-3.8,2.8-7,6.4-10.9,9.1
		c7-11.2,16.7-20.9,22.3-32.9c-32.7,12.2-63.4,29-93,47.2c-32.5,20.1-63.7,42.2-94.9,64.1c-30.3,21.3-60.7,42.6-92.8,61.3
		c-35.9,21-73.8,38.6-113.9,50.1c-35,10-71.4,15.5-107.8,15.5l0.8-0.4c17.2-5.3,34-12.1,50.4-19.7c23-10.6,45.5-22.2,67.7-34.3
		c26-14.1,51.7-29,75.9-46.2c62.3-43.8,118.9-95.1,181.7-138.1c29.2-20.1,59.9-38.3,92.4-52.5c31.3-13.7,64.5-23.3,98.5-27.1
		c-1.2,4.8-2.5,9.6-3.8,14.3c33.1-12.8,65.6-27,99.3-38.3c32.7-11,66.7-18.1,101.1-21.6c-2.3,5.5-4.6,11-6.8,16.5
		C846.4,311.6,866.5,306.4,886.7,302.5z"/>
	<path class="st1" d="M1072.8,378c24-18.9,51.2-33.2,77.9-47.7c-7.1,13.5-16.1,25.9-25.8,37.6c-13.8,15.9-30.1,29.3-46.2,42.8
		c-17.8,15.1-36.2,30-49.8,49.2c-9.8,13.7-16.2,30.2-16.3,47.1c-0.3,21.5,8.3,41.9,19.4,60c9.5,12.6,19.8,24.7,31.2,35.7
		c8.7,9,18.4,17.2,25.4,27.7c8.8,13.6,10.3,30.3,11.4,46.1c-52.8-27.2-111.1-46.3-171-46.5c-35.3-0.2-70.6,6.5-103.4,19.5
		c-31,12.2-59.8,29.6-86.1,50c-28.8,22.2-54.8,47.8-79.7,74.2c-19,19.6-36.9,40.2-57.2,58.5c-4.5-22-3.3-45.1,3-66.7
		c9.2-31.6,27.5-59.6,48.8-84.3c27.2-31.3,59.2-57.9,92.8-82.1c52.7-37.6,109.5-69,167.4-97.9c17.7-9,35.7-17.2,53.3-26.3
		c-6.9,9.3-17.7,14.5-27.3,20.5c-56.3,33.2-114.4,63.7-168.6,100.3c-28.8,19.4-56.7,40.3-81.8,64.4c-21.5,20.6-41,43.7-54.7,70.3
		c-10.1,19.6-16.5,41.4-17.1,63.6c36.5-45.3,78.7-86.4,127.3-118.5c29-19.1,60.4-35,93.5-45.5c33.8-10.8,69.4-15.9,104.8-13.9
		c37.6,2.1,74.5,12.2,108.4,28.4c14.5,6.9,28.4,14.9,41.9,23.6c-3.9-14.1-10.7-27.4-19.4-39.1c-10-13.5-22.3-25-33.8-37.2
		c-8.2-8.8-15.9-18.2-21-29.1c-6.6-15.4-14.1-31-15.5-48c-1.9-16.6,5.1-32.2,8.5-48.1c-21.2,19.3-35.4,45.8-59.8,61.7
		c11.7-21.3,26.9-40.7,36-63.3c1.9-5,3.3-10.5,2-15.9c30.1-10.4,58.6-25.7,83.5-45.6c17.6-13.8,33.1-30,48-46.6
		c-6.4,1.8-11.9,5.9-17.8,8.8C1094.8,371.5,1084,375.6,1072.8,378z"/>
	<path class="st1" d="M962.1,370.1c10.3-3.1,21.8-6.3,32.4-2.5c6.8,2.3,11.1,8.9,12.7,15.6c-2.7,0.3-5.4,0.5-8.1,0.4
		c-20.4-0.2-40.9-0.2-61.3-0.6C944.2,376.3,953.4,373.1,962.1,370.1z"/>
	<path class="st1" d="M1043.9,462c13.2-16.5,29.8-29.7,45.8-43.3c-5.5,54.9-14.9,109.4-28.6,162.9c-6.4-6.6-11.8-14-17.6-21.1
		c-4.7-7.6-9.1-15.5-11.9-24c2.9-15.1,5.7-30.2,8-45.4C1041.3,481.4,1042.2,471.6,1043.9,462z"/>
	<path class="st1" d="M476.3,513.2c5.3-3.4,10.5-7,16.2-10c1,10-1.4,20-5,29.2c-3.5,8.6-8.5,17.5-17.3,21.6
		c-16.3,8.2-33.5,14.4-50.6,20.4c-12.7,4.3-25.6,8.3-38.7,11.3c-5.9,1.2-11.9,2.5-17.9,1.7c2.3-2.3,5.5-3.5,8.1-5.3
		C406.5,559.8,441.1,536.1,476.3,513.2z"/>
	<path class="st1" d="M1000.2,652.4c12.2,3,24.2,6.6,36.1,10.9c-28.6,81.5-68.6,159-118,229.9c-8.8-9.7-21.7-15.2-34.8-15.2
		C933,809,972.7,732.8,1000.2,652.4z"/>
	<path class="st1" d="M226,711.7c13.2-0.2,26.4-0.9,39.5-2c25.8,61,58.8,118.9,97.8,172.4c-4.3-1.6-8.6-3.9-13.4-3.2
		c-10,1.1-17.8,9.3-21.8,18.1C287.5,839.1,253.1,777,226,711.7z"/>
	<path class="st1" d="M565.7,888.7c6.4-4.7,14.5-6.1,22.3-5.8c10.2,0.3,21.2-1.8,30.6,3.4c12.8,7,19.8,21.3,22.1,35.3
		c2.8,17.5,1.3,36.3-7,52.3c4.7,6.7,9.4,13.4,14.1,20.2c-9.2,0-18.5,0-27.7,0.1c-2.3,0.5-2.7-4.1-5-2.2c-6.6,3-14,2.3-21,2.4
		c-7.4-0.1-15.1,0.9-22-2.3c-11.1-4.8-18.3-15.7-22.4-26.6c-4.6-13.2-5.1-27.6-3.3-41.3C548.1,910.5,554.4,896.9,565.7,888.7
		 M569.3,921.3c-4.6,8-5,17.8-3.4,26.7c1.5,7.9,6.8,16.2,15.3,17.4c5.8,0.5,11.7,0,17.5,0.1c-2.9-4.2-5.8-8.5-8.7-12.8
		c9.9,0.1,19.9-0.6,29.8,0.1c3-9.2,3.3-19.5-0.2-28.5c-2.5-6.1-7.6-12.1-14.6-12.5c-7.3-0.2-14.7,0-22,0.2
		C577.1,912.1,572.1,916.4,569.3,921.3z"/>
	<path class="st1" d="M654.7,882.8c6.6,0.1,13.3,0,19.9,0.2c-0.1,18,0,36,0,53.9c0.1,7.8-0.7,16.6,4.2,23.2c3.8,5,10.5,5.1,16.2,5.5
		c6.1,0.1,13,0.6,18.2-3.3c5-4.2,5.8-11.2,5.9-17.3c0-20.4,0-40.8,0-61.3c6.6,0.1,13.3,0.3,19.9,0.5c0,17.6,0,35.2,0,52.8
		c0.1,11.4,0,23.2-4,34c-2.8,8-8.2,15.4-16,19.3c-9,4.6-19.4,4.4-29.2,3.8c-9.7-0.7-19.4-4.8-25.3-12.8c-7.6-10.1-9.5-23.1-9.9-35.4
		C654.7,924.9,654.8,903.9,654.7,882.8z"/>
	<path class="st1" d="M480,885.1c19.7-0.6,39.5-1,59.2-1.6c-4.3,9.7-8.6,19.4-12.7,29.2c-15.1,0.6-30.3,0.7-45.4,1.2
		c-4.9-0.2-5.1,9.3,0,8.9c11.3-0.2,22.6-0.7,34-0.8c7.5,0,14.5,4.2,18.8,10.2c6.9,9.3,8.3,21.4,7.2,32.7c-1,10.2-5.7,20.6-14.3,26.7
		c-4,2.7-8.9,4-13.7,4c-19.3,0.4-38.7,1-58,1.7c4.1-9.7,8.5-19.3,12.6-29c15.4-1,30.9-1,46.4-1.5c4.6-0.1,9-4,8.5-8.8
		c0.1-4.4-4.3-7.4-8.4-7.2c-8.7,0.1-17.3,0.4-26,0.6c-5.4,0.1-11,0.8-16.2-1.3c-8.7-3.4-14.2-12.1-15.9-21
		c-1.6-8.7-1.2-17.9,1.9-26.2C461.5,893.7,469.7,885.6,480,885.1z"/>
	<path class="st1" d="M783.1,886c3.3-1.7,7.1-0.1,9.5,2.4c5.2,4.8,7.1,11.9,9.8,18.2c9.1,22.5,18.1,45.1,27.2,67.7
		c3.1,8,6.6,15.7,9.5,23.8c-25.1-1-50.2-1.6-75.2-2.5c4.1-9.4,8-18.9,12-28.4c9,0.2,17.9,0.6,26.9,0.9c-5.9-13.2-10.9-26.9-16.9-40
		c-9.7,22.4-19.2,44.9-28.7,67.4c-8.2-0.2-16.4-0.3-24.6-0.5c13.4-32,26.8-64,40.4-96C775,893.9,778,888.6,783.1,886z"/>
	<path class="st1" d="M855.2,888.7c10.2,0.5,20.4,1.1,30.6,1.7c8.4,0.4,16.6,4.2,22.5,10.2c11.9,12.1,16,29.8,16,46.3
		c-0.2,15.9-4.2,33-16,44.4c-5.8,5.8-14.1,9.1-22.3,8.6c-14.4-0.7-28.9-1.4-43.3-2c0-22.9,0-45.8,0-68.8c6.6,0.3,13.3,0.6,19.9,1
		c-0.1,13.3,0.1,26.7-0.1,40c7.8,0.7,15.6,0.9,23.4,1.3c6.2,0.5,12-3.5,14.9-8.9c4.6-8.2,4.7-18.2,2.4-27.2
		c-2.2-7.7-7.8-15.7-16.3-16.7c-14.7-1.1-29.5-1.5-44.2-2.6C846.9,907.2,851,897.9,855.2,888.7z"/>
	<path class="st1" d="M350.3,891.1c6.6-0.6,10.9,6,13.4,11.2c13.4,32.2,26.8,64.5,40.2,96.8c-25,1.3-50,2.3-75,3.8
		c3.6-9.9,8-19.5,11.8-29.3c8.9-0.5,17.8-0.9,26.7-1.4c-5.5-12.9-11-25.8-16.5-38.8c-9.8,23.3-19.2,46.6-29.1,69.8
		c-8.2,0.3-16.3,1-24.5,1.4c13.4-32.8,26.7-65.6,40.2-98.3C339.9,900.3,343.5,893.3,350.3,891.1z"/>
	<path class="st1" d="M929.7,921.4c4.3-9.1,8.4-18.2,12.9-27.2c13.5,1,26.9,2,40.4,3c6.3,0.5,12.6,2.3,17.9,5.9
		c7.6,5.1,12.8,13.2,15,22c2.4,9.3,2.9,19.3,0.6,28.6c-2.1,8.3-6.8,16.3-14.3,20.7c7.6,11.6,15.3,23,23.1,34.4
		c-9.6-0.7-19.3-1.6-28.9-2.2c-6.6-9.5-13-19-19.4-28.5c-9.2-0.6-18.3-1.2-27.4-1.8c0,9.1,0,18.2,0,27.3c-6.6-0.6-13.3-0.6-19.9-1.5
		c0.2-18.5,0-37,0.1-55.5c18.4,1.3,36.9,2.6,55.3,3.8c4.8,0.6,10.3-1.7,11.8-6.6c1.5-5.3,0.8-12.2-3.8-15.8c-3.7-2.8-8.6-2.6-12.9-3
		C963.2,923.8,946.4,922.8,929.7,921.4z"/>
	<path class="st1" d="M251.1,898.6c15.2-1.4,30.5-2.4,45.8-3.5c-4.3,9.7-8.6,19.4-12.7,29.2c-11,1.1-22.1,1.5-33.1,2.6
		c-5.5,0.6-10.2,4.4-13.1,9c-5.3,8.2-6,18.7-4.1,28.1c1.6,7.7,7.6,15.5,16.1,15.5c8.3-0.3,16.7-1.2,25-1.6c0-3.4,0-6.8,0-10.2
		c-8.3,0.5-16.6,1.1-24.9,1.7c-4.4-8.6-8.7-17.2-13.1-25.8c19.3-1.6,38.6-3.1,57.9-4.3c-0.1,21.8,0,43.7,0,65.5
		c-15,0.9-29.9,1.9-44.9,2.8c-9.9,0.5-19.2-4.9-25-12.6c-10.3-12.9-12.6-30.1-11.6-46.1c0.9-15.2,6.2-30.7,17.5-41.2
		C236.4,902.7,243.5,899.3,251.1,898.6z"/>
	<path class="st1" d="M375.3,898c3,4.7,6.7,9,10.1,13.4c19.4,24.7,40,48.6,61.6,71.4l0.6,0.7c-2.2,4.5-4.1,9.1-6.1,13.7
		c1.4,1.3,1.5,3.3,2.2,5c1.8,4.4,6.4,7.4,11.2,7.3c5.9,0,11.7-0.5,17.6-0.5c46.7,47,97.6,89.6,149.3,130.8
		c51.9-41.3,102.9-84.2,149.8-131.2c1.5-1.1,3.6-0.3,5.3-0.4c15.9,0.4,31.8,1.2,47.6,1.4l-0.2,0.2
		c-61.8,67.2-131.1,126.8-202.5,183.5c-73.1-58-144.1-119.2-207-188.4c2.1-4.5,1.2-9.5-1-13.7C401,960.2,388,929.1,375.3,898z"/>
	<path class="st1" d="M141.9,909.2c23.2-2.4,46.4-4.9,69.6-6.9c-4.3,9.8-8.4,19.6-12.8,29.3c-12.3,1-24.6,2.2-36.9,3.5
		c0,3.8,0,7.6,0,11.3c15.5-1.6,31-2.9,46.5-4.3c-4.2,9.7-8.5,19.2-12.7,28.9c-11.3,1.1-22.6,2-33.9,3.1c0,4.3,0,8.5,0,12.8
		c16.5-1.5,33.1-2.9,49.7-4.2c-4.2,9.7-8.4,19.3-12.7,28.9c-19,1.4-37.9,3.2-56.9,4.8C141.9,980.6,141.8,944.9,141.9,909.2z"/>
	<path class="st1" d="M1058.6,905.7c6.1-1.5,12.3-0.3,18.5,0.3c8.8,1.1,18.2,1.2,25.9,6c14.2,8.6,21.6,25.1,23.5,41.1
		c1.9,16.7-0.1,35-10.8,48.7c-5.6,7.4-14.4,12.7-23.8,12.5c-7.7-0.3-15.3-1.5-22.9-2c-8.3-0.6-16.1-4.5-21.9-10.5
		c-9.5-9.9-14.8-23.2-16.2-36.7c-1.3-12.7-0.7-25.9,4.2-37.8C1039.4,917.2,1047.6,908.1,1058.6,905.7 M1064.2,933.2
		c-4.4,1-7.8,4.2-10.1,8c-4.3,7.2-4.6,16-3.2,24.1c1.5,7.9,6.4,15.9,14.3,18.6c5,1.3,10.3,1.2,15.4,1.9c5.6,0.4,11.8,2.1,17-1.1
		c6.8-4,9.5-12.2,9.7-19.7c0.6-9.8-2.5-20.6-10.6-26.8c-5-3.9-11.7-3.4-17.7-4.2C1074.1,933.6,1069.1,932.3,1064.2,933.2z"/>
	<path class="st1" d="M115.3,912.2c8.3-1.2,16.7-1.9,25.1-2.8c-14.7,34-29.2,68.2-43.9,102.2c-2.2,4.4-4.5,9.9-9.6,11.5
		c-5.2,0.7-8.2-4.8-10.3-8.6c-14.6-30.7-28.8-61.6-43.3-92.3c8.2-1.1,16.4-1.9,24.6-3.1c9.9,20.5,19,41.5,28.8,62
		C96.3,958,105.8,935.1,115.3,912.2z"/>
	<path class="st1" d="M1138.3,915.2c2.6-2.6,6.8-1.9,9.6-0.1c4.5,2.9,6.9,7.8,9.9,12c11.1,16.6,22.1,33.4,33.4,49.9
		c0.1-19.2,0.1-38.3,0-57.5c6.7,0.7,13.4,1.7,20.1,2.5c0,29.3,0,58.6,0,87.9c-0.1,4.5,0.2,9.3-1.8,13.4c-1.1,2.3-3.8,3.7-6.3,3.2
		c-4.7-0.6-8.1-4.4-10.6-8c-11.4-16.7-22.6-33.5-33.8-50.3c-1.2-1.8-2.2-3.8-3.8-5.3c-0.1,19.2-0.1,38.4,0,57.6
		c-6.6-0.6-13.2-1.6-19.8-2c-0.4-30.2,0-60.4-0.2-90.6C1134.9,923.6,1135.2,918.6,1138.3,915.2z"/>
	<path class="st1" d="M874.9,930.5c4.6,0.9,10.5-1.2,13.9,2.9c-4.7,5.8-9.1,11.8-13.9,17.5C874.9,944.2,874.9,937.4,874.9,930.5z"/>
</g>
<g id="_x23_172554ff">
	<path class="st2" d="M796.2,48.2c19.5-8.9,40.9-14,62.3-13.3c-23.8,34.4-49.4,68.9-62.4,109.2c-5.7,18.3-8.1,38.3-3.3,57.1
		c4.1,16.8,14,31.8,26.4,43.5c10.6,10.2,23.7,17.7,37.6,22.5c17.7,6.1,36.5,8.2,55.2,9c26,1.1,52-0.5,77.9,1.1
		c15.2,1,30.6,3.1,44.8,9c11.1,4.6,21.2,12,28.4,21.7c4.3,6.3,6,14,7.3,21.4c1.9,12.7,1.6,25.7-1.1,38.2c-2.1,4.1-3.1,9.1-6.4,12.5
		c0.1-14.8-2.3-30.1-9.8-43.1c-7.6-13.2-20-23.2-33.8-29.3c-16.4-7.4-34.3-10.4-52.2-11.5c-26.9-1.5-53.9,1.3-80.3,6.3
		c-20.2,3.9-40.2,9.1-59.6,16.3c2.2-5.5,4.6-11,6.8-16.5c-34.4,3.4-68.3,10.6-101.1,21.6c-33.7,11.3-66.2,25.5-99.3,38.3
		c1.2-4.8,2.5-9.6,3.8-14.3c-34,3.8-67.2,13.5-98.5,27.1c-32.6,14.2-63.2,32.4-92.4,52.5c-62.8,43.1-119.5,94.4-181.7,138.1
		c-24.2,17.2-49.8,32.1-75.9,46.2c-22.2,12.1-44.7,23.7-67.7,34.3c-16.4,7.6-33.2,14.4-50.4,19.7c-1,0.3-2.1,0.5-3.2,0.7l-0.1-1
		c45.1-35.7,88-73.9,130.9-112.1c56-49.7,111.3-100.6,170.5-146.6c25.8-19.6,52.3-38.8,81.8-52.4c0.2-0.3,0.6-0.8,0.8-1.1
		c12.8-27,29.3-52.1,47-76.1c19-25.3,39.9-49.4,63.9-70.1c14.2-12,29.5-23,46.8-30.1c-5.6,10.5-11.2,21-16.5,31.6
		c-6.2,12.7-12.3,25.6-15.5,39.5c-2.7,11.4-2.8,23.2-2.4,34.8c7.4-3.6,13.3-9.4,18.9-15.4c9.8-10.7,18.3-22.4,26.9-34.1
		c31.4-43.8,61.5-89.1,99.2-127.9C741.8,82.6,766.9,61.6,796.2,48.2z"/>
	<path class="st2" d="M967.9,457.1c7.8-2.6,15.6-5.2,23.3-7.8c1.3,5.4-0.1,10.9-2,15.9c-9.1,22.6-24.3,42-36,63.3
		c24.4-15.9,38.6-42.3,59.8-61.7c-3.5,15.9-10.4,31.5-8.5,48.1c1.5,17,8.9,32.5,15.5,48c5.1,10.9,12.8,20.3,21,29.1
		c11.5,12.2,23.8,23.7,33.8,37.2c8.8,11.7,15.5,25,19.4,39.1c-13.5-8.7-27.4-16.7-41.9-23.6c-33.9-16.2-70.8-26.3-108.4-28.4
		c-35.4-2-71.1,3.1-104.8,13.9c-33.2,10.6-64.5,26.4-93.5,45.5c-48.7,32.1-90.9,73.2-127.3,118.5c0.6-22.2,7-43.9,17.1-63.6
		c13.7-26.6,33.2-49.7,54.7-70.3c25.1-24,53-45,81.7-64.4c54.2-36.7,112.3-67.1,168.6-100.3c9.6-6.1,20.3-11.2,27.3-20.5
		c1.5-1.7,1.6-4,1.3-6.2C968.7,464.9,968.3,461,967.9,457.1z"/>
</g>
<g id="_x23_0083e8ff">
	<path class="st3" d="M540,181.3c8-0.2,16-1.5,24-1c-9.3,5.7-17.7,12.6-26.3,19.2c-134.6,9.3-267.1,44.3-389.6,100.6
		c0.3,82,8.3,164.1,25.8,244.3l0,0.1c-5.3,4.5-10.2,9.7-15.8,13.9c-20.9-89-30.4-180.4-30.6-271.8
		C257.1,227.1,397.5,190.6,540,181.3z"/>
	<path class="st3" d="M824.4,195.7c79.4,13.7,157.4,35.9,232.3,65.6c20,8.1,40.1,16.2,59.5,25.7c0.3,15.8-0.2,31.6-0.9,47.4
		c-6.7,4.1-13.4,8.4-20.5,11.9c0.5-15.3,0.9-30.7,1-46c-4.4-2.1-9.1-3.9-13.4-6.2c-7.8-11.3-18.8-20.2-31-26.4
		c-22.4-11.3-48.1-14.3-72.9-13.8c-47.1-15.6-95.1-28.3-143.9-37.5C830.2,210.1,826.3,203.2,824.4,195.7z"/>
	<path class="st3" d="M192,329.2c95.7-43.7,197.8-73.5,302.3-86.2c-24,28.2-43.7,59.7-60.7,92.5c-33.3,14.2-62.8,35.7-91.2,57.9
		c-47,37.5-90.5,79-134.6,119.8C197.1,452.5,192,390.9,192,329.2z"/>
	<path class="st3" d="M1089.8,418.7c7.2-5.9,14.1-12.1,21.3-18c-4.5,50.9-12.5,101.5-23.8,151.4c-3.5,14.9-7,29.8-11.3,44.4
		c-5.2-4.6-9.8-9.9-14.8-14.8l0-0.2C1074.9,528.1,1084.3,473.6,1089.8,418.7z"/>
	<path class="st3" d="M1028.2,491.2c3-10.8,8.8-20.6,15.8-29.2c-1.8,9.6-2.6,19.4-4.3,29.1c-2.3,15.2-5.1,30.3-8,45.4
		C1025.8,522.3,1023.9,506.1,1028.2,491.2z"/>
	<path class="st3" d="M801.1,521.2c27.5-5.3,54.8-11.8,81.9-19.1c-62.2,32.8-123.5,68.2-178.2,112.6c-29.5,24-57.2,50.6-79.3,81.7
		c-20.3,28.5-35.7,61.5-38.5,96.7c-1.9,21.1,1.5,42.3,7.9,62.4c22.4-16.6,41-37.4,60.1-57.5c19.7-20.9,39.4-41.9,60.7-61.2
		c24.5-22.4,51.1-42.8,80.2-58.8c28.6-15.8,59.9-27,92.2-31.8c37.3-5.7,75.5-2.8,112,6.2C972.7,732.8,933,809,883.5,878
		c-11.1-0.6-22.1-1.3-33.2-1.9c-1.2,2.7-4.5,3.8-5.7,6.6c-4.5,9-8.3,18.3-12.5,27.4c-2.2,4-2,8.8-0.1,12.9c-2.8,6.3-1.2,13.3-1.6,20
		c-7-16.5-13.5-33.3-20.3-50c-2.8-6.9-7.5-13.2-14-17.1c-4.3-3.5-10.4-3.1-15.4-1.9c-9.2,2.9-15.4,11.3-18.9,20
		c-3.6,8-6.6,16.4-10.6,24.3c0.1-13,0-26,0-39c-2.8-2-4.6-5.3-8-6.3c-4.3-1.4-8.9-0.7-13.4-1c-4,0-8-0.4-12-0.2
		c-6.2,0.4-11.3,6.3-11.1,12.5c-0.1,17.3,0.1,34.7,0,52c-0.1,5.6,0.5,11.3-1.1,16.7c-5.7,1.3-11.6,0.6-17.3-0.1
		c-1.8-4.3-1.4-9.1-1.5-13.6c0-20.5,0-41,0-61.5c-2.6-1-3.7-3.9-6.2-5.1c-2.9-1.8-6.4-1.7-9.6-1.7c-5.7,0-11.4-0.2-17.1,0
		c-5.7,0.2-10.8,5-11.4,10.6c-0.3,3.4,0,6.8-0.3,10.2c-2.8-2.4-4.7-5.8-7.5-8.3c-8.5-8.6-20.8-13.2-32.9-12.7
		c-11.2,0.5-22.8-1.1-33.5,3c-6.5,2.3-12.2,6.5-17.1,11.3c0.9-7-5.3-13.8-12.4-13.5c-16.3,0.3-32.6,0.8-49,1.2
		c-6.8,0.2-13.8-0.2-20.2,2.2c-12.4,4.4-21.4,15.7-24.8,28.2c-2.9,10.7-3,22.3,0.1,33c2.5,8.8,8,16.7,15.5,22.1
		c-1.6,1.6-3.2,3.3-4.1,5.5c-3,6.6-5.9,13.2-8.7,19.9l-0.6-0.5c-21.7-22.8-42.2-46.7-61.6-71.4c-3.4-4.5-7.1-8.7-10.1-13.4
		c-2.7-6.2-7-11.4-12-15.9c-39-53.5-72-111.4-97.8-172.4c43.7-4,86.9-12.8,129.3-23.8c42.7-11,84.7-24.3,126.4-38.5
		c18-5.8,34.9-14.1,51.9-22.1c12.5-6.2,25.1-12.5,36.7-20.3c8.5-5.5,14.1-14.9,15.7-24.9c0.5,4.8-0.2,9.5-0.1,14.3
		c11.9-5,23.4-10.7,35.2-15.8c-0.1-1.3-0.2-2.6-0.3-3.8c9.7-4.9,19.4-10.1,29.2-14.8c-0.2-3.8-1.4-7.5-1.7-11.3
		c2.1,2.3,3.7,4.9,5.4,7.5c6.7-2.9,12.6-7,18.1-11.8c4.5-3.6,8.8-8.1,14.7-9.4C750.6,528.5,776.1,526,801.1,521.2z"/>
	<path class="st3" d="M1036.3,663.3c5.6,2,11.3,4,16.8,6.4C1026.2,744.4,990.8,816,947,882.2c-3.1-0.3-6.1-0.5-9.1-0.7
		c-1.5,2.6-4.5,3.8-5.8,6.5c-2.4,4.2-4.2,8.7-6.4,13c-1.3,0.7-1.9-1.2-2.6-1.9c-1.4-2-3-4-4.7-5.9
		C967.7,822.3,1007.7,744.8,1036.3,663.3z"/>
	<path class="st3" d="M206.8,711.6c6.4,0,12.8,0.2,19.2,0.1c27.1,65.3,61.5,127.5,102.1,185.2c-2.8,6.3-5.1,12.9-8.1,19.1
		c-3.8-5-7.3-10.1-10.8-15.2c-1.1-1.4-0.1-3.3-0.2-4.8c0.8-6.8-5.1-13-11.8-13.2C261.5,828.9,231.3,771.4,206.8,711.6z"/>
	<path class="st3" d="M583.3,924.3c6.6-0.3,13.2-0.2,19.8-0.3c2.3-0.4,3.6,1.8,4.6,3.5c2.1,3.9,2.2,8.4,2.4,12.8
		c-7.2,0.5-14.4,0-21.6,0.5c-4.3,0.4-7.6,3.6-9.8,7.1c-1.7-5.3-1.5-11.1-0.3-16.4C579.2,928.6,580.4,925.4,583.3,924.3z"/>
	<path class="st3" d="M875,951c4.8-5.7,9.2-11.7,13.9-17.5c3.8,5.9,4.3,13.3,2.7,20c-0.8,2.3-1.8,5.3-4.4,6c-4.1,0-8.1-0.4-12.2-0.5
		C874.9,956.3,874.9,953.6,875,951z"/>
	<path class="st3" d="M516.9,1007.7c12.9-0.9,24-9.9,30.1-20.9c6.3,8.7,15.1,15.8,25.6,18.5c6.3,1.8,12.9,1.4,19.4,1.4
		c6.3-0.2,12.7,0.4,18.9-0.8c3-0.8,6,0.8,9,0.6c9.3-0.1,18.7,0,28-0.1c6.4,0.1,11.5-5.5,12.2-11.6c4.9,4.2,10.6,7.5,16.8,9.3
		c8.7,2.7,17.9,2.8,26.9,2.5c6.5-0.3,12.8-1.8,18.8-4.2c3,3.8,7.8,5.3,12.4,5c12.4,0.3,24.7,0.2,37.1,0.8l-0.5,0.5
		c-46.9,47.1-97.8,89.9-149.8,131.2c-51.8-41.2-102.6-83.9-149.3-130.8C487.3,1008.3,502.1,1008.3,516.9,1007.7z"/>
	<path class="st3" d="M409.9,1009.9c2.2-1.1,3.6-3.1,5.1-5c62.8,69.2,133.9,130.4,207,188.4c71.4-56.7,140.7-116.3,202.5-183.5
		c7.9,0.3,15.9,0.2,23.8,1c-68.1,76.9-146,144.3-226.3,208.1c-74.8-59.4-147.6-121.9-212.2-192.5c-4.3-4.8-8.9-9.4-12.8-14.5
		C401.2,1011.3,405.9,1012.1,409.9,1009.9z"/>
</g>
</svg>
