<?xml version="1.0" encoding="utf-8"?>
<!-- Generator: Adobe Illustrator 22.0.1, SVG Export Plug-In . SVG Version: 6.00 Build 0)  -->
<svg version="1.1" id="Layer_1" xmlns="http://www.w3.org/2000/svg" xmlns:xlink="http://www.w3.org/1999/xlink" x="0px" y="0px"
	 viewBox="0 0 600.9 600.9" style="enable-background:new 0 0 600.9 600.9;" xml:space="preserve">
<style type="text/css">
	.st0{fill:url(#SVGID_1_);}
	.st1{fill:url(#SVGID_2_);}
	.st2{fill:#040707;}
	.st3{fill:url(#SVGID_3_);}
	.st4{fill:url(#SVGID_4_);}
	.st5{fill:#C7203A;}
</style>
<g id="_x23_404041ff">
	<linearGradient id="SVGID_1_" gradientUnits="userSpaceOnUse" x1="432.4" y1="128.2731" x2="197.5" y2="128.2731">
		<stop  offset="0" style="stop-color:#C7203A"/>
		<stop  offset="1" style="stop-color:#861B31"/>
	</linearGradient>
	<path class="st0" d="M197.5,128c43.9-25.6,97.8-32.8,147-20.5c32.7,7.9,63.2,24.6,87.9,47.4c-13.8-8.5-28.3-16.5-44-20.9l0.5-0.2
		c-21-6.4-43.2-9.5-65.2-7.9c-28,1.9-55.7,10.7-79.5,25.7C230.3,140.9,214.3,133.2,197.5,128z"/>
	<linearGradient id="SVGID_2_" gradientUnits="userSpaceOnUse" x1="434.6" y1="180.2128" x2="257.3" y2="180.2128">
		<stop  offset="0" style="stop-color:#C7203A"/>
		<stop  offset="1" style="stop-color:#861B31"/>
	</linearGradient>
	<path class="st1" d="M257.3,170.1c24-13.6,51.6-20.9,79.2-20c31.4,0.5,62.4,11.4,87.4,30.3c3.8,2.9,7.5,5.8,10.7,9.2
		c-12.8,4.7-24.2,12.5-34.9,20.8c-21.9-23.4-52.4-38.5-84.3-41.4c-18.2-2-36.6,0.3-54.1,5.7C260,173.2,258.6,171.7,257.3,170.1z"/>
	<path class="st2" d="M461.5,194.3c16-2.3,32.8-1.3,47.9,4.8c12.8,4.9,24,13.3,33.5,23.1c-13,14-27,27.1-40.3,40.7
		c-5-4.3-10.3-9-17.1-10.1c-6.2-1-12.8-1-18.6,1.7c-7.6,3.3-13,10.4-15.6,18.2c-3.1,8.5-2.8,17.7-2.3,26.6
		c0.9,9.3,4.2,19.4,12.2,24.9c6.8,4.9,15.5,5.4,23.6,5.2c0-1.9,0-3.8,0-5.7c-4.5-0.1-9.3,0.4-13.5-1.6c-6.6-2.9-11.8-9.8-11.4-17.2
		c0.1-12.8,0-25.5,0.1-38.3c28.4,0,56.7,0,85,0c0.1,31.8,0.1,63.6,0,95.4c-15.6,15.3-37,23.8-58.5,26c-18.4,1.5-37.5-0.8-54.4-8.7
		c-16-7.3-29.4-19.8-37.8-35.2c-10.6-19.4-13.8-42.3-11.7-64.1c2.1-22,10.8-43.7,26.4-59.6C422.9,206.1,441.8,197.1,461.5,194.3z"/>
	<path class="st2" d="M54.2,196.3c20.9-0.1,41.7,0,62.6,0c10.7,21.2,20.9,42.6,31.9,63.7c0.2-20.7-0.1-41.5,0.2-62.2
		c19.3,20.9,40.9,39.9,58.3,62.5c1.8,2.8,5.2,5.1,4.9,8.7c0,38.8,0,77.6,0,116.4c-20.9,0-41.7,0-62.6,0
		c-10.5-21.4-21.1-42.6-31.6-63.9c-0.3,21.3-0.1,42.6-0.1,63.9c-21.2,0.1-42.3,0-63.5,0C54.2,322.4,54.2,259.3,54.2,196.3z"/>
	<linearGradient id="SVGID_3_" gradientUnits="userSpaceOnUse" x1="399.8" y1="448.6193" x2="122.7" y2="448.6193">
		<stop  offset="0" style="stop-color:#C7203A"/>
		<stop  offset="1" style="stop-color:#861B31"/>
	</linearGradient>
	<path class="st3" d="M122.7,397.8c23.6,0,47.2,0,70.8,0c1.8-0.3,2.8,1.2,3.7,2.5c23.4,31.7,58.1,54.8,96.3,64.2
		c23.5,5.9,48.1,6.7,72,2.5c6.1-0.9,11.9-2.9,17.9-3.9c5.6,2.1,10.8,5.1,16.4,7.1c-3.4,2.9-7.4,4.7-11.3,6.8
		c-37.2,19.4-80.6,26.6-122.1,20.2c-41.3-6.1-80.5-25.7-110.1-55.2C143.1,429,131.8,414,122.7,397.8z"/>
	<linearGradient id="SVGID_4_" gradientUnits="userSpaceOnUse" x1="354.9" y1="435.4591" x2="238.4" y2="435.4591">
		<stop  offset="0" style="stop-color:#C7203A"/>
		<stop  offset="1" style="stop-color:#861B31"/>
	</linearGradient>
	<path class="st4" d="M238.4,418.9c16.5,8.4,34.5,14.3,53,15.6c15.2,1.5,30.6-0.1,45.4-4c5.6,7,11.5,13.7,18.1,19.8
		C314,456.7,270.6,445,238.4,418.9z"/>
</g>
<g id="_x23_d3007dff">
	<path class="st5" d="M95.3,132.9c16.1-3.7,32.7-5.1,49.2-4c27,1.6,53.4,10.4,76.6,24.5c19.1,11.6,36.2,26.4,51.2,42.9
		c17.7,0.4,35.7-1.4,53.1,2.8c16.3,3.4,32.4,12.2,41.2,26.8c9.4,15.1,9.7,33.8,8.6,51c-0.1,10.2-2.3,20.9-8.8,29
		c-4.6,5.8-11.2,9.6-17.9,12.4c6.7,10.2,13.8,20.1,20.6,30.1c5.3,7.4,9.9,15.2,15.7,22.1c16.6,18.5,33.8,36.4,53.7,51.4
		c17.9,13.5,37.8,25.3,59.9,30.1c8.1,1.8,16.4,1.9,24.6,1.6c-31.4,12.7-66.3,16-99.6,10c-9.8-1.9-19.7-3.9-28.8-8
		c-13.8-6.1-25.7-15.7-36-26.6c-14-15-25.7-31.8-37.9-48.1c-9.2-12.9-19.2-25.1-28.4-37.9c-2.7-3.5-5-7.4-8.1-10.6
		c-0.2,17.6-0.1,35.3-0.1,52.9c-20.2,0-40.5,0.1-60.7-0.1c0-42.5,0-84.9,0-127.4c0-2.6,0.2-5.2-0.2-7.7
		c-5.9-8.6-13.1-16.2-19.9-24.1c-8-9.3-17-17.7-24.9-27.1C154.6,172.6,127.6,148.3,95.3,132.9 M285.3,248.1c0,12.1,0,24.2,0,36.3
		c7.4-0.3,15.3,1.3,22.3-1.9c5.4-2.2,10.5-6.6,11.3-12.6c0.8-8.2-3.8-16.8-11.3-20.2C300.6,246.6,292.7,247.9,285.3,248.1z"/>
</g>
<g id="_x23_8e0053ff">
	<path class="st5" d="M21.2,169.7c14.1-13.2,31.1-23.3,49.3-29.8c2.3-1,4.7,0.1,6.9,0.6c18.8,5.7,36.6,14.5,53.1,25.2
		c7.4,5,14.8,10.1,21.4,16.3c-19-9.6-40-15.3-61.3-15.4c-27,0-53.8,8-77.1,21.3c-3.8,2.2-7.8,4.4-10.9,7.5c-0.5,0.1-1.5,0.2-2,0.3
		v-1.3c4.4-4.5,7.3-10.3,11.4-15.1l0.2,0.4c1.3-1.6,2.6-3.2,3.9-4.8c0.2-0.2,0.7-0.7,1-0.9C18.4,172.6,19.8,171.1,21.2,169.7z"/>
	<path class="st5" d="M584,397.2c5.7-2.4,10.9-5.8,16.5-8.1v1.4c-2.5,3.1-4.2,6.6-6.3,9.9c-4.5,6.8-10.2,12.8-15.9,18.6l-0.2-0.1
		c-1.3,1.3-2.7,2.5-4,3.8c-7.5,6.5-15.6,12.5-24.2,17.6c-3.7,2.4-8.3,1.8-12.4,2c-38.1,0.7-76-12.8-105.4-36.9c-2-1.7-4-3.4-6-5.1
		C476.4,419.5,534.5,419.1,584,397.2z"/>
</g>
</svg>
