<?xml version="1.0" encoding="utf-8"?>
<!-- Generator: Adobe Illustrator 21.0.0, SVG Export Plug-In . SVG Version: 6.00 Build 0)  -->
<svg version="1.1" id="Layer_1" xmlns="http://www.w3.org/2000/svg" xmlns:xlink="http://www.w3.org/1999/xlink" x="0px" y="0px"
	 viewBox="0 0 1162.9 1162.9" style="enable-background:new 0 0 1162.9 1162.9;" xml:space="preserve">
<style type="text/css">
	.st0{fill:#CAD1D8;stroke:#CAD1D8;stroke-width:9.375000e-02;}
	.st1{fill:#1A232D;stroke:#1A232D;stroke-width:9.375000e-02;}
	.st2{fill:#FFFFFF;stroke:#FFFFFF;stroke-width:9.375000e-02;}
	.st3{fill:#A3AAB2;stroke:#A3AAB2;stroke-width:9.375000e-02;}
	.st4{fill:#838A90;stroke:#838A90;stroke-width:9.375000e-02;}
</style>
<g>
	<path class="st0" d="M830.7,56.2c80.2-19.8,160.7-38.3,241.4-56.1c-1.1,23,0,46.3-4.3,69c-5.7,32-18.5,62.5-35.3,90.3
		c-15.3,25.1-33.5,48.5-55.1,68.4c-9-0.9-18.1-1.9-27.2-1.3c-16.8,0.9-34.2,4.2-48.3,13.9c6.3,5.2,12.7,10.4,18.8,15.9
		c43.9,39.1,79.3,87.3,104.8,140.1c23.9,49.6,39.5,103.1,47.7,157.6c3.9,26.1,6.6,52.5,5,78.9c-1.6,38.1-9,75.9-21.5,111.9
		c-11.8,34.3-27.9,67-47.1,97.7c-34.6,55.3-78.6,104.3-127,147.8c-52.3,46.9-109.7,88-170,124c-29.9,17.7-60.4,34.5-92.2,48.6
		c-10.9-5.8-21.7-11.7-32.2-18c-65.3-39.1-127-84.4-183.9-135.1c-46.1-41.2-89-86.3-125.9-136.1c-38.7-52.1-70.8-109.6-90.6-171.7
		c-12.8-40-20.2-81.7-21.2-123.6c-27.5-31.3-53.7-63.7-79.2-96.7c-1-1.1-1.8-2.6-3.2-3.2v-0.4c74.8-42.2,149.6-84.6,224.2-127
		c22-12.6,44.1-25,66-37.9c3.4-3,4.6-7.6,6.7-11.4c10.8-25.5,18.4-52.4,30.8-77.3c7.5-15.2,16.8-30,29.8-41.1
		c10.2-8.4,22-14.4,33.9-20c33.8-15.4,69.2-27.1,104.6-38.5C662.8,99,746.6,77.1,830.7,56.2 M880.1,75.2
		c-83.7,20.3-167.2,41.5-249.8,65.9c-39.7,11.9-79.2,24.2-117.8,39.3c-15.3,6.2-30.7,12.5-44.8,21.2c-12.6,7.6-20.7,20.6-27.4,33.3
		c-9.6,18.8-16.3,38.9-23.6,58.6c-3.9,10.4-7.8,20.9-13.2,30.8c-3,5.3-6.6,10.7-12,13.9c-20.2,11.9-40.6,23.4-61,35
		c-66.8,38-133.7,75.9-200.6,113.8c21.5,27.3,43.9,54.1,66.9,80.2c-0.4,33.6,4.2,67.2,12.4,99.8c16.5,65.3,48.2,126,87.4,180.5
		c35.7,49.5,77.6,94.3,122.7,135.3c35.4,32,72.8,61.6,111.8,89.1c29.2,20.5,59.1,39.9,90.3,57.3c16.8-7.8,33.2-16.6,49.4-25.6
		c34.2-19.1,67.3-40,99.4-62.5c55.9-39.4,108.6-84,154.1-135.2c42.2-47.6,78.3-101.6,100.6-161.5c15.2-40.7,23.6-84,23.5-127.5
		c0.2-25.1-3.4-50-7.6-74.7c-10-55.4-28.2-109.6-56-158.7c-30.5-54.1-73.2-101.3-124.4-136.4c6.4-17.1,20.2-30.8,36.6-38.5
		c21.5-10.3,45.9-13.3,69.5-12c15.3-15.5,28.4-33.1,39.8-51.6c19.7-32.3,33.6-68.9,34.8-107C987.1,49.9,933.5,62.3,880.1,75.2z"/>
	<path class="st1" d="M880.1,75.2c53.4-12.9,107-25.3,160.7-37.3c-1.2,38.1-15.1,74.7-34.8,107c-11.4,18.5-24.5,36.1-39.8,51.6
		c-23.6-1.3-48,1.8-69.5,12c-16.4,7.8-30.2,21.4-36.6,38.5c51.2,35.1,93.9,82.3,124.4,136.4c27.8,49.1,46,103.3,56,158.7
		c4.3,24.7,7.8,49.6,7.6,74.7c0.1,43.5-8.3,86.8-23.5,127.5c-22.3,59.9-58.4,113.8-100.6,161.5c-45.5,51.3-98.2,95.8-154.1,135.2
		c-32,22.5-65.2,43.4-99.4,62.5c-16.2,9-32.6,17.8-49.4,25.6c-31.1-17.5-61.1-36.9-90.3-57.3c-39-27.5-76.5-57.1-111.8-89.1
		c-44.9-40.9-86.8-85.7-122.5-135.2C257.3,793,225.6,732.3,209.1,667c-8.2-32.6-12.8-66.2-12.4-99.8c-23-26.1-45.3-52.9-66.9-80.2
		c66.9-37.9,133.8-75.7,200.6-113.8c20.4-11.6,40.8-23.2,61-35c5.5-3.1,9-8.5,12-13.9c5.4-9.8,9.3-20.3,13.2-30.8
		c7.3-19.8,14-39.8,23.6-58.6c6.7-12.8,14.8-25.7,27.4-33.3c14.1-8.8,29.4-15.1,44.8-21.2c38.6-15.1,78.2-27.4,117.8-39.3
		C712.9,116.7,796.4,95.5,880.1,75.2 M764.2,150c7.4,1,14.5,4,20.7,8.2c11.8,8,20.8,19.4,27.8,31.8l-0.1,0.2
		c5.7,9.9,9.3,20.9,10.9,32.2c7.4-14.7,17.8-28,30.7-38.2c26.1-20.9,59.9-29.6,92.9-31.2c6.1-7.3,11.7-15,16.9-22.9
		c0.6-0.9,1-1.8,1.3-2.8l0.5,0.1c6.4-10.1,12.3-20.6,17.1-31.5C909.7,112.7,836.7,130.5,764.2,150 M725.1,160.5
		c-26.4,7.3-52.6,14.8-78.8,22.6c-36.4,10.9-72.7,22.2-108.3,35.7c-11.7,4.6-23.5,9.2-34.1,15.9c-6.5,4-11.2,10.3-15.4,16.7
		c-7.6,11.9-13.1,24.9-18,38.1c-2.3,5.5-3.9,11.6-2.4,17.5c3.5,17.3,25.5,27.8,41,19.1c8-4.9,14.7-11.5,21.7-17.5
		c14.8-13.1,30.2-25.7,47.3-35.8c25.1-15,53.7-24.5,83-25.9c7.4,3.6,14.5,7.9,21.4,12.6l-0.2,0.4c-5.2,0-10.3,1.2-15.4,2.2
		c-7.4,1.7-15,3.8-20.9,8.7c-0.7,11.6-2.8,23-4.9,34.4l-0.7,0.6c14.3,0.1,28.5-4.4,41-11.2c0.3,0.4,0.8,1.2,1,1.6h-1
		c-16.5,20.3-39.5,34.6-64.2,42.8c-24.8,8.4-51,11.3-77.1,12.6c-9.7,0.6-19.5,0.6-29.2,1.8c-6.2,0.8-12,3.1-17.9,5
		c-21.7,7.8-42.8,17.2-63.7,26.7c-35.4,16.3-70.6,33-105.4,50.4c17.9-4.8,35.9-9.2,54.1-12.7c7.9-1.4,15.9-2.9,24-2.9
		c6.2-0.2,11.5,3.4,16.5,6.5c13.4,9,25.7,19.5,38.2,29.7c27.3,22.6,54.5,45.7,84.9,64.1c13.7,8,28.2,15.7,44.2,17.9
		c9.4,1.8,19.1-1,27.5-5.1c13.4-6.6,24.9-16.3,35.6-26.5c14.5-13.9,27.5-29.3,39.8-45.1c18.1-23.4,34.7-47.9,50.1-73.1
		c0.1,1.5,0.4,3,0.3,4.6c-0.7,20.4-5.2,40.6-12.7,59.5c17.6-5.7,35-12.5,51.6-20.7c14.1-7,27.7-15.1,39.8-25.1
		c1-0.8,1.9-1.9,2.8-2.9c1.6-0.8,2.8-2.2,4.1-3.5c-16.5-11.6-30.9-26.2-41.5-43.4c-9.9-16.2-16.2-34.9-16.6-53.9
		c0-20.3,6-39.9,8.6-59.9c1.8-12,1.9-24.2,0.5-36.2c-1.6-12.3-4.5-24.8-11.3-35.2c-4.6-7.1-11.8-12.9-20.3-13.9
		C737.6,156.7,731.3,158.8,725.1,160.5 M815.3,268.7c-4.9,16.2-7.2,33.7-3,50.3c4.3,17.6,15.5,32.8,28.6,45
		c-0.1-0.8-0.3-1.5-0.5-2.2c-6.2-16.5-8-34.8-4.2-52.1c8.5,4.4,15.4,11.4,21.2,18.9c11.9,15.8,19.5,34.8,21.7,54.4
		c1.3,13.8,0.8,28.6-6.2,40.9c-8.5,13.6-22.1,22.6-34.8,31.9c-16.2,11.5-32,23.9-44.6,39.4c-22.1,26.4-34.2,59.8-39.9,93.4
		c17.5-6.7,33.9-16.2,49.2-27c24.8-17.6,46.9-38.8,66.8-61.8c-0.1,1.1-0.2,3.3-0.3,4.4c-5.8,32.5-21.3,62.7-41.2,88.8
		c-19.3,25.2-43.2,46.8-69.3,64.8c-30.1,20.7-63.1,36.9-97.2,49.7c-0.4,0.2-1.3,0.6-1.8,0.8c49.1,15.7,102.5,14.6,152,1.5
		c34.9-9.2,68.3-23.9,98.9-43c21.9-13.8,42.8-29.5,60.2-48.7c6.5-7.5,13-15.5,16.4-25c1.7-4.5,0.8-9.4,0.6-14
		c-1.9-29.3-7.3-58.5-16.9-86.2c-17.9,36.3-41,70.2-69.4,99c-1.3,1.2-2.5,2.7-4.2,3.3c12.6-20.8,22.1-43.5,28.7-66.9
		c10.1-36,13.3-74.3,6.7-111.2c-5.3-30-17.7-59.2-37.7-82.4c-11.5-12.5-24-24.1-37.2-34.8c-13.4-10.8-27.7-20.4-41.9-30
		C816.1,269.5,815.6,269,815.3,268.7 M541.4,328.7c13,2.3,26.5,3,39.6,0.4c12.5-2.5,25.2-8.1,33-18.6c-4.2,1.2-8.5,2.1-12.9,2.3
		c3.4-9.7,6.1-20.7,2.7-30.8C581,294.5,559.2,309.5,541.4,328.7 M383.7,436.7c-24.4,3.4-48.3,9.6-71.7,17.1
		c-37.6,12-74.3,26.7-110.2,43c22.7-1.6,45.5-3.4,68.2-5.2c1.5-0.1,2.9-0.1,4.4,0c-12.5,17.7-27.4,33.9-45.1,46.6
		c16.6,18.6,33.4,37,51.8,53.8c5.8,5.8,13.7,9.6,22,9.8c6.4-0.1,12.6-2.1,18.9-3.3c65.3-14.8,129.7-33.4,194.9-48.7
		c6.5-1.5,13-3,19.5-4.4c-8.5-4.9-16.8-10.2-24.5-16.2c-17.7-13.5-34.4-28.2-51.2-42.6c-8.4-7-16.4-14.5-25.2-21
		c-1.2-1.1-2.3-2.9-4-3.1l0.4-0.2c-11.2-8.6-22.1-17.9-35-24C392.8,436.1,388.1,435.6,383.7,436.7 M559,585.2
		c-20.4,3.9-40.7,8.9-60.9,13.8c-47.5,11.8-94.8,24.8-142.4,36.3c-18.2,4.3-36.4,8.7-54.9,11.4c-6,0.6-12.3,1.9-18.1-0.4
		c-5.6-2.2-10.6-5.7-15.5-9.3c4.8,24.1,12.5,47.5,21.9,70.2c24,57.8,60,109.8,101.2,156.7c40,45.4,85,86.2,132.7,123.3
		c32.1,24.9,65.4,48.3,100,69.6c64.8-36.9,126.9-78.8,184-126.9c47.3-40.2,91.6-84.8,126.4-136.5c23.4-35,42.3-73.8,50.3-115.4
		c-38.2,32.5-82.7,57.6-130.5,72.8c26.1-4.5,52-10.4,77.3-18.3c-12.9,26.5-29.5,51.1-47.8,74.1c-23.9,29.9-50.8,57.2-79.3,82.6
		c-28.2,25.1-58,48.4-88.8,70.3c-29.5,20.8-59.8,40.7-91.2,58.7c-27.5-17.9-54.4-36.9-80.3-57.1C496.7,924.9,453,885.2,414.2,841
		c-40.8-46.8-76.5-98.9-98.9-157c-1.7-4.3-3.3-9.1-2.4-13.8c0.6-2.8,3.3-4,5.7-4.7c83.2-26.8,166.3-53.6,249.5-80.3
		c1.7-0.6,3.6-0.8,5.1-1.9C568.4,583.4,563.7,584.4,559,585.2 M446.4,756c16.9,21.2,35.1,41.3,54.1,60.6
		c38.4,38.6,79.6,74.3,123.3,106.8c0-7.6,0-15.2,0-22.7c32.2-20.8,62.7-44.2,91.4-69.6c22.6-20.2,44.1-41.6,63.1-65.2
		c-5.9,4.5-11.3,9.6-17.2,14.1c-42.9,34.1-89.4,63.5-137.2,90.1c-7.1-3-13.9-6.5-20.8-10C547.3,831.2,495.4,795.2,446.4,756z"/>
	<path class="st2" d="M764.2,150c72.5-19.5,145.5-37.3,218.7-54.3c-4.8,11-10.7,21.4-17.1,31.5l-0.5-0.1c-10.4-1.6-21.1-1-31.6-0.4
		c-33.7,2.6-67.2,13.9-94.2,34.5c-7.5,5.8-14.5,12.2-20.4,19.6c-2.3,2.9-4.1,6.2-6.5,9c-6.9-12.3-16-23.8-27.8-31.8
		C778.7,154,771.7,151,764.2,150z"/>
	<path class="st3" d="M933.7,126.8c10.5-0.6,21.1-1.2,31.6,0.4c-0.3,1-0.7,1.9-1.3,2.8c-5.3,7.9-10.9,15.6-16.9,22.9
		c-32.9,1.6-66.7,10.3-92.9,31.2c-13,10.2-23.3,23.5-30.7,38.2c-1.6-11.3-5.3-22.3-10.9-32.2l0.1-0.2c2.4-2.8,4.1-6.1,6.5-9
		c5.9-7.4,12.9-13.9,20.4-19.6C866.5,140.7,899.9,129.3,933.7,126.8z"/>
	<path class="st2" d="M725.1,160.5c6.1-1.7,12.5-3.8,19-2.8c8.5,1,15.8,6.9,20.3,13.9c6.8,10.5,9.8,23,11.3,35.2
		c-18.7-0.1-37.7,3.5-54.3,12.3c-16.8,8.9-30.8,23.1-38.9,40.4c-6.8-4.7-13.9-9-21.4-12.6c-29.3,1.3-57.9,10.9-83,25.9
		c-17,10.1-32.5,22.6-47.3,35.8c-7.1,6-13.8,12.6-21.7,17.5c-15.5,8.7-37.5-1.9-41-19.1c-1.4-5.9,0.2-12,2.4-17.5
		c4.9-13.2,10.4-26.2,18-38.1c4.1-6.3,8.8-12.6,15.4-16.7c10.6-6.7,22.4-11.3,34.1-15.9c35.6-13.4,71.9-24.8,108.3-35.7
		C672.5,175.3,698.8,167.8,725.1,160.5z"/>
	<path class="st3" d="M721.5,219.2c16.6-8.9,35.6-12.4,54.3-12.3c1.4,12,1.3,24.2-0.5,36.2c-2.6,20-8.6,39.6-8.6,59.9
		c0.5,19.1,6.7,37.8,16.6,53.9c10.6,17.2,25,31.8,41.5,43.4c-1.3,1.2-2.5,2.7-4.1,3.5c-5.7,1.9-10.9,5-16.5,7.1
		c-12.9,5.2-27,9.3-41,7c-7.1-1.2-13.6-5.4-17.6-11.4c-3.6-5.6-5.8-12.1-5.9-18.8c-0.2,0.2-0.5,0.6-0.6,0.8
		c-15.5,25.2-32,49.7-50.1,73.1c-12.3,15.8-25.3,31.2-39.8,45.1c-10.8,10.2-22.3,19.9-35.6,26.5c-8.4,4.1-18.1,6.9-27.5,5.1
		c0.3-0.1,0.8-0.4,1.1-0.5c-17.2-5.3-31.8-17.1-42.5-31.3c-14.2-18.9-21.5-42.2-23.5-65.6c32.3-17.5,66.9-30.5,102.3-39.9
		c44.5-11.6,90.4-17.8,136.4-18c-12.3-8-26.2-13.2-40.1-17.6c-17.9-5.5-36.4-8.6-55-9.7c13.7-17.5,21.3-40,19-62.3
		c-0.7,0.4-1.4,0.7-2.1,1.1c-12.5,6.8-26.7,11.3-41,11.2l0.7-0.6c6.1-4.6,11.3-10.1,16.8-15.4c7.4-7.3,14.6-14.9,20.7-23.3
		c1.5-2,2.6-4.3,3.7-6.6l0.2-0.4C690.7,242.3,704.7,228.1,721.5,219.2z"/>
	<path class="st4" d="M667,262.2c5.1-1,10.2-2.2,15.4-2.2c-1.1,2.3-2.2,4.5-3.7,6.6c-6.2,8.4-13.3,16-20.7,23.3
		c-5.4,5.3-10.7,10.8-16.8,15.4c2.1-11.4,4.1-22.8,4.9-34.4C652,266,659.6,263.9,667,262.2z"/>
	<path class="st3" d="M815.3,268.7c0.3,0.3,0.8,0.9,1,1.1c8.7,12.1,15.7,25.5,19.9,39.9c-3.8,17.3-2,35.6,4.2,52.1
		c0.2,0.7,0.4,1.4,0.5,2.2c-13.1-12.2-24.3-27.3-28.6-45C808.1,302.4,810.4,284.9,815.3,268.7z"/>
	<path class="st2" d="M816.3,269.8c14.2,9.6,28.5,19.2,41.9,30c13.3,10.6,25.8,22.2,37.2,34.8c20,23.2,32.4,52.3,37.7,82.4
		c6.5,37,3.3,75.2-6.7,111.2c-6.6,23.4-16.1,46.1-28.7,66.9c-3.2,4.5-7.7,7.9-11.7,11.7c-46.5,42-103.9,70.9-164,87.7
		c-17,4.8-34.2,8.7-51.6,11.9c-2.9,0.6-5.8,1-8.7,1.1c34.1-12.9,67.2-29,97.2-49.7c26.1-18,50-39.5,69.3-64.8
		c19.9-26.1,35.3-56.3,41.2-88.8c3.8-26.5,5.2-53.5,3.6-80.3c7.1-12.3,7.5-27.1,6.2-40.9c-2.2-19.6-9.8-38.7-21.7-54.4
		c-5.8-7.5-12.7-14.5-21.2-18.9C832,295.3,825,281.9,816.3,269.8z"/>
	<path class="st2" d="M541.4,328.7c17.8-19.2,39.6-34.2,62.4-46.8c3.4,10.1,0.7,21.1-2.7,30.8c4.4-0.2,8.7-1.1,12.9-2.3
		c-7.8,10.5-20.5,16.1-33,18.6C568,331.7,554.5,331,541.4,328.7z"/>
	<path class="st2" d="M681.4,294.6c0.7-0.4,1.4-0.8,2.1-1.1c2.3,22.2-5.3,44.8-19,62.3c18.6,1.1,37.2,4.2,55,9.7
		c13.9,4.4,27.8,9.6,40.1,17.6c-46,0.1-91.9,6.3-136.4,18c-35.5,9.4-70.1,22.4-102.3,39.9c2,23.4,9.3,46.7,23.5,65.6
		c10.7,14.2,25.3,26,42.5,31.3c-0.3,0.1-0.8,0.4-1.1,0.5c-15.9-2.3-30.5-9.9-44.2-17.9c-30.4-18.4-57.5-41.6-84.9-64.1
		c-12.5-10.2-24.8-20.8-38.2-29.7c-5-3.1-10.3-6.7-16.5-6.5c-8.1,0.1-16,1.5-24,2.9c-18.2,3.5-36.2,7.9-54.1,12.7
		c34.8-17.5,70-34.2,105.4-50.4c21-9.5,42-18.9,63.7-26.7c5.9-1.9,11.7-4.3,17.9-5c9.7-1.1,19.4-1.2,29.2-1.8
		c26-1.2,52.3-4.2,77.1-12.6c24.7-8.2,47.7-22.5,64.2-42.8h1C682.2,295.8,681.7,295,681.4,294.6z"/>
	<path class="st4" d="M738.9,388.5c0.2-0.2,0.5-0.6,0.6-0.8c0.2,6.7,2.3,13.2,5.9,18.8c4,6,10.5,10.2,17.6,11.4
		c14,2.2,28.1-1.8,41-7c5.6-2.2,10.8-5.3,16.5-7.1c-0.8,1.1-1.7,2.1-2.8,2.9c-12.1,10.1-25.7,18.1-39.8,25.1
		c-16.6,8.2-34,15-51.6,20.7c7.6-18.9,12-39.1,12.7-59.5C739.3,391.5,739,390,738.9,388.5z"/>
	<path class="st3" d="M838.1,455.9c12.7-9.3,26.3-18.3,34.8-31.9c1.6,26.8,0.2,53.7-3.6,80.3c0.1-1.1,0.2-3.3,0.3-4.4
		c-19.9,23-42,44.2-66.8,61.8c-15.3,10.8-31.7,20.3-49.2,27c5.7-33.6,17.8-67,39.9-93.4C806.1,479.8,821.9,467.4,838.1,455.9z"/>
	<path class="st2" d="M383.7,436.7c4.4-1.1,9.1-0.6,13.2,1.5c12.9,6.1,23.8,15.4,35,24l-0.4,0.2c-2.2,0.9-4.4,1.5-6.7,2
		c-46.4,10.9-93.4,19.4-140.6,25.7c-4.7,0.7-9.5,1.1-14.2,1.5c-22.7,1.8-45.4,3.5-68.2,5.2c35.9-16.3,72.6-31,110.2-43
		C335.4,446.3,359.3,440.1,383.7,436.7z"/>
	<path class="st3" d="M431.4,462.4c1.6,0.3,2.8,2,4,3.1c6,8.2,13.3,15.4,20,23.1c15.3,16.7,31.1,33,47.6,48.6
		c4.6,4.3,9.5,8.1,13.9,12.6c-65.2,15.3-129.5,33.9-194.9,48.7c-6.3,1.2-12.5,3.2-18.9,3.3c-8.3-0.1-16.2-4-22-9.8
		c-18.4-16.8-35.3-35.2-51.8-53.8c17.6-12.7,32.6-28.9,45.1-46.6c-1.5-0.2-2.9-0.2-4.4,0c4.8-0.4,9.5-0.8,14.2-1.5
		c47.2-6.3,94.2-14.8,140.6-25.7C427,463.9,429.3,463.3,431.4,462.4z"/>
	<path class="st4" d="M435.4,465.5c8.8,6.5,16.8,14,25.2,21c16.9,14.5,33.5,29.1,51.2,42.6c7.7,6,16,11.3,24.5,16.2
		c-6.5,1.4-13,2.9-19.5,4.4c-4.3-4.5-9.3-8.4-13.9-12.6c-16.5-15.5-32.3-31.8-47.6-48.6C448.7,480.9,441.4,473.7,435.4,465.5z"/>
	<path class="st3" d="M901.9,591.8c28.4-28.9,51.5-62.8,69.4-99c9.6,27.8,15,56.9,16.9,86.2c0.2,4.7,1,9.5-0.6,14
		c-3.4,9.5-9.9,17.5-16.4,25c-17.4,19.2-38.3,35-60.2,48.7c-30.6,19-64,33.8-98.9,43c-49.5,13.1-103,14.2-152-1.5
		c0.4-0.2,1.3-0.6,1.8-0.8c2.9,0,5.8-0.5,8.7-1.1c17.4-3.1,34.6-7,51.6-11.9c60.1-16.9,117.5-45.7,164-87.7c4-3.8,8.5-7.2,11.7-11.7
		C899.4,594.5,900.6,593,901.9,591.8z"/>
	<path class="st3" d="M559,585.2c4.7-0.8,9.5-1.9,14.3-2.2c-1.5,1.1-3.4,1.3-5.1,1.9c-83.2,26.8-166.3,53.6-249.5,80.3
		c-2.4,0.7-5.1,2-5.7,4.7c-1,4.7,0.7,9.5,2.4,13.8c22.4,58.2,58.1,110.3,98.9,157c38.8,44.2,82.5,84,128.9,120.1
		c25.9,20.2,52.8,39.2,80.3,57.1c31.3-18,61.7-37.8,91.2-58.7c30.8-21.9,60.6-45.2,88.8-70.3c28.5-25.5,55.5-52.7,79.3-82.6
		c18.3-23,34.9-47.6,47.8-74.1c-25.3,7.9-51.2,13.8-77.3,18.3c47.8-15.2,92.3-40.4,130.5-72.8c-8,41.6-26.9,80.4-50.3,115.4
		c-34.8,51.7-79,96.3-126.4,136.5c-57.1,48.1-119.2,90-184,126.9c-34.6-21.3-67.9-44.7-100-69.6c-47.7-37.1-92.7-77.9-132.7-123.3
		C349.1,817,313.1,765,289,707.2c-9.4-22.7-17.1-46.1-21.9-70.2c4.9,3.6,9.9,7,15.5,9.3c5.8,2.3,12.1,1,18.1,0.4
		c18.5-2.7,36.8-7.1,54.9-11.4c47.6-11.5,94.9-24.4,142.4-36.3C518.3,594.1,538.5,589.1,559,585.2z"/>
	<path class="st2" d="M446.4,756c49,39.2,100.9,75.2,156.7,104.1c6.8,3.5,13.7,7,20.8,10c47.8-26.6,94.4-56,137.2-90.1
		c5.9-4.5,11.3-9.7,17.2-14.1c-19,23.6-40.5,45-63.1,65.2c-28.7,25.4-59.2,48.8-91.4,69.6c0,7.6,0,15.2,0,22.7
		c-43.7-32.4-84.9-68.2-123.3-106.8C481.5,797.4,463.3,777.2,446.4,756z"/>
</g>
</svg>
